<svg width="202" height="140" viewBox="0 0 202 140" fill="#EFEDE9" xmlns="http://www.w3.org/2000/svg">
<path d="M88.8279 44.08C88.8705 44.3787 88.9025 44.6987 88.9239 45.04C88.9559 45.3707 88.9772 45.7067 88.9879 46.048C89.0092 46.3893 89.0199 46.72 89.0199 47.04C89.0199 47.36 89.0145 47.648 89.0039 47.904C89.3452 48.1387 89.5479 48.3467 89.6119 48.528C89.6865 48.7093 89.6972 48.8693 89.6439 49.008C89.5799 49.2 89.4625 49.3013 89.2919 49.312C89.1319 49.312 88.9452 49.2533 88.7319 49.136C88.5825 49.2427 88.4119 49.36 88.2199 49.488C88.0279 49.6053 87.8252 49.7227 87.6119 49.84C87.3985 49.9467 87.1852 50.0427 86.9719 50.128C86.7585 50.2133 86.5612 50.272 86.3799 50.304C86.0385 50.3573 85.7292 50.2933 85.4519 50.112C85.1852 49.9307 85.0039 49.6587 84.9079 49.296C84.8439 49.0507 84.8279 48.8 84.8599 48.544C84.8919 48.2773 84.9719 48.0267 85.0999 47.792C85.2279 47.5467 85.3985 47.328 85.6119 47.136C85.8359 46.944 86.0972 46.7947 86.3959 46.688C86.4705 46.656 86.5719 46.6293 86.6999 46.608C86.8385 46.5867 86.9772 46.5813 87.1159 46.592C87.2652 46.592 87.4145 46.6187 87.5639 46.672C87.7132 46.7253 87.8519 46.816 87.9799 46.944C87.9799 46.7627 87.9745 46.5653 87.9639 46.352C87.9639 46.128 87.9585 45.904 87.9479 45.68C87.9372 45.456 87.9212 45.248 87.8999 45.056C87.8892 44.8533 87.8732 44.6827 87.8519 44.544C87.8305 44.384 87.7665 44.288 87.6599 44.256C87.5639 44.2133 87.4412 44.2187 87.2919 44.272C87.0359 44.3573 86.7372 44.5227 86.3959 44.768C86.0545 45.0133 85.7292 45.2747 85.4199 45.552C85.3239 45.648 85.2119 45.6907 85.0839 45.68C84.9665 45.6693 84.8652 45.6213 84.7799 45.536C84.6945 45.4507 84.6465 45.3547 84.6359 45.248C84.6252 45.1307 84.6679 45.008 84.7639 44.88C84.9452 44.688 85.1479 44.4907 85.3719 44.288C85.5959 44.0853 85.8305 43.904 86.0759 43.744C86.3212 43.5733 86.5719 43.4347 86.8279 43.328C87.0839 43.2213 87.3399 43.1627 87.5959 43.152C87.9692 43.1413 88.2572 43.2267 88.4599 43.408C88.6625 43.5787 88.7852 43.8027 88.8279 44.08ZM86.9719 47.52C86.8332 47.552 86.6839 47.6213 86.5239 47.728C86.3745 47.824 86.2359 47.9467 86.1079 48.096C85.9905 48.2347 85.8999 48.3947 85.8359 48.576C85.7825 48.7467 85.7825 48.9173 85.8359 49.088C85.8572 49.152 85.8999 49.2 85.9639 49.232C86.0385 49.264 86.1185 49.2693 86.2039 49.248C86.4599 49.1947 86.7479 49.0933 87.0679 48.944C87.3985 48.784 87.6599 48.6133 87.8519 48.432C87.8519 48.368 87.8199 48.288 87.7559 48.192C87.6919 48.0853 87.6172 47.984 87.5319 47.888C87.4465 47.7813 87.3505 47.6907 87.2439 47.616C87.1479 47.5413 87.0572 47.5093 86.9719 47.52ZM91.6019 44.72C91.6339 44.88 91.6659 45.0613 91.6979 45.264C91.7405 45.456 91.7832 45.6587 91.8259 45.872C91.8685 46.0747 91.9059 46.2827 91.9379 46.496C91.9699 46.7093 91.9965 46.912 92.0179 47.104C92.1459 46.8267 92.2845 46.5333 92.4339 46.224C92.5832 45.9147 92.7432 45.632 92.9139 45.376C93.0952 45.1093 93.2819 44.8907 93.4739 44.72C93.6765 44.5493 93.8952 44.464 94.1299 44.464C94.4819 44.464 94.7752 44.592 95.0099 44.848C95.2552 45.104 95.4579 45.424 95.6179 45.808C95.7885 46.1813 95.9219 46.576 96.0179 46.992C96.1139 47.408 96.1939 47.776 96.2579 48.096C96.3219 48.384 96.1939 48.5973 95.8739 48.736C95.7245 48.8107 95.6125 48.8213 95.5379 48.768C95.4632 48.7147 95.4205 48.6613 95.4099 48.608C95.3565 48.48 95.2872 48.256 95.2019 47.936C95.1272 47.616 95.0365 47.2907 94.9299 46.96C94.8339 46.6293 94.7219 46.3413 94.5939 46.096C94.4659 45.8507 94.3219 45.7387 94.1619 45.76C93.9699 45.7707 93.7992 45.9147 93.6499 46.192C93.5219 46.416 93.3885 46.6667 93.2499 46.944C93.1219 47.2107 92.9939 47.488 92.8659 47.776C92.7379 48.0533 92.6099 48.336 92.4819 48.624C92.3645 48.9013 92.2525 49.1573 92.1459 49.392C92.0712 49.4667 91.9752 49.52 91.8579 49.552C91.7512 49.5733 91.6392 49.5627 91.5219 49.52C91.4152 49.488 91.3299 49.4347 91.2659 49.36C91.2019 49.2853 91.1699 49.2107 91.1699 49.136C91.0739 48.304 90.9725 47.5467 90.8659 46.864C90.7699 46.1813 90.6419 45.4827 90.4819 44.768C90.4072 44.5227 90.3912 44.3307 90.4339 44.192C90.4872 44.0427 90.6472 43.984 90.9139 44.016C91.2872 44.08 91.5165 44.3147 91.6019 44.72ZM100.271 45.584C100.356 45.7013 100.436 45.8507 100.511 46.032C100.596 46.2027 100.66 46.3787 100.703 46.56C100.767 46.848 100.836 47.1627 100.911 47.504C100.996 47.8347 101.076 48.1813 101.151 48.544C101.236 48.9067 101.311 49.2747 101.375 49.648C101.45 50.0213 101.514 50.3787 101.567 50.72C101.631 51.1893 101.594 51.6373 101.455 52.064C101.327 52.5013 101.108 52.8907 100.799 53.232C100.49 53.5733 100.106 53.8453 99.6471 54.048C99.1885 54.2507 98.6711 54.3627 98.0951 54.384C97.9671 54.3733 97.8338 54.3093 97.6951 54.192C97.5565 54.0853 97.4871 53.9733 97.4871 53.856C97.4765 53.7387 97.5298 53.6427 97.6471 53.568C97.7751 53.504 97.9031 53.4613 98.0311 53.44C98.2551 53.4187 98.4845 53.3707 98.7191 53.296C98.9645 53.232 99.1938 53.136 99.4071 53.008C99.6205 52.88 99.8125 52.7253 99.9831 52.544C100.164 52.3627 100.303 52.1493 100.399 51.904C100.474 51.712 100.511 51.4773 100.511 51.2C100.511 50.912 100.49 50.6293 100.447 50.352C100.415 50.0747 100.367 49.8133 100.303 49.568C100.25 49.312 100.202 49.12 100.159 48.992C100.084 49.0667 99.9885 49.1467 99.8711 49.232C99.7645 49.3173 99.6418 49.3973 99.5031 49.472C99.3645 49.5467 99.2098 49.6053 99.0391 49.648C98.8791 49.6907 98.7138 49.7067 98.5431 49.696C98.3618 49.6853 98.1911 49.6213 98.0311 49.504C97.8818 49.3867 97.7485 49.2373 97.6311 49.056C97.5138 48.864 97.4178 48.6453 97.3431 48.4C97.2791 48.1547 97.2471 47.8987 97.2471 47.632C97.2685 46.992 97.4285 46.4267 97.7271 45.936C98.0365 45.4347 98.5271 45.0453 99.1991 44.768C99.2525 44.7573 99.3218 44.7467 99.4071 44.736C99.5031 44.7253 99.5991 44.7253 99.6951 44.736C99.7911 44.736 99.8818 44.7467 99.9671 44.768C100.063 44.7893 100.143 44.8213 100.207 44.864C100.324 44.9493 100.383 45.072 100.383 45.232C100.383 45.392 100.346 45.5093 100.271 45.584ZM98.2551 47.776C98.2551 47.8933 98.2658 48.0267 98.2871 48.176C98.3085 48.3147 98.3778 48.416 98.4951 48.48C98.6231 48.5547 98.7778 48.5653 98.9591 48.512C99.1511 48.4587 99.3271 48.368 99.4871 48.24C99.6365 48.1227 99.7325 47.9947 99.7751 47.856C99.8285 47.7067 99.8285 47.5093 99.7751 47.264C99.7218 47.0187 99.6631 46.7627 99.5991 46.496C99.5351 46.2293 99.4925 45.9893 99.4711 45.776C99.3431 45.84 99.2045 45.9307 99.0551 46.048C98.9165 46.1653 98.7885 46.3147 98.6711 46.496C98.5538 46.6667 98.4525 46.8587 98.3671 47.072C98.2925 47.2853 98.2551 47.52 98.2551 47.776ZM106.653 46.24C106.237 46.4853 105.789 46.6773 105.309 46.816C104.829 46.944 104.312 47.008 103.757 47.008C103.778 47.3813 103.885 47.68 104.077 47.904C104.269 48.1173 104.509 48.2453 104.797 48.288C104.968 48.3093 105.138 48.304 105.309 48.272C105.49 48.24 105.656 48.192 105.805 48.128C105.965 48.0533 106.109 47.9733 106.237 47.888C106.365 47.8027 106.477 47.7173 106.573 47.632C106.669 47.5467 106.77 47.4933 106.877 47.472C106.984 47.44 107.064 47.4347 107.117 47.456C107.266 47.5093 107.32 47.6693 107.277 47.936C107.106 48.2773 106.861 48.5707 106.541 48.816C106.221 49.0507 105.864 49.2 105.469 49.264C105.128 49.328 104.776 49.312 104.413 49.216C104.05 49.12 103.725 48.9333 103.437 48.656C103.192 48.4107 103.005 48.1227 102.877 47.792C102.749 47.4613 102.669 47.12 102.637 46.768C102.605 46.4373 102.632 46.1227 102.717 45.824C102.813 45.5253 102.957 45.264 103.149 45.04C103.341 44.8053 103.581 44.6133 103.869 44.464C104.157 44.3147 104.493 44.2293 104.877 44.208C105.336 44.176 105.752 44.2613 106.125 44.464C106.498 44.6667 106.76 44.9493 106.909 45.312C106.994 45.5147 107.016 45.6907 106.973 45.84C106.941 45.9893 106.834 46.1227 106.653 46.24ZM104.813 45.152C104.706 45.1733 104.589 45.2107 104.461 45.264C104.344 45.3173 104.232 45.3867 104.125 45.472C104.029 45.5467 103.938 45.6373 103.853 45.744C103.778 45.84 103.736 45.952 103.725 46.08C103.906 46.08 104.104 46.064 104.317 46.032C104.541 46 104.754 45.9627 104.957 45.92C105.17 45.8667 105.362 45.808 105.533 45.744C105.714 45.68 105.864 45.6107 105.981 45.536C105.896 45.3333 105.736 45.2107 105.501 45.168C105.277 45.1147 105.048 45.1093 104.813 45.152ZM109.734 42.512C109.788 43.6747 109.878 44.88 110.006 46.128C110.134 47.3653 110.273 48.5493 110.422 49.68C110.454 50.1493 110.326 50.3893 110.038 50.4C109.974 50.4 109.91 50.3787 109.846 50.336C109.782 50.2827 109.724 50.2187 109.67 50.144C109.617 50.0693 109.564 49.9893 109.51 49.904C109.468 49.8187 109.441 49.744 109.43 49.68C109.345 49.136 109.265 48.56 109.19 47.952C109.116 47.344 109.046 46.736 108.982 46.128C108.929 45.5093 108.881 44.9067 108.838 44.32C108.796 43.7333 108.769 43.1947 108.758 42.704C108.78 42.448 108.817 42.2347 108.87 42.064C108.924 41.8827 109.036 41.7973 109.206 41.808C109.388 41.8187 109.516 41.8933 109.59 42.032C109.676 42.16 109.724 42.32 109.734 42.512ZM115.734 44.08C115.777 44.3787 115.809 44.6987 115.83 45.04C115.862 45.3707 115.883 45.7067 115.894 46.048C115.915 46.3893 115.926 46.72 115.926 47.04C115.926 47.36 115.921 47.648 115.91 47.904C116.251 48.1387 116.454 48.3467 116.518 48.528C116.593 48.7093 116.603 48.8693 116.55 49.008C116.486 49.2 116.369 49.3013 116.198 49.312C116.038 49.312 115.851 49.2533 115.638 49.136C115.489 49.2427 115.318 49.36 115.126 49.488C114.934 49.6053 114.731 49.7227 114.518 49.84C114.305 49.9467 114.091 50.0427 113.878 50.128C113.665 50.2133 113.467 50.272 113.286 50.304C112.945 50.3573 112.635 50.2933 112.358 50.112C112.091 49.9307 111.91 49.6587 111.814 49.296C111.75 49.0507 111.734 48.8 111.766 48.544C111.798 48.2773 111.878 48.0267 112.006 47.792C112.134 47.5467 112.305 47.328 112.518 47.136C112.742 46.944 113.003 46.7947 113.302 46.688C113.377 46.656 113.478 46.6293 113.606 46.608C113.745 46.5867 113.883 46.5813 114.022 46.592C114.171 46.592 114.321 46.6187 114.47 46.672C114.619 46.7253 114.758 46.816 114.886 46.944C114.886 46.7627 114.881 46.5653 114.87 46.352C114.87 46.128 114.865 45.904 114.854 45.68C114.843 45.456 114.827 45.248 114.806 45.056C114.795 44.8533 114.779 44.6827 114.758 44.544C114.737 44.384 114.673 44.288 114.566 44.256C114.47 44.2133 114.347 44.2187 114.198 44.272C113.942 44.3573 113.643 44.5227 113.302 44.768C112.961 45.0133 112.635 45.2747 112.326 45.552C112.23 45.648 112.118 45.6907 111.99 45.68C111.873 45.6693 111.771 45.6213 111.686 45.536C111.601 45.4507 111.553 45.3547 111.542 45.248C111.531 45.1307 111.574 45.008 111.67 44.88C111.851 44.688 112.054 44.4907 112.278 44.288C112.502 44.0853 112.737 43.904 112.982 43.744C113.227 43.5733 113.478 43.4347 113.734 43.328C113.99 43.2213 114.246 43.1627 114.502 43.152C114.875 43.1413 115.163 43.2267 115.366 43.408C115.569 43.5787 115.691 43.8027 115.734 44.08ZM113.878 47.52C113.739 47.552 113.59 47.6213 113.43 47.728C113.281 47.824 113.142 47.9467 113.014 48.096C112.897 48.2347 112.806 48.3947 112.742 48.576C112.689 48.7467 112.689 48.9173 112.742 49.088C112.763 49.152 112.806 49.2 112.87 49.232C112.945 49.264 113.025 49.2693 113.11 49.248C113.366 49.1947 113.654 49.0933 113.974 48.944C114.305 48.784 114.566 48.6133 114.758 48.432C114.758 48.368 114.726 48.288 114.662 48.192C114.598 48.0853 114.523 47.984 114.438 47.888C114.353 47.7813 114.257 47.6907 114.15 47.616C114.054 47.5413 113.963 47.5093 113.878 47.52Z" fill="black"/>
<rect x="0.5" y="0.5" width="201" height="139" stroke="black"/>
<path d="M1 1L100.5 94.5L201.5 0.5" stroke="black"/>
<path d="M70.5 66.5L0.5 139.5" stroke="black"/>
<path d="M131 66L201 139" stroke="black"/>
<path d="M115.065 78.1999C108.708 77.6041 106.536 81.2751 106.245 83.1851L95.3342 101.697C95.3378 109.568 100.252 111.497 102.709 111.478C102.874 116.997 108.777 117.74 111.707 117.421C113.626 118.233 118.166 118.94 121.258 117.015C124.907 118.58 130.117 116.944 132.231 115.712C134.317 116.452 137.764 113.487 139.227 111.912C143.344 113.044 146.73 108.479 147.908 106.055C153.018 102.198 153.203 98.1288 152.657 96.576C155.666 94.1282 154.064 90.9103 152.887 89.6073L137.62 76.6137C133.261 72.8369 128.036 74.9378 125.968 76.4603C122.041 73.1512 117.063 76.2413 115.065 78.1999Z" fill="#EFEDE9" stroke="black"/>
<path d="M137.957 85.7283C132.118 81.6509 136.195 77.9592 138.964 76.623C137.85 69.645 143.648 67.6763 146.686 67.5642C149.725 60.8182 156.199 62.2451 159.056 63.8018C159.397 61.7348 162.093 60.4102 166.688 62.584C170.364 64.323 169.788 67.5307 169.04 68.9172C174.459 74.8504 169.009 80.401 165.607 82.4347C165.326 85.1628 161.139 86.2035 159.081 86.3829C156.093 90.0797 150.858 89.0366 148.614 88.053C141.439 92.4178 138.52 88.3219 137.957 85.7283Z" fill="#EFEDE9" stroke="black"/>
<path d="M110.655 91.2025C111.85 86.3606 108.672 83.9159 106.934 83.2988C102.576 75.0495 97.0947 78.1603 94.8985 80.7468C77.6577 75.0003 81.4643 86.2445 79.7987 85.6158C78.1331 84.9871 73.1338 88.6918 75.0939 93.9694C76.6621 98.1915 81.27 98.5744 83.378 98.238C83.3339 99.3631 84.1003 101.924 87.5188 103.168C90.9372 104.411 93.7699 102.17 94.759 100.894C100.026 103.632 104.235 99.0844 105.681 96.4684C106.841 96.7306 109.459 96.0444 110.655 91.2025Z" fill="#EFEDE9" stroke="black"/>
<ellipse cx="110.485" cy="99.9505" rx="1.32493" ry="1.76658" transform="rotate(-9.0654 110.485 99.9505)" fill="black"/>
<ellipse cx="137.455" cy="95.2001" rx="1.32493" ry="1.76658" transform="rotate(-9.0654 137.455 95.2001)" fill="black"/>
<ellipse cx="124.188" cy="97.5405" rx="1.9874" ry="1.54575" transform="rotate(-9.0654 124.188 97.5405)" fill="black"/>
<path d="M124.432 99.067L124.884 101.902M124.884 101.902C123.546 102.861 120.152 104.759 117.277 104.681M124.884 101.902C126.442 102.324 130.068 102.998 132.106 102.315" stroke="black"/>
<path d="M110.627 95.2321L111.805 92.8079L115.494 94.9027L114.498 97.0741L110.627 95.2321Z" fill="#434242"/>
<path d="M133.707 88.356L135.865 89.9714L133.111 93.1976L131.167 91.8101L133.707 88.356Z" fill="#434242"/>
<path d="M106.671 105.479L106.792 109.037" stroke="#434242" stroke-linecap="round"/>
<path d="M109.139 105.532L109.26 109.091" stroke="#434242" stroke-linecap="round"/>
<path d="M111.32 105.184L111.441 108.743" stroke="#434242" stroke-linecap="round"/>
<path d="M138.625 100.019L139.677 103.42" stroke="#434242" stroke-linecap="round"/>
<path d="M141.02 99.4208L142.073 102.822" stroke="#434242" stroke-linecap="round"/>
<path d="M143.032 98.5113L144.085 101.913" stroke="#434242" stroke-linecap="round"/>
</svg>
