<svg width="202" height="140" viewBox="0 0 202 140" fill="#EFEDE9" xmlns="http://www.w3.org/2000/svg">
<path d="M90.9451 43.08C90.9877 43.3787 91.0197 43.6987 91.0411 44.04C91.0731 44.3707 91.0944 44.7067 91.1051 45.048C91.1264 45.3893 91.1371 45.72 91.1371 46.04C91.1371 46.36 91.1317 46.648 91.1211 46.904C91.4624 47.1387 91.6651 47.3467 91.7291 47.528C91.8037 47.7093 91.8144 47.8693 91.7611 48.008C91.6971 48.2 91.5797 48.3013 91.4091 48.312C91.2491 48.312 91.0624 48.2533 90.8491 48.136C90.6997 48.2427 90.5291 48.36 90.3371 48.488C90.1451 48.6053 89.9424 48.7227 89.7291 48.84C89.5157 48.9467 89.3024 49.0427 89.0891 49.128C88.8757 49.2133 88.6784 49.272 88.4971 49.304C88.1557 49.3573 87.8464 49.2933 87.5691 49.112C87.3024 48.9307 87.1211 48.6587 87.0251 48.296C86.9611 48.0507 86.9451 47.8 86.9771 47.544C87.0091 47.2773 87.0891 47.0267 87.2171 46.792C87.3451 46.5467 87.5157 46.328 87.7291 46.136C87.9531 45.944 88.2144 45.7947 88.5131 45.688C88.5877 45.656 88.6891 45.6293 88.8171 45.608C88.9557 45.5867 89.0944 45.5813 89.2331 45.592C89.3824 45.592 89.5317 45.6187 89.6811 45.672C89.8304 45.7253 89.9691 45.816 90.0971 45.944C90.0971 45.7627 90.0917 45.5653 90.0811 45.352C90.0811 45.128 90.0757 44.904 90.0651 44.68C90.0544 44.456 90.0384 44.248 90.0171 44.056C90.0064 43.8533 89.9904 43.6827 89.9691 43.544C89.9477 43.384 89.8837 43.288 89.7771 43.256C89.6811 43.2133 89.5584 43.2187 89.4091 43.272C89.1531 43.3573 88.8544 43.5227 88.5131 43.768C88.1717 44.0133 87.8464 44.2747 87.5371 44.552C87.4411 44.648 87.3291 44.6907 87.2011 44.68C87.0837 44.6693 86.9824 44.6213 86.8971 44.536C86.8117 44.4507 86.7637 44.3547 86.7531 44.248C86.7424 44.1307 86.7851 44.008 86.8811 43.88C87.0624 43.688 87.2651 43.4907 87.4891 43.288C87.7131 43.0853 87.9477 42.904 88.1931 42.744C88.4384 42.5733 88.6891 42.4347 88.9451 42.328C89.2011 42.2213 89.4571 42.1627 89.7131 42.152C90.0864 42.1413 90.3744 42.2267 90.5771 42.408C90.7797 42.5787 90.9024 42.8027 90.9451 43.08ZM89.0891 46.52C88.9504 46.552 88.8011 46.6213 88.6411 46.728C88.4917 46.824 88.3531 46.9467 88.2251 47.096C88.1077 47.2347 88.0171 47.3947 87.9531 47.576C87.8997 47.7467 87.8997 47.9173 87.9531 48.088C87.9744 48.152 88.0171 48.2 88.0811 48.232C88.1557 48.264 88.2357 48.2693 88.3211 48.248C88.5771 48.1947 88.8651 48.0933 89.1851 47.944C89.5157 47.784 89.7771 47.6133 89.9691 47.432C89.9691 47.368 89.9371 47.288 89.8731 47.192C89.8091 47.0853 89.7344 46.984 89.6491 46.888C89.5637 46.7813 89.4677 46.6907 89.3611 46.616C89.2651 46.5413 89.1744 46.5093 89.0891 46.52ZM97.4791 43.48C97.2871 43.5867 97.0844 43.6987 96.8711 43.816C96.6684 43.9333 96.4604 44.072 96.2471 44.232C96.0444 44.3813 95.8471 44.5627 95.6551 44.776C95.4737 44.9787 95.3084 45.224 95.1591 45.512C94.9457 45.9173 94.8017 46.3333 94.7271 46.76C94.6524 47.176 94.6044 47.5867 94.5831 47.992C94.5831 48.184 94.5351 48.3813 94.4391 48.584C94.3537 48.776 94.2311 48.872 94.0711 48.872C93.8684 48.872 93.7031 48.7707 93.5751 48.568C93.4577 48.3547 93.3777 48.152 93.3351 47.96C93.1537 47.2027 93.0044 46.456 92.8871 45.72C92.7697 44.9733 92.6684 44.232 92.5831 43.496C92.5831 43.3467 92.6257 43.2507 92.7111 43.208C92.8071 43.1653 92.9137 43.1493 93.0311 43.16C93.1591 43.1707 93.2817 43.2027 93.3991 43.256C93.5164 43.3093 93.5857 43.3947 93.6071 43.512C93.6497 43.9067 93.7031 44.3227 93.7671 44.76C93.8311 45.1867 93.8951 45.5547 93.9591 45.864C94.0017 45.5013 94.1191 45.1493 94.3111 44.808C94.5031 44.4667 94.7377 44.1573 95.0151 43.88C95.3031 43.6027 95.6231 43.368 95.9751 43.176C96.3377 42.984 96.7057 42.856 97.0791 42.792C97.2391 42.7707 97.3724 42.7707 97.4791 42.792C97.5857 42.8133 97.6604 42.8507 97.7031 42.904C97.7457 42.9573 97.7511 43.0427 97.7191 43.16C97.6977 43.2773 97.6177 43.384 97.4791 43.48ZM100.877 42.136C100.994 42.1467 101.096 42.168 101.181 42.2C101.266 42.232 101.309 42.2907 101.309 42.376C101.309 42.5893 101.24 42.728 101.101 42.792C100.962 42.856 100.802 42.888 100.621 42.888C100.429 42.8667 100.21 42.856 99.9651 42.856C99.7197 42.856 99.4797 42.856 99.2451 42.856C99.1491 42.856 99.0637 42.8453 98.9891 42.824C98.9144 42.8027 98.8557 42.7333 98.8131 42.616C98.7277 42.456 98.6957 42.3173 98.7171 42.2C98.7491 42.072 98.8077 41.9973 98.8931 41.976C99.2344 41.9333 99.5811 41.9333 99.9331 41.976C100.296 42.008 100.61 42.0613 100.877 42.136ZM99.1811 50.84C99.0424 50.8293 98.8984 50.8027 98.7491 50.76C98.6104 50.7173 98.4771 50.664 98.3491 50.6C98.2317 50.5253 98.1357 50.4453 98.0611 50.36C97.9864 50.2747 97.9491 50.1733 97.9491 50.056C97.9704 49.9707 98.0237 49.9067 98.1091 49.864C98.2051 49.8107 98.3117 49.7947 98.4291 49.816C98.6851 49.88 98.9517 49.9067 99.2291 49.896C99.5171 49.8853 99.7677 49.7893 99.9811 49.608C100.226 49.3947 100.392 49.1173 100.477 48.776C100.562 48.4347 100.589 48.072 100.557 47.688C100.536 47.304 100.472 46.9147 100.365 46.52C100.269 46.1253 100.162 45.7627 100.045 45.432C99.9917 45.272 99.9277 45.1493 99.8531 45.064C99.7891 44.9787 99.6931 44.8827 99.5651 44.776C99.2877 44.5733 99.2291 44.3333 99.3891 44.056C99.4531 43.9387 99.5491 43.8747 99.6771 43.864C99.8157 43.8533 99.9384 43.88 100.045 43.944C100.226 44.0507 100.37 44.1733 100.477 44.312C100.594 44.44 100.69 44.5787 100.765 44.728C101.096 45.4747 101.325 46.2053 101.453 46.92C101.592 47.624 101.602 48.28 101.485 48.888C101.432 49.1867 101.341 49.464 101.213 49.72C101.096 49.976 100.941 50.1947 100.749 50.376C100.557 50.5467 100.328 50.6747 100.061 50.76C99.8051 50.8453 99.5117 50.872 99.1811 50.84ZM104.399 44.264C104.335 44.552 104.271 44.872 104.207 45.224C104.143 45.5653 104.095 45.896 104.063 46.216C104.042 46.536 104.042 46.824 104.063 47.08C104.095 47.336 104.165 47.5173 104.271 47.624C104.453 47.656 104.661 47.5813 104.895 47.4C105.13 47.208 105.359 46.968 105.583 46.68C105.807 46.392 106.01 46.0827 106.191 45.752C106.373 45.4107 106.501 45.112 106.575 44.856C106.618 44.728 106.655 44.5947 106.687 44.456C106.719 44.3173 106.735 44.1733 106.735 44.024C106.735 43.9387 106.789 43.8587 106.895 43.784C107.013 43.6987 107.109 43.6507 107.183 43.64C107.237 43.6293 107.295 43.64 107.359 43.672C107.434 43.704 107.498 43.752 107.551 43.816C107.615 43.8693 107.669 43.9387 107.711 44.024C107.765 44.0987 107.791 44.1787 107.791 44.264C107.813 44.584 107.845 44.936 107.887 45.32C107.93 45.704 107.978 46.088 108.031 46.472C108.095 46.856 108.159 47.2293 108.223 47.592C108.287 47.9547 108.351 48.28 108.415 48.568C108.447 48.6853 108.415 48.8187 108.319 48.968C108.223 49.1173 108.117 49.208 107.999 49.24C107.903 49.2613 107.802 49.2507 107.695 49.208C107.599 49.1653 107.525 49.08 107.471 48.952C107.418 48.8027 107.365 48.6213 107.311 48.408C107.269 48.184 107.226 47.9547 107.183 47.72C107.151 47.4747 107.119 47.2453 107.087 47.032C107.055 46.808 107.034 46.6213 107.023 46.472C106.863 46.76 106.671 47.0533 106.447 47.352C106.234 47.64 105.999 47.9067 105.743 48.152C105.498 48.3867 105.237 48.5733 104.959 48.712C104.693 48.84 104.415 48.888 104.127 48.856C103.701 48.8027 103.375 48.4027 103.151 47.656C103.066 47.3573 103.023 47.0267 103.023 46.664C103.034 46.3013 103.061 45.944 103.103 45.592C103.157 45.2293 103.215 44.888 103.279 44.568C103.354 44.248 103.418 43.9867 103.471 43.784C103.493 43.6987 103.535 43.624 103.599 43.56C103.663 43.4853 103.738 43.4587 103.823 43.48C103.983 43.512 104.127 43.608 104.255 43.768C104.394 43.928 104.442 44.0933 104.399 44.264ZM110.61 43.72C110.642 43.88 110.674 44.0613 110.706 44.264C110.748 44.456 110.791 44.6587 110.834 44.872C110.876 45.0747 110.914 45.2827 110.946 45.496C110.978 45.7093 111.004 45.912 111.026 46.104C111.154 45.8267 111.292 45.5333 111.442 45.224C111.591 44.9147 111.751 44.632 111.922 44.376C112.103 44.1093 112.29 43.8907 112.482 43.72C112.684 43.5493 112.903 43.464 113.138 43.464C113.49 43.464 113.783 43.592 114.018 43.848C114.263 44.104 114.466 44.424 114.626 44.808C114.796 45.1813 114.93 45.576 115.026 45.992C115.122 46.408 115.202 46.776 115.266 47.096C115.33 47.384 115.202 47.5973 114.882 47.736C114.732 47.8107 114.62 47.8213 114.546 47.768C114.471 47.7147 114.428 47.6613 114.418 47.608C114.364 47.48 114.295 47.256 114.21 46.936C114.135 46.616 114.044 46.2907 113.938 45.96C113.842 45.6293 113.73 45.3413 113.602 45.096C113.474 44.8507 113.33 44.7387 113.17 44.76C112.978 44.7707 112.807 44.9147 112.658 45.192C112.53 45.416 112.396 45.6667 112.258 45.944C112.13 46.2107 112.002 46.488 111.874 46.776C111.746 47.0533 111.618 47.336 111.49 47.624C111.372 47.9013 111.26 48.1573 111.154 48.392C111.079 48.4667 110.983 48.52 110.866 48.552C110.759 48.5733 110.647 48.5627 110.53 48.52C110.423 48.488 110.338 48.4347 110.274 48.36C110.21 48.2853 110.178 48.2107 110.178 48.136C110.082 47.304 109.98 46.5467 109.874 45.864C109.778 45.1813 109.65 44.4827 109.49 43.768C109.415 43.5227 109.399 43.3307 109.442 43.192C109.495 43.0427 109.655 42.984 109.922 43.016C110.295 43.08 110.524 43.3147 110.61 43.72Z" fill="black"/>
<rect x="0.5" y="0.5" width="201" height="139" stroke="black"/>
<path d="M1 1L100.5 94.5L201.5 0.5" stroke="black"/>
<path d="M70.5 66.5L0.5 139.5" stroke="black"/>
<path d="M131 66L201 139" stroke="black"/>
<rect x="81.5" y="23.5" width="17.6046" height="9.88372" rx="1.5" fill="#EFEDE9" stroke="black"/>
<rect x="102.895" y="23.5" width="17.6046" height="9.88372" rx="1.5" fill="#EFEDE9" stroke="black"/>
<path d="M99 29.4419C99.2857 29.1085 100.086 28.4419 101 28.4419C101.914 28.4419 102.714 29.1085 103 29.4419" stroke="black"/>
<circle cx="157.002" cy="102.002" r="23" transform="rotate(6.47956 157.002 102.002)" fill="#EFEDE9" stroke="black"/>
<path d="M149.172 108.471L169.927 110.828" stroke="black"/>
<path d="M143.918 99.2019C145.791 99.6774 150.091 100.376 152.308 99.3664" stroke="black" stroke-linecap="round"/>
<path d="M144.226 94.5604C146.136 94.2703 150.37 93.2421 152.02 91.45" stroke="black" stroke-linecap="round"/>
<path d="M169.81 97.4661C168.013 96.7549 164.117 94.8034 162.911 92.687" stroke="black" stroke-linecap="round"/>
<path d="M169.343 102.09C167.411 102.133 163.063 101.849 161.129 100.368" stroke="black" stroke-linecap="round"/>
<path d="M156.418 104.826C150.008 103.888 143.92 106.122 141.677 107.357C142.886 108.282 150.675 106.802 157.899 112.615C165.122 118.429 169.462 112.615 170.358 111.665C171.254 110.716 164.432 105.999 156.418 104.826Z" stroke="black"/>
<path d="M147.096 108.235C146.773 108.665 146.191 109.674 146.454 110.264" stroke="black" stroke-linecap="round"/>
<path d="M150.44 108.877C150.121 109.367 149.628 110.467 150.204 110.953" stroke="black" stroke-linecap="round"/>
<circle cx="101.002" cy="102.002" r="23" transform="rotate(6.47956 101.002 102.002)" fill="#EFEDE9" stroke="black"/>
<path d="M93.1718 108.471L113.927 110.828" stroke="black"/>
<path d="M87.9176 99.2019C89.7907 99.6774 94.0911 100.376 96.3081 99.3664" stroke="black" stroke-linecap="round"/>
<path d="M88.2256 94.5604C90.1363 94.2703 94.3701 93.2421 96.0202 91.45" stroke="black" stroke-linecap="round"/>
<path d="M113.81 97.4661C112.013 96.7549 108.117 94.8034 106.911 92.687" stroke="black" stroke-linecap="round"/>
<path d="M113.343 102.09C111.411 102.133 107.063 101.849 105.129 100.368" stroke="black" stroke-linecap="round"/>
<path d="M100.418 104.826C94.0076 103.888 87.9199 106.122 85.6774 107.357C86.8862 108.282 94.6753 106.802 101.899 112.615C109.122 118.429 113.462 112.615 114.358 111.665C115.254 110.716 108.432 105.999 100.418 104.826Z" stroke="black"/>
<path d="M91.0963 108.235C90.7726 108.665 90.191 109.674 90.4536 110.264" stroke="black" stroke-linecap="round"/>
<path d="M94.4396 108.877C94.1212 109.367 93.6283 110.467 94.2038 110.953" stroke="black" stroke-linecap="round"/>
<circle cx="45.0018" cy="102.002" r="23" transform="rotate(6.47956 45.0018 102.002)" fill="#EFEDE9" stroke="black"/>
<path d="M37.1718 108.471L57.9273 110.828" stroke="black"/>
<path d="M31.9176 99.2019C33.7907 99.6774 38.0911 100.376 40.3081 99.3664" stroke="black" stroke-linecap="round"/>
<path d="M32.2256 94.5604C34.1363 94.2703 38.3701 93.2421 40.0202 91.45" stroke="black" stroke-linecap="round"/>
<path d="M57.8097 97.4661C56.0127 96.7549 52.1173 94.8034 50.9112 92.687" stroke="black" stroke-linecap="round"/>
<path d="M57.343 102.09C55.4109 102.133 51.0633 101.849 49.1292 100.368" stroke="black" stroke-linecap="round"/>
<path d="M44.4183 104.826C38.0076 103.888 31.9199 106.122 29.6774 107.357C30.8862 108.282 38.6753 106.802 45.8987 112.615C53.1222 118.429 57.4616 112.615 58.3578 111.665C59.2539 110.716 52.4315 105.999 44.4183 104.826Z" stroke="black"/>
<path d="M35.0963 108.235C34.7726 108.665 34.191 109.674 34.4536 110.264" stroke="black" stroke-linecap="round"/>
<path d="M38.4396 108.877C38.1212 109.367 37.6283 110.467 38.2038 110.953" stroke="black" stroke-linecap="round"/>
</svg>
