<svg width="202" height="140" viewBox="0 0 202 140" fill="#EFEDE9" xmlns="http://www.w3.org/2000/svg">
<path d="M94.3756 41.888C94.3436 41.696 94.3543 41.52 94.4076 41.36C94.4716 41.2 94.5943 41.1093 94.7756 41.088C94.9356 41.0667 95.0743 41.1093 95.1916 41.216C95.3196 41.3227 95.3996 41.4613 95.4316 41.632C95.645 42.8587 95.8423 44.08 96.0236 45.296C96.2156 46.5013 96.3863 47.6853 96.5356 48.848C96.5783 49.1573 96.557 49.3707 96.4716 49.488C96.3863 49.5947 96.285 49.6747 96.1676 49.728C96.0396 49.7813 95.917 49.7813 95.7996 49.728C95.693 49.6747 95.6236 49.5787 95.5916 49.44L95.5756 49.344L95.5116 49.36C95.1596 49.488 94.7916 49.5627 94.4076 49.584C94.0236 49.5947 93.6556 49.5467 93.3036 49.44C92.9516 49.3333 92.637 49.1627 92.3596 48.928C92.093 48.6827 91.901 48.3733 91.7836 48C91.5276 47.1787 91.6876 46.432 92.2636 45.76C92.509 45.4827 92.813 45.232 93.1756 45.008C93.5383 44.784 93.9756 44.608 94.4876 44.48L94.7756 44.416L94.3756 41.888ZM92.7596 47.6C92.8236 47.856 92.941 48.0533 93.1116 48.192C93.2823 48.3307 93.485 48.4267 93.7196 48.48C93.9543 48.5227 94.205 48.528 94.4716 48.496C94.7383 48.464 94.9996 48.4053 95.2556 48.32L95.3996 48.272L94.9516 45.456L94.6316 45.536C94.4076 45.6 94.1676 45.7013 93.9116 45.84C93.6663 45.968 93.4476 46.1227 93.2556 46.304C93.0636 46.4853 92.9143 46.688 92.8076 46.912C92.7116 47.136 92.6956 47.3653 92.7596 47.6ZM101.07 44.416C101.39 44.5333 101.657 44.7093 101.87 44.944C102.094 45.1787 102.265 45.4453 102.382 45.744C102.5 46.032 102.564 46.3307 102.574 46.64C102.596 46.9493 102.564 47.2373 102.478 47.504C102.361 47.8027 102.212 48.096 102.03 48.384C101.849 48.672 101.641 48.928 101.406 49.152C101.172 49.376 100.905 49.5573 100.606 49.696C100.308 49.8347 99.977 49.904 99.6144 49.904C99.177 49.904 98.809 49.8027 98.5104 49.6C98.2117 49.3973 97.977 49.136 97.8064 48.816C97.6357 48.496 97.5237 48.1333 97.4704 47.728C97.4277 47.3227 97.4384 46.9173 97.5024 46.512C97.545 46.2133 97.6144 45.9253 97.7104 45.648C97.817 45.36 97.9504 45.1093 98.1104 44.896C98.2704 44.672 98.4517 44.4907 98.6544 44.352C98.8677 44.2133 99.1077 44.144 99.3744 44.144C99.5237 44.144 99.7104 44.176 99.9344 44.24C100.158 44.2933 100.366 44.3733 100.558 44.48C100.697 44.352 100.868 44.3307 101.07 44.416ZM100.462 45.584C100.345 45.5093 100.206 45.4133 100.046 45.296C99.897 45.168 99.7637 45.104 99.6464 45.104C99.5184 45.104 99.3904 45.1627 99.2624 45.28C99.145 45.3973 99.0384 45.536 98.9424 45.696C98.857 45.8453 98.7824 46 98.7184 46.16C98.6544 46.32 98.6117 46.448 98.5904 46.544C98.5584 46.704 98.537 46.896 98.5264 47.12C98.5157 47.344 98.5317 47.568 98.5744 47.792C98.617 48.0053 98.697 48.2027 98.8144 48.384C98.9424 48.5547 99.129 48.6773 99.3744 48.752C99.5237 48.7947 99.6997 48.7947 99.9024 48.752C100.105 48.6987 100.302 48.608 100.494 48.48C100.697 48.352 100.884 48.1813 101.054 47.968C101.236 47.7547 101.374 47.5093 101.47 47.232C101.577 46.9227 101.577 46.6027 101.47 46.272C101.374 45.9307 101.172 45.6853 100.862 45.536C100.788 45.5893 100.713 45.616 100.638 45.616C100.564 45.616 100.505 45.6053 100.462 45.584ZM104.883 44.72C104.915 44.88 104.947 45.0613 104.979 45.264C105.022 45.456 105.064 45.6587 105.107 45.872C105.15 46.0747 105.187 46.2827 105.219 46.496C105.251 46.7093 105.278 46.912 105.299 47.104C105.427 46.8267 105.566 46.5333 105.715 46.224C105.864 45.9147 106.024 45.632 106.195 45.376C106.376 45.1093 106.563 44.8907 106.755 44.72C106.958 44.5493 107.176 44.464 107.411 44.464C107.763 44.464 108.056 44.592 108.291 44.848C108.536 45.104 108.739 45.424 108.899 45.808C109.07 46.1813 109.203 46.576 109.299 46.992C109.395 47.408 109.475 47.776 109.539 48.096C109.603 48.384 109.475 48.5973 109.155 48.736C109.006 48.8107 108.894 48.8213 108.819 48.768C108.744 48.7147 108.702 48.6613 108.691 48.608C108.638 48.48 108.568 48.256 108.483 47.936C108.408 47.616 108.318 47.2907 108.211 46.96C108.115 46.6293 108.003 46.3413 107.875 46.096C107.747 45.8507 107.603 45.7387 107.443 45.76C107.251 45.7707 107.08 45.9147 106.931 46.192C106.803 46.416 106.67 46.6667 106.531 46.944C106.403 47.2107 106.275 47.488 106.147 47.776C106.019 48.0533 105.891 48.336 105.763 48.624C105.646 48.9013 105.534 49.1573 105.427 49.392C105.352 49.4667 105.256 49.52 105.139 49.552C105.032 49.5733 104.92 49.5627 104.803 49.52C104.696 49.488 104.611 49.4347 104.547 49.36C104.483 49.2853 104.451 49.2107 104.451 49.136C104.355 48.304 104.254 47.5467 104.147 46.864C104.051 46.1813 103.923 45.4827 103.763 44.768C103.688 44.5227 103.672 44.3307 103.715 44.192C103.768 44.0427 103.928 43.984 104.195 44.016C104.568 44.08 104.798 44.3147 104.883 44.72Z" fill="black"/>
<rect x="0.5" y="0.5" width="201" height="139" stroke="black"/>
<path d="M1 1L100.5 94.5L201.5 0.5" stroke="black"/>
<path d="M70.5 66.5L0.5 139.5" stroke="black"/>
<path d="M131 66L201 139" stroke="black"/>
<path fill-rule="evenodd" clip-rule="evenodd" d="M71.5377 120.449C71.7385 120.259 72.0549 120.268 72.2445 120.469L74.7272 123.098H76.6161C76.8923 123.098 77.1161 123.322 77.1161 123.598C77.1161 123.874 76.8923 124.098 76.6161 124.098H75.6716L76.9796 125.483C77.1693 125.683 77.1602 126 76.9595 126.189C76.7587 126.379 76.4422 126.37 76.2526 126.169L74.7669 124.596L74.6054 125.888C74.5712 126.162 74.3213 126.356 74.0473 126.322C73.7733 126.288 73.5789 126.038 73.6132 125.764L73.8769 123.654L71.5175 121.156C71.3279 120.955 71.3369 120.638 71.5377 120.449Z" fill="black"/>
<path fill-rule="evenodd" clip-rule="evenodd" d="M79.0582 116.549C79.259 116.36 79.5754 116.369 79.765 116.569L82.2477 119.198H84.1367C84.4128 119.198 84.6367 119.422 84.6367 119.698C84.6367 119.974 84.4128 120.198 84.1367 120.198H83.1921L84.5002 121.583C84.6898 121.784 84.6807 122.1 84.48 122.29C84.2792 122.48 83.9628 122.471 83.7732 122.27L82.2874 120.697L82.126 121.988C82.0917 122.262 81.8418 122.457 81.5678 122.423C81.2938 122.388 81.0994 122.138 81.1337 121.864L81.3975 119.754L79.038 117.256C78.8484 117.055 78.8575 116.739 79.0582 116.549Z" fill="black"/>
<path d="M34 72.9039C34 71.1213 42.9132 79.2174 47.3698 83.4883C46.7199 86.7379 44.5844 92.9586 41.242 91.8445C37.0639 90.4518 34 80.1459 35.9498 80.1459C37.8995 80.1459 34 75.1322 34 72.9039Z" fill="#EFEDE9" stroke="black"/>
<path d="M50.4337 115.799C28.8192 99.9777 42.5418 76.5249 52.1049 66.7761C58.7898 60.6483 60.461 64.2693 72.1596 64.2693C83.7783 64.2693 86.0556 77.1824 86.9047 81.9975L86.922 82.0957C87.7576 86.8308 91.3786 80.4244 95.8352 80.4244C100.292 80.4244 90.543 91.8445 90.2645 93.7942C90.0416 95.354 90.9144 98.158 91.3786 99.365H94.9996L93.6069 101.315L94.9996 102.15C89.1503 113.292 72.0481 131.62 50.4337 115.799Z" fill="#EFEDE9" stroke="black"/>
<path d="M50.9908 69.0044L52.662 65.662L45.6985 60.6483L52.662 61.4839L51.8264 53.4064L59.0683 56.7488V52.2922H61.0181V47L70.7669 54.5205L81.6298 51.4566L80.2371 59.5342L89.4289 58.9771L82.1869 64.8264L83.0225 69.0044L80.2371 67.6117L81.6298 74.2966L75.502 68.1688L72.9952 70.3971L68.8171 68.1688L66.3103 71.2327L63.5249 68.1688L59.0683 69.0044L56.0044 67.6117L50.9908 69.0044Z" fill="#EFEDE9" stroke="black"/>
<circle cx="54.6117" cy="74.2966" r="1.67122" fill="#EFEDE9" stroke="black"/>
<circle cx="66.3103" cy="75.4108" r="1.67122" fill="#EFEDE9" stroke="black"/>
<path d="M57.4135 79.2532C57.6279 79.9639 58.2877 80.4815 59.0683 80.4815C59.849 80.4815 60.5087 79.9639 60.7232 79.2532H57.4135Z" fill="#EFEDE9" stroke="black"/>
<path d="M56.8378 78.8103C57.0658 77.7886 57.9779 77.0249 59.0683 77.0249C60.1588 77.0249 61.0708 77.7886 61.2988 78.8103H56.8378Z" fill="#EFEDE9" stroke="black"/>
<path fill-rule="evenodd" clip-rule="evenodd" d="M143.538 120.449C143.738 120.259 144.055 120.268 144.245 120.469L146.727 123.098H148.616C148.892 123.098 149.116 123.322 149.116 123.598C149.116 123.874 148.892 124.098 148.616 124.098H147.672L148.98 125.483C149.169 125.683 149.16 126 148.959 126.189C148.759 126.379 148.442 126.37 148.253 126.169L146.767 124.596L146.605 125.888C146.571 126.162 146.321 126.356 146.047 126.322C145.773 126.288 145.579 126.038 145.613 125.764L145.877 123.654L143.518 121.156C143.328 120.955 143.337 120.638 143.538 120.449Z" fill="black"/>
<path fill-rule="evenodd" clip-rule="evenodd" d="M151.058 116.549C151.259 116.36 151.575 116.369 151.765 116.569L154.248 119.198H156.137C156.413 119.198 156.637 119.422 156.637 119.698C156.637 119.974 156.413 120.198 156.137 120.198H155.192L156.5 121.583C156.69 121.784 156.681 122.1 156.48 122.29C156.279 122.48 155.963 122.471 155.773 122.27L154.287 120.697L154.126 121.988C154.092 122.262 153.842 122.457 153.568 122.423C153.294 122.388 153.099 122.138 153.134 121.864L153.397 119.754L151.038 117.256C150.848 117.055 150.857 116.739 151.058 116.549Z" fill="black"/>
<path d="M106 72.9039C106 71.1213 114.913 79.2174 119.37 83.4883C118.72 86.7379 116.584 92.9586 113.242 91.8445C109.064 90.4518 106 80.1459 107.95 80.1459C109.9 80.1459 106 75.1322 106 72.9039Z" fill="#EFEDE9" stroke="black"/>
<path d="M122.434 115.799C100.819 99.9777 114.542 76.5249 124.105 66.7761C130.79 60.6483 132.461 64.2693 144.16 64.2693C155.778 64.2693 158.056 77.1824 158.905 81.9975L158.922 82.0957C159.758 86.8308 163.379 80.4244 167.835 80.4244C172.292 80.4244 162.543 91.8445 162.264 93.7942C162.042 95.354 162.914 98.158 163.379 99.365H167L165.607 101.315L167 102.15C161.15 113.292 144.048 131.62 122.434 115.799Z" fill="#EFEDE9" stroke="black"/>
<path d="M122.991 69.0044L124.662 65.662L117.699 60.6483L124.662 61.4839L123.826 53.4064L131.068 56.7488V52.2922H133.018V47L142.767 54.5205L153.63 51.4566L152.237 59.5342L161.429 58.9771L154.187 64.8264L155.023 69.0044L152.237 67.6117L153.63 74.2966L147.502 68.1688L144.995 70.3971L140.817 68.1688L138.31 71.2327L135.525 68.1688L131.068 69.0044L128.004 67.6117L122.991 69.0044Z" fill="#EFEDE9" stroke="black"/>
<circle cx="126.612" cy="74.2966" r="1.67122" fill="#EFEDE9" stroke="black"/>
<circle cx="138.31" cy="75.4108" r="1.67122" fill="#EFEDE9" stroke="black"/>
<path d="M132.723 79.2532H129.413C129.628 79.9639 130.288 80.4815 131.068 80.4815C131.849 80.4815 132.509 79.9639 132.723 79.2532Z" fill="#EFEDE9" stroke="black"/>
<path d="M133.299 78.8103H128.838C129.066 77.7886 129.978 77.0249 131.068 77.0249C132.159 77.0249 133.071 77.7886 133.299 78.8103Z" fill="#EFEDE9" stroke="black"/>
</svg>
