<svg width="202" height="140" viewBox="0 0 202 140" fill="none" xmlns="http://www.w3.org/2000/svg">
<path d="M88.5358 46.24C88.1198 46.4853 87.6718 46.6773 87.1918 46.816C86.7118 46.944 86.1945 47.008 85.6398 47.008C85.6611 47.3813 85.7678 47.68 85.9598 47.904C86.1518 48.1173 86.3918 48.2453 86.6798 48.288C86.8505 48.3093 87.0211 48.304 87.1918 48.272C87.3731 48.24 87.5385 48.192 87.6878 48.128C87.8478 48.0533 87.9918 47.9733 88.1198 47.888C88.2478 47.8027 88.3598 47.7173 88.4558 47.632C88.5518 47.5467 88.6531 47.4933 88.7598 47.472C88.8665 47.44 88.9465 47.4347 88.9998 47.456C89.1491 47.5093 89.2025 47.6693 89.1598 47.936C88.9891 48.2773 88.7438 48.5707 88.4238 48.816C88.1038 49.0507 87.7465 49.2 87.3518 49.264C87.0105 49.328 86.6585 49.312 86.2958 49.216C85.9331 49.12 85.6078 48.9333 85.3198 48.656C85.0745 48.4107 84.8878 48.1227 84.7598 47.792C84.6318 47.4613 84.5518 47.12 84.5198 46.768C84.4878 46.4373 84.5145 46.1227 84.5998 45.824C84.6958 45.5253 84.8398 45.264 85.0318 45.04C85.2238 44.8053 85.4638 44.6133 85.7518 44.464C86.0398 44.3147 86.3758 44.2293 86.7598 44.208C87.2185 44.176 87.6345 44.2613 88.0078 44.464C88.3811 44.6667 88.6425 44.9493 88.7918 45.312C88.8771 45.5147 88.8985 45.6907 88.8558 45.84C88.8238 45.9893 88.7171 46.1227 88.5358 46.24ZM86.6958 45.152C86.5891 45.1733 86.4718 45.2107 86.3438 45.264C86.2265 45.3173 86.1145 45.3867 86.0078 45.472C85.9118 45.5467 85.8211 45.6373 85.7358 45.744C85.6611 45.84 85.6185 45.952 85.6078 46.08C85.7891 46.08 85.9865 46.064 86.1998 46.032C86.4238 46 86.6371 45.9627 86.8398 45.92C87.0531 45.8667 87.2451 45.808 87.4158 45.744C87.5971 45.68 87.7465 45.6107 87.8638 45.536C87.7785 45.3333 87.6185 45.2107 87.3838 45.168C87.1598 45.1147 86.9305 45.1093 86.6958 45.152ZM91.2332 44.832C91.2439 45.0027 91.2599 45.216 91.2812 45.472C91.3132 45.7173 91.3452 45.9787 91.3772 46.256C91.4092 46.5227 91.4412 46.7893 91.4732 47.056C91.5159 47.3227 91.5532 47.568 91.5852 47.792C91.7025 47.5573 91.8465 47.2693 92.0172 46.928C92.1879 46.5867 92.3639 46.2613 92.5452 45.952C92.7372 45.632 92.9292 45.3653 93.1212 45.152C93.3239 44.928 93.5052 44.816 93.6652 44.816C93.8359 44.816 93.9905 44.9013 94.1292 45.072C94.2785 45.232 94.4065 45.4293 94.5132 45.664C94.6199 45.8987 94.7105 46.1493 94.7852 46.416C94.8705 46.6827 94.9399 46.9173 94.9932 47.12C95.0359 46.9813 95.0892 46.8267 95.1532 46.656C95.2279 46.4747 95.3025 46.2933 95.3772 46.112C95.4625 45.92 95.5532 45.7333 95.6492 45.552C95.7559 45.3707 95.8679 45.2107 95.9852 45.072C96.1239 44.9227 96.2732 44.816 96.4332 44.752C96.5932 44.6773 96.7105 44.64 96.7852 44.64C96.8812 44.64 96.9932 44.672 97.1212 44.736C97.2599 44.7893 97.3985 44.864 97.5372 44.96C97.6759 45.056 97.8039 45.1733 97.9212 45.312C98.0492 45.44 98.1505 45.5733 98.2252 45.712C98.3745 46 98.4919 46.3147 98.5772 46.656C98.6732 46.9973 98.7425 47.3227 98.7852 47.632C98.8279 47.9413 98.8545 48.2187 98.8652 48.464C98.8865 48.6987 98.9025 48.864 98.9132 48.96C98.9132 49.0987 98.8972 49.2053 98.8652 49.28C98.8332 49.344 98.7745 49.3973 98.6892 49.44C98.5719 49.4933 98.4705 49.5147 98.3852 49.504C98.2999 49.4827 98.2305 49.4453 98.1772 49.392C98.1239 49.3387 98.0812 49.28 98.0492 49.216C98.0172 49.1413 97.9959 49.0773 97.9852 49.024C97.9532 48.7787 97.9159 48.528 97.8732 48.272C97.8412 48.016 97.8039 47.7707 97.7612 47.536C97.7185 47.2907 97.6652 47.0667 97.6012 46.864C97.5479 46.6507 97.4892 46.464 97.4252 46.304C97.4039 46.2613 97.3665 46.208 97.3132 46.144C97.2705 46.0693 97.2172 46 97.1532 45.936C97.0999 45.872 97.0465 45.8187 96.9932 45.776C96.9399 45.7333 96.9025 45.7067 96.8812 45.696C96.7745 45.696 96.6625 45.7973 96.5452 46C96.4279 46.192 96.3159 46.4267 96.2092 46.704C96.1025 46.9813 96.0012 47.2747 95.9052 47.584C95.8199 47.8827 95.7559 48.1387 95.7132 48.352C95.7132 48.6293 95.6599 48.8373 95.5532 48.976C95.4465 49.104 95.3345 49.168 95.2172 49.168C95.0999 49.168 94.9719 49.1253 94.8332 49.04C94.7052 48.944 94.6199 48.8373 94.5772 48.72C94.5132 48.5493 94.4439 48.3573 94.3692 48.144C94.2945 47.9307 94.2145 47.712 94.1292 47.488C94.0545 47.264 93.9745 47.0453 93.8892 46.832C93.8145 46.6187 93.7399 46.4267 93.6652 46.256C93.5159 46.4587 93.3665 46.6827 93.2172 46.928C93.0785 47.1733 92.9399 47.424 92.8012 47.68C92.6732 47.936 92.5452 48.192 92.4172 48.448C92.2999 48.6933 92.1879 48.912 92.0812 49.104C92.0065 49.2213 91.9265 49.328 91.8412 49.424C91.7559 49.5093 91.6545 49.552 91.5372 49.552C91.4519 49.552 91.3612 49.5147 91.2652 49.44C91.1692 49.3547 91.0785 49.2533 90.9932 49.136C90.9079 49.0187 90.8279 48.8853 90.7532 48.736C90.6892 48.5867 90.6412 48.4373 90.6092 48.288C90.5239 47.8293 90.4492 47.328 90.3852 46.784C90.3319 46.2293 90.2785 45.6907 90.2252 45.168C90.2145 44.9867 90.2359 44.8213 90.2892 44.672C90.3532 44.512 90.4705 44.4053 90.6412 44.352C90.8225 44.32 90.9612 44.3467 91.0572 44.432C91.1532 44.5173 91.2119 44.6507 91.2332 44.832ZM101.171 44.832C101.181 45.0027 101.197 45.216 101.219 45.472C101.251 45.7173 101.283 45.9787 101.315 46.256C101.347 46.5227 101.379 46.7893 101.411 47.056C101.453 47.3227 101.491 47.568 101.523 47.792C101.64 47.5573 101.784 47.2693 101.955 46.928C102.125 46.5867 102.301 46.2613 102.483 45.952C102.675 45.632 102.867 45.3653 103.059 45.152C103.261 44.928 103.443 44.816 103.603 44.816C103.773 44.816 103.928 44.9013 104.067 45.072C104.216 45.232 104.344 45.4293 104.451 45.664C104.557 45.8987 104.648 46.1493 104.723 46.416C104.808 46.6827 104.877 46.9173 104.931 47.12C104.973 46.9813 105.027 46.8267 105.091 46.656C105.165 46.4747 105.24 46.2933 105.315 46.112C105.4 45.92 105.491 45.7333 105.587 45.552C105.693 45.3707 105.805 45.2107 105.923 45.072C106.061 44.9227 106.211 44.816 106.371 44.752C106.531 44.6773 106.648 44.64 106.723 44.64C106.819 44.64 106.931 44.672 107.059 44.736C107.197 44.7893 107.336 44.864 107.475 44.96C107.613 45.056 107.741 45.1733 107.859 45.312C107.987 45.44 108.088 45.5733 108.163 45.712C108.312 46 108.429 46.3147 108.515 46.656C108.611 46.9973 108.68 47.3227 108.723 47.632C108.765 47.9413 108.792 48.2187 108.803 48.464C108.824 48.6987 108.84 48.864 108.851 48.96C108.851 49.0987 108.835 49.2053 108.803 49.28C108.771 49.344 108.712 49.3973 108.627 49.44C108.509 49.4933 108.408 49.5147 108.323 49.504C108.237 49.4827 108.168 49.4453 108.115 49.392C108.061 49.3387 108.019 49.28 107.987 49.216C107.955 49.1413 107.933 49.0773 107.923 49.024C107.891 48.7787 107.853 48.528 107.811 48.272C107.779 48.016 107.741 47.7707 107.699 47.536C107.656 47.2907 107.603 47.0667 107.539 46.864C107.485 46.6507 107.427 46.464 107.363 46.304C107.341 46.2613 107.304 46.208 107.251 46.144C107.208 46.0693 107.155 46 107.091 45.936C107.037 45.872 106.984 45.8187 106.931 45.776C106.877 45.7333 106.84 45.7067 106.819 45.696C106.712 45.696 106.6 45.7973 106.483 46C106.365 46.192 106.253 46.4267 106.147 46.704C106.04 46.9813 105.939 47.2747 105.843 47.584C105.757 47.8827 105.693 48.1387 105.651 48.352C105.651 48.6293 105.597 48.8373 105.491 48.976C105.384 49.104 105.272 49.168 105.155 49.168C105.037 49.168 104.909 49.1253 104.771 49.04C104.643 48.944 104.557 48.8373 104.515 48.72C104.451 48.5493 104.381 48.3573 104.307 48.144C104.232 47.9307 104.152 47.712 104.067 47.488C103.992 47.264 103.912 47.0453 103.827 46.832C103.752 46.6187 103.677 46.4267 103.603 46.256C103.453 46.4587 103.304 46.6827 103.155 46.928C103.016 47.1733 102.877 47.424 102.739 47.68C102.611 47.936 102.483 48.192 102.355 48.448C102.237 48.6933 102.125 48.912 102.019 49.104C101.944 49.2213 101.864 49.328 101.779 49.424C101.693 49.5093 101.592 49.552 101.475 49.552C101.389 49.552 101.299 49.5147 101.203 49.44C101.107 49.3547 101.016 49.2533 100.931 49.136C100.845 49.0187 100.765 48.8853 100.691 48.736C100.627 48.5867 100.579 48.4373 100.547 48.288C100.461 47.8293 100.387 47.328 100.323 46.784C100.269 46.2293 100.216 45.6907 100.163 45.168C100.152 44.9867 100.173 44.8213 100.227 44.672C100.291 44.512 100.408 44.4053 100.579 44.352C100.76 44.32 100.899 44.3467 100.995 44.432C101.091 44.5173 101.149 44.6507 101.171 44.832ZM115.108 44.96C115.14 45.536 115.172 46.1173 115.204 46.704C115.247 47.2907 115.258 47.872 115.236 48.448C115.215 49.0133 115.156 49.568 115.06 50.112C114.975 50.656 114.826 51.1787 114.612 51.68C114.399 52.1707 114.111 52.6293 113.748 53.056C113.396 53.4827 112.948 53.8667 112.404 54.208C112.319 54.2613 112.223 54.2933 112.116 54.304C112.02 54.3147 111.924 54.3093 111.828 54.288C111.732 54.2773 111.647 54.2507 111.572 54.208C111.498 54.176 111.45 54.128 111.428 54.064C111.396 53.968 111.412 53.8613 111.476 53.744C111.54 53.6267 111.647 53.504 111.796 53.376C112.266 53.024 112.66 52.6507 112.98 52.256C113.3 51.8613 113.556 51.4347 113.748 50.976C113.94 50.5173 114.063 50.0213 114.116 49.488C114.18 48.944 114.18 48.352 114.116 47.712C113.988 47.872 113.839 48.0373 113.668 48.208C113.498 48.3787 113.316 48.5333 113.124 48.672C112.932 48.8 112.735 48.912 112.532 49.008C112.33 49.0933 112.138 49.136 111.956 49.136C111.807 49.136 111.658 49.104 111.508 49.04C111.359 48.976 111.21 48.8533 111.06 48.672C110.89 48.448 110.735 48.1973 110.596 47.92C110.468 47.632 110.356 47.3547 110.26 47.088C110.164 46.8213 110.084 46.5813 110.02 46.368C109.967 46.1547 109.935 46.0053 109.924 45.92C109.903 45.8133 109.903 45.712 109.924 45.616C109.946 45.52 110.015 45.4613 110.132 45.44C110.292 45.408 110.442 45.4187 110.58 45.472C110.719 45.5253 110.815 45.6107 110.868 45.728C110.911 45.8453 110.97 46.0267 111.044 46.272C111.119 46.5173 111.21 46.7627 111.316 47.008C111.423 47.2427 111.535 47.4507 111.652 47.632C111.78 47.8133 111.914 47.904 112.052 47.904C112.212 47.904 112.399 47.824 112.612 47.664C112.836 47.504 113.05 47.296 113.252 47.04C113.455 46.784 113.626 46.5013 113.764 46.192C113.914 45.872 113.988 45.5627 113.988 45.264C113.988 45.2 113.999 45.1253 114.02 45.04C114.042 44.9547 114.074 44.8747 114.116 44.8C114.159 44.7147 114.207 44.6453 114.26 44.592C114.324 44.528 114.388 44.4907 114.452 44.48C114.623 44.4587 114.772 44.5067 114.9 44.624C115.039 44.7307 115.108 44.8427 115.108 44.96Z" fill="black"/>
<rect x="0.5" y="0.5" width="201" height="139" stroke="black"/>
<path d="M1 1L100.5 94.5L201.5 0.5" stroke="black"/>
<path d="M70.5 66.5L0.5 139.5" stroke="black"/>
<path d="M131 66L201 139" stroke="black"/>
<path d="M85.7056 60.4065C78.3237 55.1338 69.1008 64.0162 68.1382 67.867C68.1382 67.867 66.3334 74.2438 67.6569 81.9445C68.9805 89.6453 69.8059 92.7888 68.9805 97.4664C68.2585 101.557 67.5366 104.686 65.2504 105.528C62.9643 106.37 60.6781 101.798 58.9936 98.5493C57.309 95.3005 57.3091 93.3753 52.3758 89.525C47.4424 85.6746 38.6588 88.3806 33.6052 94.9395C28.5516 101.499 28.4312 101.437 24.7012 104.686C20.9711 107.935 18.7451 106.009 17.2411 103.603C15.737 101.196 14.4051 95.5412 16.0379 87.4794C17.6706 79.4177 13.872 82.7868 12.7891 86.6376C12.7891 86.6376 9.29971 97.8273 12.0672 106.852C14.8346 115.876 24.3402 114.552 28.7922 110.822C33.2442 107.092 32.8833 106.009 39.2604 99.5123C45.6376 93.0152 49.127 98.3086 50.0896 100.595C50.0896 100.595 52.9774 106.25 55.5042 110.221C58.031 114.192 63.7344 117.218 69.3415 115.515C78.8471 112.627 80.4113 101.557 80.4113 96.1428C80.4113 90.7282 79.3685 79.0171 78.0048 70.2735C81.7349 69.5511 85.048 70.2861 87.1495 68.3481C89.2509 66.4101 88.2324 62.2113 85.7056 60.4065Z" fill="#EFEDE9" stroke="black"/>
<ellipse cx="78.0455" cy="59.8878" rx="2.04551" ry="1.92519" fill="white"/>
<ellipse cx="83.2195" cy="59.0455" rx="1.92519" ry="1.80486" fill="white"/>
<ellipse cx="78.1658" cy="59.2862" rx="1.68454" ry="1.56421" fill="black"/>
<circle cx="83.4601" cy="58.4439" r="1.44389" fill="black"/>
<path d="M79.2487 59.6471C79.2487 59.9794 78.9794 60.2488 78.6471 60.2488C78.3149 60.2488 78.0455 59.9794 78.0455 59.6471C78.0455 59.3149 78.3149 59.0455 78.6471 59.0455C78.9794 59.0455 79.2487 59.3149 79.2487 59.6471Z" fill="white"/>
<circle cx="83.9414" cy="57.9626" r="0.481297" fill="white"/>
<path d="M80.5316 64.1366L79.569 65.7008M78.847 66.7837L79.569 65.7008M79.569 65.7008L82.5771 68.4682C83.1787 68.9495 83.4194 68.8292 83.9007 68.4682L84.7429 67.7463" stroke="black" stroke-width="0.8" stroke-linecap="round"/>
<path d="M68.2585 67.5056C69.2756 68.2469 69.8501 68.9416 70.9725 69.5244C71.5149 69.806 72.0463 70.2589 72.6704 70.2731C74.3304 70.3108 76.3369 70.5137 78.0048 70.5137" stroke="black" stroke-width="0.742755" stroke-linecap="round" stroke-linejoin="round"/>
<path d="M67.4163 73.4015C68.5983 74.0664 69.9589 74.8377 71.3335 75.0192C72.8513 75.2197 74.4652 75.086 75.9927 75.086C76.8238 75.086 77.655 75.086 78.4861 75.086" stroke="black" stroke-width="0.742755" stroke-linecap="round" stroke-linejoin="round"/>
<path d="M67.4163 79.6584C69.11 79.8842 70.6258 80.9819 72.3496 80.9819C73.291 80.9819 74.4298 81.1795 75.3042 80.7948C76.5279 80.2563 77.7817 79.7699 78.9674 79.1771" stroke="black" stroke-width="0.742755" stroke-linecap="round" stroke-linejoin="round"/>
<path d="M68.3788 85.4339C69.8424 86.4909 71.4618 86.5168 73.1918 86.5168C74.117 86.5168 75.1291 86.6415 76.0261 86.4233C77.2139 86.1343 78.6795 86.0709 79.6893 85.3136" stroke="black" stroke-width="0.742755" stroke-linecap="round" stroke-linejoin="round"/>
<path d="M69.2211 91.0892C71.3444 92.2499 73.5392 92.2924 75.8924 92.2924C77.1064 92.2924 79.0891 92.6524 80.1706 91.9314" stroke="black" stroke-width="0.742755" stroke-linecap="round" stroke-linejoin="round"/>
<path d="M68.9805 97.346C70.397 97.9498 71.59 98.5096 73.1383 98.5493C74.1023 98.574 75.0671 98.7899 76.0529 98.7899C77.3051 98.7899 78.5574 98.7899 79.8096 98.7899" stroke="black" stroke-width="0.742755" stroke-linecap="round" stroke-linejoin="round"/>
<path d="M68.1382 101.798C70.0191 103.643 72.0789 104.935 74.4619 105.956C75.672 106.474 76.8231 106.731 78.1251 106.731" stroke="black" stroke-width="0.742755" stroke-linecap="round" stroke-linejoin="round"/>
<path d="M66.2272 105.167C66.2272 107.548 66.07 109.842 66.8021 112.119C66.9801 112.673 67.0458 113.296 67.2834 113.83C67.492 114.3 67.7833 115.391 68.2727 115.635" stroke="black" stroke-width="0.742755" stroke-linecap="round" stroke-linejoin="round"/>
<path d="M62.2423 104.445C61.151 105.189 60.4845 106.983 60.023 108.235C59.678 109.172 59.5952 110.139 59.5952 111.13C59.5952 111.688 59.3545 112.073 59.3545 112.654C59.3545 112.926 59.4757 113.71 59.2342 113.83" stroke="black" stroke-width="0.742755" stroke-linecap="round" stroke-linejoin="round"/>
<path d="M60.5578 101.918C58.8232 102.281 57.0474 103.66 56.0457 105.107C55.6447 105.686 55.2655 106.091 54.6887 106.491C54.2726 106.779 54.1416 107.546 53.6993 107.694" stroke="black" stroke-width="0.742755" stroke-linecap="round" stroke-linejoin="round"/>
<path d="M58.1513 97.1054C57.2085 97.4733 56.3653 97.9902 55.4507 98.3821C54.6548 98.7233 54.0527 99.4143 53.2448 99.7525C52.7157 99.974 52.2631 100.446 51.7207 100.601C51.4279 100.685 50.7469 101.173 50.5709 101.437" stroke="black" stroke-width="0.742755" stroke-linecap="round" stroke-linejoin="round"/>
<path d="M55.7448 93.1347C54.4365 93.1347 52.8539 93.4625 51.6806 94.0973C50.975 94.479 50.031 94.6506 49.4479 95.2337C48.9045 95.777 47.9238 96.4912 47.9238 97.346" stroke="black" stroke-width="0.742755" stroke-linecap="round" stroke-linejoin="round"/>
<path d="M49.7286 88.5624C47.965 89.6808 47.6772 91.6725 46.8408 93.4288C46.5774 93.982 46.4229 94.5902 46.179 95.1267C46.0094 95.5 46.2305 95.9152 45.9985 96.2631" stroke="black" stroke-width="0.742755" stroke-linecap="round" stroke-linejoin="round"/>
<path d="M41.0653 89.164C40.6881 90.7436 40.3865 92.8705 40.8848 94.4649C41.0164 94.8861 41.1376 95.3496 41.1856 95.7818C41.2271 96.1556 41.7872 96.9334 41.7872 97.346" stroke="black" stroke-width="0.742755" stroke-linecap="round" stroke-linejoin="round"/>
<path d="M34.0865 94.4582C34.3595 96.1649 34.6082 97.9797 35.7175 99.3915C36.2041 100.011 37.062 100.172 37.6962 100.595" stroke="black" stroke-width="0.742755" stroke-linecap="round" stroke-linejoin="round"/>
<path d="M29.8751 99.9931C30.247 101.088 30.8774 102.793 31.9474 103.456C32.6539 103.893 33.3312 104.242 34.0865 104.565" stroke="black" stroke-width="0.742755" stroke-linecap="round" stroke-linejoin="round"/>
<path d="M25.7841 104.084C26.0855 105.045 26.3528 106.083 26.506 107.079C26.6129 107.774 27.2039 108.338 27.6825 108.817C28.1555 109.29 28.7602 109.98 29.5141 109.98" stroke="black" stroke-width="0.742755" stroke-linecap="round" stroke-linejoin="round"/>
<path d="M22.6557 106.13C22.6557 107.774 22.6557 109.419 22.6557 111.063C22.6557 111.484 22.6557 111.905 22.6557 112.326C22.6557 112.65 23.0166 113.553 23.0166 113.229" stroke="black" stroke-width="0.742755" stroke-linecap="round" stroke-linejoin="round"/>
<path d="M20.2492 106.37C18.0137 106.905 17.3793 108.756 15.737 110.034C15.3427 110.34 14.7143 110.77 14.7143 111.304" stroke="black" stroke-width="0.742755" stroke-linecap="round" stroke-linejoin="round"/>
<path d="M11.9468 106.25C13.1635 105.531 14.2382 105.287 15.61 105.287C16.479 105.287 17.2373 105.047 18.0834 105.047" stroke="black" stroke-width="0.742755" stroke-linecap="round" stroke-linejoin="round"/>
<path d="M11.1046 100.956C12.0738 100.956 13.1629 100.832 14.1127 101.049C14.6843 101.18 15.3022 101.437 15.9175 101.437" stroke="black" stroke-width="0.742755" stroke-linecap="round" stroke-linejoin="round"/>
<path d="M11.3452 95.7818C12.5662 96.3803 13.8381 96.6241 15.1956 96.6241" stroke="black" stroke-width="0.742755" stroke-linecap="round" stroke-linejoin="round"/>
<path d="M11.8265 92.1721C12.8296 92.3727 13.9219 92.6534 14.9549 92.6534" stroke="black" stroke-width="0.742755" stroke-linecap="round" stroke-linejoin="round"/>
<path d="M12.3078 88.803C13.3836 88.803 14.3942 89.164 15.4363 89.164" stroke="black" stroke-width="0.742755" stroke-linecap="round" stroke-linejoin="round"/>
<path d="M13.2704 85.6746C14.2728 85.8508 15.2873 85.9576 16.2785 86.1559" stroke="black" stroke-width="0.742755" stroke-linecap="round" stroke-linejoin="round"/>
</svg>
