<svg width="202" height="140" viewBox="0 0 202 140" fill="none" xmlns="http://www.w3.org/2000/svg">
<path d="M89.088 43.136C89.2053 43.1467 89.3067 43.168 89.392 43.2C89.4773 43.232 89.52 43.2907 89.52 43.376C89.52 43.5893 89.4507 43.728 89.312 43.792C89.1733 43.856 89.0133 43.888 88.832 43.888C88.64 43.8667 88.4213 43.856 88.176 43.856C87.9307 43.856 87.6907 43.856 87.456 43.856C87.36 43.856 87.2747 43.8453 87.2 43.824C87.1253 43.8027 87.0667 43.7333 87.024 43.616C86.9387 43.456 86.9067 43.3173 86.928 43.2C86.96 43.072 87.0187 42.9973 87.104 42.976C87.4453 42.9333 87.792 42.9333 88.144 42.976C88.5067 43.008 88.8213 43.0613 89.088 43.136ZM87.392 51.84C87.2533 51.8293 87.1093 51.8027 86.96 51.76C86.8213 51.7173 86.688 51.664 86.56 51.6C86.4427 51.5253 86.3467 51.4453 86.272 51.36C86.1973 51.2747 86.16 51.1733 86.16 51.056C86.1813 50.9707 86.2347 50.9067 86.32 50.864C86.416 50.8107 86.5227 50.7947 86.64 50.816C86.896 50.88 87.1627 50.9067 87.44 50.896C87.728 50.8853 87.9787 50.7893 88.192 50.608C88.4373 50.3947 88.6027 50.1173 88.688 49.776C88.7733 49.4347 88.8 49.072 88.768 48.688C88.7467 48.304 88.6827 47.9147 88.576 47.52C88.48 47.1253 88.3733 46.7627 88.256 46.432C88.2027 46.272 88.1387 46.1493 88.064 46.064C88 45.9787 87.904 45.8827 87.776 45.776C87.4987 45.5733 87.44 45.3333 87.6 45.056C87.664 44.9387 87.76 44.8747 87.888 44.864C88.0267 44.8533 88.1493 44.88 88.256 44.944C88.4373 45.0507 88.5813 45.1733 88.688 45.312C88.8053 45.44 88.9013 45.5787 88.976 45.728C89.3067 46.4747 89.536 47.2053 89.664 47.92C89.8027 48.624 89.8133 49.28 89.696 49.888C89.6427 50.1867 89.552 50.464 89.424 50.72C89.3067 50.976 89.152 51.1947 88.96 51.376C88.768 51.5467 88.5387 51.6747 88.272 51.76C88.016 51.8453 87.7227 51.872 87.392 51.84ZM95.2341 44.08C95.2768 44.3787 95.3088 44.6987 95.3301 45.04C95.3621 45.3707 95.3835 45.7067 95.3941 46.048C95.4155 46.3893 95.4261 46.72 95.4261 47.04C95.4261 47.36 95.4208 47.648 95.4101 47.904C95.7515 48.1387 95.9541 48.3467 96.0181 48.528C96.0928 48.7093 96.1035 48.8693 96.0501 49.008C95.9861 49.2 95.8688 49.3013 95.6981 49.312C95.5381 49.312 95.3515 49.2533 95.1381 49.136C94.9888 49.2427 94.8181 49.36 94.6261 49.488C94.4341 49.6053 94.2315 49.7227 94.0181 49.84C93.8048 49.9467 93.5915 50.0427 93.3781 50.128C93.1648 50.2133 92.9675 50.272 92.7861 50.304C92.4448 50.3573 92.1355 50.2933 91.8581 50.112C91.5915 49.9307 91.4101 49.6587 91.3141 49.296C91.2501 49.0507 91.2341 48.8 91.2661 48.544C91.2981 48.2773 91.3781 48.0267 91.5061 47.792C91.6341 47.5467 91.8048 47.328 92.0181 47.136C92.2421 46.944 92.5035 46.7947 92.8021 46.688C92.8768 46.656 92.9781 46.6293 93.1061 46.608C93.2448 46.5867 93.3835 46.5813 93.5221 46.592C93.6715 46.592 93.8208 46.6187 93.9701 46.672C94.1195 46.7253 94.2581 46.816 94.3861 46.944C94.3861 46.7627 94.3808 46.5653 94.3701 46.352C94.3701 46.128 94.3648 45.904 94.3541 45.68C94.3435 45.456 94.3275 45.248 94.3061 45.056C94.2955 44.8533 94.2795 44.6827 94.2581 44.544C94.2368 44.384 94.1728 44.288 94.0661 44.256C93.9701 44.2133 93.8475 44.2187 93.6981 44.272C93.4421 44.3573 93.1435 44.5227 92.8021 44.768C92.4608 45.0133 92.1355 45.2747 91.8261 45.552C91.7301 45.648 91.6181 45.6907 91.4901 45.68C91.3728 45.6693 91.2715 45.6213 91.1861 45.536C91.1008 45.4507 91.0528 45.3547 91.0421 45.248C91.0315 45.1307 91.0741 45.008 91.1701 44.88C91.3515 44.688 91.5541 44.4907 91.7781 44.288C92.0021 44.0853 92.2368 43.904 92.4821 43.744C92.7275 43.5733 92.9781 43.4347 93.2341 43.328C93.4901 43.2213 93.7461 43.1627 94.0021 43.152C94.3755 43.1413 94.6635 43.2267 94.8661 43.408C95.0688 43.5787 95.1915 43.8027 95.2341 44.08ZM93.3781 47.52C93.2395 47.552 93.0901 47.6213 92.9301 47.728C92.7808 47.824 92.6421 47.9467 92.5141 48.096C92.3968 48.2347 92.3061 48.3947 92.2421 48.576C92.1888 48.7467 92.1888 48.9173 92.2421 49.088C92.2635 49.152 92.3061 49.2 92.3701 49.232C92.4448 49.264 92.5248 49.2693 92.6101 49.248C92.8661 49.1947 93.1541 49.0933 93.4741 48.944C93.8048 48.784 94.0661 48.6133 94.2581 48.432C94.2581 48.368 94.2261 48.288 94.1621 48.192C94.0981 48.0853 94.0235 47.984 93.9381 47.888C93.8528 47.7813 93.7568 47.6907 93.6501 47.616C93.5541 47.5413 93.4635 47.5093 93.3781 47.52ZM99.9761 45.216C99.9548 45.0987 99.9335 44.9867 99.9121 44.88C99.8908 44.7733 99.8375 44.704 99.7521 44.672C99.5708 44.6187 99.3788 44.6133 99.1761 44.656C98.9735 44.6987 98.7868 44.768 98.6161 44.864C98.4455 44.9493 98.3015 45.0507 98.1841 45.168C98.0668 45.2747 98.0028 45.3707 97.9921 45.456C97.9601 45.616 98.0028 45.7707 98.1201 45.92C98.2375 46.0693 98.4081 46.2187 98.6321 46.368C99.0055 46.592 99.3948 46.8213 99.8001 47.056C100.205 47.2907 100.547 47.5307 100.824 47.776C101.101 48.0213 101.288 48.2933 101.384 48.592C101.491 48.88 101.469 49.2107 101.32 49.584C101.203 49.872 100.984 50.1067 100.664 50.288C100.344 50.4693 99.9921 50.6133 99.6081 50.72C99.2241 50.816 98.8401 50.8853 98.4561 50.928C98.0721 50.96 97.7468 50.976 97.4801 50.976C97.4161 50.976 97.3361 50.9547 97.2401 50.912C97.1548 50.8587 97.0695 50.8 96.9841 50.736C96.9095 50.672 96.8401 50.608 96.7761 50.544C96.7228 50.4693 96.6961 50.4053 96.6961 50.352C96.6961 50.16 96.7815 50.0267 96.9521 49.952C97.1228 49.8773 97.2988 49.84 97.4801 49.84C97.7361 49.84 98.0081 49.8293 98.2961 49.808C98.5948 49.776 98.8775 49.7333 99.1441 49.68C99.4108 49.616 99.6508 49.536 99.8641 49.44C100.077 49.344 100.227 49.2213 100.312 49.072C100.387 48.944 100.339 48.7947 100.168 48.624C100.008 48.4427 99.7895 48.256 99.5121 48.064C99.2455 47.872 98.9521 47.6853 98.6321 47.504C98.3228 47.3227 98.0561 47.1573 97.8321 47.008C97.6081 46.8587 97.4161 46.6827 97.2561 46.48C97.0961 46.2667 96.9948 46.0053 96.9521 45.696C96.9415 45.4187 97.0001 45.152 97.1281 44.896C97.2561 44.64 97.4215 44.416 97.6241 44.224C97.8375 44.0213 98.0775 43.8613 98.3441 43.744C98.6108 43.6267 98.8775 43.568 99.1441 43.568C99.6028 43.5893 99.9815 43.7173 100.28 43.952C100.579 44.176 100.755 44.512 100.808 44.96C100.808 45.1093 100.781 45.232 100.728 45.328C100.685 45.424 100.605 45.4827 100.488 45.504C100.339 45.5253 100.216 45.5093 100.12 45.456C100.035 45.392 99.9868 45.312 99.9761 45.216ZM106.086 44.416C106.406 44.5333 106.673 44.7093 106.886 44.944C107.11 45.1787 107.281 45.4453 107.398 45.744C107.515 46.032 107.579 46.3307 107.59 46.64C107.611 46.9493 107.579 47.2373 107.494 47.504C107.377 47.8027 107.227 48.096 107.046 48.384C106.865 48.672 106.657 48.928 106.422 49.152C106.187 49.376 105.921 49.5573 105.622 49.696C105.323 49.8347 104.993 49.904 104.63 49.904C104.193 49.904 103.825 49.8027 103.526 49.6C103.227 49.3973 102.993 49.136 102.822 48.816C102.651 48.496 102.539 48.1333 102.486 47.728C102.443 47.3227 102.454 46.9173 102.518 46.512C102.561 46.2133 102.63 45.9253 102.726 45.648C102.833 45.36 102.966 45.1093 103.126 44.896C103.286 44.672 103.467 44.4907 103.67 44.352C103.883 44.2133 104.123 44.144 104.39 44.144C104.539 44.144 104.726 44.176 104.95 44.24C105.174 44.2933 105.382 44.3733 105.574 44.48C105.713 44.352 105.883 44.3307 106.086 44.416ZM105.478 45.584C105.361 45.5093 105.222 45.4133 105.062 45.296C104.913 45.168 104.779 45.104 104.662 45.104C104.534 45.104 104.406 45.1627 104.278 45.28C104.161 45.3973 104.054 45.536 103.958 45.696C103.873 45.8453 103.798 46 103.734 46.16C103.67 46.32 103.627 46.448 103.606 46.544C103.574 46.704 103.553 46.896 103.542 47.12C103.531 47.344 103.547 47.568 103.59 47.792C103.633 48.0053 103.713 48.2027 103.83 48.384C103.958 48.5547 104.145 48.6773 104.39 48.752C104.539 48.7947 104.715 48.7947 104.918 48.752C105.121 48.6987 105.318 48.608 105.51 48.48C105.713 48.352 105.899 48.1813 106.07 47.968C106.251 47.7547 106.39 47.5093 106.486 47.232C106.593 46.9227 106.593 46.6027 106.486 46.272C106.39 45.9307 106.187 45.6853 105.878 45.536C105.803 45.5893 105.729 45.616 105.654 45.616C105.579 45.616 105.521 45.6053 105.478 45.584ZM109.899 44.72C109.931 44.88 109.963 45.0613 109.995 45.264C110.037 45.456 110.08 45.6587 110.123 45.872C110.165 46.0747 110.203 46.2827 110.235 46.496C110.267 46.7093 110.293 46.912 110.315 47.104C110.443 46.8267 110.581 46.5333 110.731 46.224C110.88 45.9147 111.04 45.632 111.211 45.376C111.392 45.1093 111.579 44.8907 111.771 44.72C111.973 44.5493 112.192 44.464 112.427 44.464C112.779 44.464 113.072 44.592 113.307 44.848C113.552 45.104 113.755 45.424 113.915 45.808C114.085 46.1813 114.219 46.576 114.315 46.992C114.411 47.408 114.491 47.776 114.555 48.096C114.619 48.384 114.491 48.5973 114.171 48.736C114.021 48.8107 113.909 48.8213 113.835 48.768C113.76 48.7147 113.717 48.6613 113.707 48.608C113.653 48.48 113.584 48.256 113.499 47.936C113.424 47.616 113.333 47.2907 113.227 46.96C113.131 46.6293 113.019 46.3413 112.891 46.096C112.763 45.8507 112.619 45.7387 112.459 45.76C112.267 45.7707 112.096 45.9147 111.947 46.192C111.819 46.416 111.685 46.6667 111.547 46.944C111.419 47.2107 111.291 47.488 111.163 47.776C111.035 48.0533 110.907 48.336 110.779 48.624C110.661 48.9013 110.549 49.1573 110.443 49.392C110.368 49.4667 110.272 49.52 110.155 49.552C110.048 49.5733 109.936 49.5627 109.819 49.52C109.712 49.488 109.627 49.4347 109.563 49.36C109.499 49.2853 109.467 49.2107 109.467 49.136C109.371 48.304 109.269 47.5467 109.163 46.864C109.067 46.1813 108.939 45.4827 108.779 44.768C108.704 44.5227 108.688 44.3307 108.731 44.192C108.784 44.0427 108.944 43.984 109.211 44.016C109.584 44.08 109.813 44.3147 109.899 44.72Z" fill="black"/>
<rect x="0.5" y="0.5" width="201" height="139" stroke="black"/>
<path d="M1 1L100.5 94.5L201.5 0.5" stroke="black"/>
<path d="M70.5 66.5L0.5 139.5" stroke="black"/>
<path d="M131 66L201 139" stroke="black"/>
<circle cx="39.6063" cy="80.5587" r="8.56977" transform="rotate(-10.8222 39.6063 80.5587)" fill="#EFEDE9" stroke="black"/>
<circle cx="42.7852" cy="97.1878" r="20.0581" transform="rotate(-10.8222 42.7852 97.1878)" fill="#EFEDE9" stroke="black"/>
<circle cx="51.6936" cy="95.4849" r="4.33721" transform="rotate(-10.8222 51.6936 95.4849)" stroke="black"/>
<circle cx="34.4706" cy="98.7772" r="4.33721" transform="rotate(-10.8222 34.4706 98.7772)" stroke="black"/>
<circle cx="34.4706" cy="98.7772" r="1.2093" transform="rotate(-10.8222 34.4706 98.7772)" fill="black"/>
<circle cx="51.6936" cy="95.4849" r="1.2093" transform="rotate(-10.8222 51.6936 95.4849)" fill="black"/>
<path d="M46.7657 101.352C46.8499 101.792 46.6698 102.303 46.1837 102.781C45.7006 103.255 44.9542 103.651 44.0537 103.823C43.1531 103.996 42.3133 103.903 41.6891 103.64C41.0611 103.375 40.7054 102.967 40.6211 102.526C40.5369 102.086 40.7171 101.575 41.2032 101.097C41.6862 100.622 42.4326 100.227 43.3332 100.054C44.2338 99.8823 45.0735 99.975 45.6977 100.238C46.3257 100.503 46.6815 100.911 46.7657 101.352Z" stroke="black"/>
<path d="M36.942 114.926L46.702 117.677L38.5315 123.241L36.942 114.926Z" fill="#EFEDE9" stroke="black"/>
<path d="M54.759 111.52L46.702 117.677L56.3484 119.835L54.759 111.52Z" fill="#EFEDE9" stroke="black"/>
<circle cx="46.6452" cy="117.38" r="1.9186" transform="rotate(-10.8222 46.6452 117.38)" fill="#EFEDE9" stroke="black"/>
<path d="M38.1602 71.298C32.7628 71.509 22.2001 72.5022 23.1294 74.7869C24.0586 77.0717 33.5371 73.413 38.1602 71.298Z" fill="#EFEDE9" stroke="black"/>
<path d="M37.8642 71.3594C42.9589 69.5647 53.1431 66.5918 53.1221 69.0582C53.1011 71.5247 42.9414 71.62 37.8642 71.3594Z" fill="#EFEDE9" stroke="black"/>
<circle cx="37.9034" cy="71.6502" r="0.709302" transform="rotate(-10.8222 37.9034 71.6502)" fill="#EFEDE9" stroke="black"/>
</svg>
