<svg width="202" height="140" viewBox="0 0 202 140" fill="none" xmlns="http://www.w3.org/2000/svg">
<path d="M86.1896 43.136C86.3069 43.1467 86.4082 43.168 86.4936 43.2C86.5789 43.232 86.6216 43.2907 86.6216 43.376C86.6216 43.5893 86.5522 43.728 86.4136 43.792C86.2749 43.856 86.1149 43.888 85.9336 43.888C85.7416 43.8667 85.5229 43.856 85.2776 43.856C85.0322 43.856 84.7922 43.856 84.5576 43.856C84.4616 43.856 84.3762 43.8453 84.3016 43.824C84.2269 43.8027 84.1682 43.7333 84.1256 43.616C84.0402 43.456 84.0082 43.3173 84.0296 43.2C84.0616 43.072 84.1202 42.9973 84.2056 42.976C84.5469 42.9333 84.8936 42.9333 85.2456 42.976C85.6082 43.008 85.9229 43.0613 86.1896 43.136ZM84.4936 51.84C84.3549 51.8293 84.2109 51.8027 84.0616 51.76C83.9229 51.7173 83.7896 51.664 83.6616 51.6C83.5442 51.5253 83.4482 51.4453 83.3736 51.36C83.2989 51.2747 83.2616 51.1733 83.2616 51.056C83.2829 50.9707 83.3362 50.9067 83.4216 50.864C83.5176 50.8107 83.6242 50.7947 83.7416 50.816C83.9976 50.88 84.2642 50.9067 84.5416 50.896C84.8296 50.8853 85.0802 50.7893 85.2936 50.608C85.5389 50.3947 85.7042 50.1173 85.7896 49.776C85.8749 49.4347 85.9016 49.072 85.8696 48.688C85.8482 48.304 85.7842 47.9147 85.6776 47.52C85.5816 47.1253 85.4749 46.7627 85.3576 46.432C85.3042 46.272 85.2402 46.1493 85.1656 46.064C85.1016 45.9787 85.0056 45.8827 84.8776 45.776C84.6002 45.5733 84.5416 45.3333 84.7016 45.056C84.7656 44.9387 84.8616 44.8747 84.9896 44.864C85.1282 44.8533 85.2509 44.88 85.3576 44.944C85.5389 45.0507 85.6829 45.1733 85.7896 45.312C85.9069 45.44 86.0029 45.5787 86.0776 45.728C86.4082 46.4747 86.6376 47.2053 86.7656 47.92C86.9042 48.624 86.9149 49.28 86.7976 49.888C86.7442 50.1867 86.6536 50.464 86.5256 50.72C86.4082 50.976 86.2536 51.1947 86.0616 51.376C85.8696 51.5467 85.6402 51.6747 85.3736 51.76C85.1176 51.8453 84.8242 51.872 84.4936 51.84ZM92.0157 44.416C92.3357 44.5333 92.6024 44.7093 92.8157 44.944C93.0397 45.1787 93.2104 45.4453 93.3277 45.744C93.445 46.032 93.509 46.3307 93.5197 46.64C93.541 46.9493 93.509 47.2373 93.4237 47.504C93.3064 47.8027 93.157 48.096 92.9757 48.384C92.7944 48.672 92.5864 48.928 92.3517 49.152C92.117 49.376 91.8504 49.5573 91.5517 49.696C91.253 49.8347 90.9224 49.904 90.5597 49.904C90.1224 49.904 89.7544 49.8027 89.4557 49.6C89.157 49.3973 88.9224 49.136 88.7517 48.816C88.581 48.496 88.469 48.1333 88.4157 47.728C88.373 47.3227 88.3837 46.9173 88.4477 46.512C88.4904 46.2133 88.5597 45.9253 88.6557 45.648C88.7624 45.36 88.8957 45.1093 89.0557 44.896C89.2157 44.672 89.397 44.4907 89.5997 44.352C89.813 44.2133 90.053 44.144 90.3197 44.144C90.469 44.144 90.6557 44.176 90.8797 44.24C91.1037 44.2933 91.3117 44.3733 91.5037 44.48C91.6424 44.352 91.813 44.3307 92.0157 44.416ZM91.4077 45.584C91.2904 45.5093 91.1517 45.4133 90.9917 45.296C90.8424 45.168 90.709 45.104 90.5917 45.104C90.4637 45.104 90.3357 45.1627 90.2077 45.28C90.0904 45.3973 89.9837 45.536 89.8877 45.696C89.8024 45.8453 89.7277 46 89.6637 46.16C89.5997 46.32 89.557 46.448 89.5357 46.544C89.5037 46.704 89.4824 46.896 89.4717 47.12C89.461 47.344 89.477 47.568 89.5197 47.792C89.5624 48.0053 89.6424 48.2027 89.7597 48.384C89.8877 48.5547 90.0744 48.6773 90.3197 48.752C90.469 48.7947 90.645 48.7947 90.8477 48.752C91.0504 48.6987 91.2477 48.608 91.4397 48.48C91.6424 48.352 91.829 48.1813 91.9997 47.968C92.181 47.7547 92.3197 47.5093 92.4157 47.232C92.5224 46.9227 92.5224 46.6027 92.4157 46.272C92.3197 45.9307 92.117 45.6853 91.8077 45.536C91.733 45.5893 91.6584 45.616 91.5837 45.616C91.509 45.616 91.4504 45.6053 91.4077 45.584ZM97.7964 45.216C97.7751 45.0987 97.7538 44.9867 97.7324 44.88C97.7111 44.7733 97.6578 44.704 97.5724 44.672C97.3911 44.6187 97.1991 44.6133 96.9964 44.656C96.7938 44.6987 96.6071 44.768 96.4364 44.864C96.2658 44.9493 96.1218 45.0507 96.0044 45.168C95.8871 45.2747 95.8231 45.3707 95.8124 45.456C95.7804 45.616 95.8231 45.7707 95.9404 45.92C96.0578 46.0693 96.2284 46.2187 96.4524 46.368C96.8258 46.592 97.2151 46.8213 97.6204 47.056C98.0258 47.2907 98.3671 47.5307 98.6444 47.776C98.9218 48.0213 99.1084 48.2933 99.2044 48.592C99.3111 48.88 99.2898 49.2107 99.1404 49.584C99.0231 49.872 98.8044 50.1067 98.4844 50.288C98.1644 50.4693 97.8124 50.6133 97.4284 50.72C97.0444 50.816 96.6604 50.8853 96.2764 50.928C95.8924 50.96 95.5671 50.976 95.3004 50.976C95.2364 50.976 95.1564 50.9547 95.0604 50.912C94.9751 50.8587 94.8898 50.8 94.8044 50.736C94.7298 50.672 94.6604 50.608 94.5964 50.544C94.5431 50.4693 94.5164 50.4053 94.5164 50.352C94.5164 50.16 94.6018 50.0267 94.7724 49.952C94.9431 49.8773 95.1191 49.84 95.3004 49.84C95.5564 49.84 95.8284 49.8293 96.1164 49.808C96.4151 49.776 96.6978 49.7333 96.9644 49.68C97.2311 49.616 97.4711 49.536 97.6844 49.44C97.8978 49.344 98.0471 49.2213 98.1324 49.072C98.2071 48.944 98.1591 48.7947 97.9884 48.624C97.8284 48.4427 97.6098 48.256 97.3324 48.064C97.0658 47.872 96.7724 47.6853 96.4524 47.504C96.1431 47.3227 95.8764 47.1573 95.6524 47.008C95.4284 46.8587 95.2364 46.6827 95.0764 46.48C94.9164 46.2667 94.8151 46.0053 94.7724 45.696C94.7618 45.4187 94.8204 45.152 94.9484 44.896C95.0764 44.64 95.2418 44.416 95.4444 44.224C95.6578 44.0213 95.8978 43.8613 96.1644 43.744C96.4311 43.6267 96.6978 43.568 96.9644 43.568C97.4231 43.5893 97.8018 43.7173 98.1004 43.952C98.3991 44.176 98.5751 44.512 98.6284 44.96C98.6284 45.1093 98.6018 45.232 98.5484 45.328C98.5058 45.424 98.4258 45.4827 98.3084 45.504C98.1591 45.5253 98.0364 45.5093 97.9404 45.456C97.8551 45.392 97.8071 45.312 97.7964 45.216ZM104.098 46.24C103.682 46.4853 103.234 46.6773 102.754 46.816C102.274 46.944 101.757 47.008 101.202 47.008C101.224 47.3813 101.33 47.68 101.522 47.904C101.714 48.1173 101.954 48.2453 102.242 48.288C102.413 48.3093 102.584 48.304 102.754 48.272C102.936 48.24 103.101 48.192 103.25 48.128C103.41 48.0533 103.554 47.9733 103.682 47.888C103.81 47.8027 103.922 47.7173 104.018 47.632C104.114 47.5467 104.216 47.4933 104.322 47.472C104.429 47.44 104.509 47.4347 104.562 47.456C104.712 47.5093 104.765 47.6693 104.722 47.936C104.552 48.2773 104.306 48.5707 103.986 48.816C103.666 49.0507 103.309 49.2 102.914 49.264C102.573 49.328 102.221 49.312 101.858 49.216C101.496 49.12 101.17 48.9333 100.882 48.656C100.637 48.4107 100.45 48.1227 100.322 47.792C100.194 47.4613 100.114 47.12 100.082 46.768C100.05 46.4373 100.077 46.1227 100.162 45.824C100.258 45.5253 100.402 45.264 100.594 45.04C100.786 44.8053 101.026 44.6133 101.314 44.464C101.602 44.3147 101.938 44.2293 102.322 44.208C102.781 44.176 103.197 44.2613 103.57 44.464C103.944 44.6667 104.205 44.9493 104.354 45.312C104.44 45.5147 104.461 45.6907 104.418 45.84C104.386 45.9893 104.28 46.1227 104.098 46.24ZM102.258 45.152C102.152 45.1733 102.034 45.2107 101.906 45.264C101.789 45.3173 101.677 45.3867 101.57 45.472C101.474 45.5467 101.384 45.6373 101.298 45.744C101.224 45.84 101.181 45.952 101.17 46.08C101.352 46.08 101.549 46.064 101.762 46.032C101.986 46 102.2 45.9627 102.402 45.92C102.616 45.8667 102.808 45.808 102.978 45.744C103.16 45.68 103.309 45.6107 103.426 45.536C103.341 45.3333 103.181 45.2107 102.946 45.168C102.722 45.1147 102.493 45.1093 102.258 45.152ZM108.556 51.744C108.545 51.8613 108.492 51.968 108.396 52.064C108.3 52.1707 108.193 52.2187 108.076 52.208C107.894 52.1973 107.756 52.128 107.66 52C107.564 51.872 107.516 51.7653 107.516 51.68C107.516 51.2747 107.505 50.8533 107.484 50.416C107.462 49.968 107.436 49.5093 107.404 49.04C107.265 49.0613 107.137 49.0507 107.02 49.008C106.913 48.9547 106.838 48.8747 106.796 48.768C106.721 48.5867 106.732 48.4267 106.828 48.288C106.924 48.1493 107.078 48.016 107.292 47.888C107.238 47.4933 107.185 47.104 107.132 46.72C107.089 46.336 107.041 45.9627 106.988 45.6C106.977 45.536 106.982 45.4773 107.004 45.424C107.025 45.3707 107.052 45.3227 107.084 45.28C107.116 45.2267 107.174 45.1787 107.26 45.136C107.398 45.0827 107.553 45.1253 107.724 45.264C107.905 45.4027 108.028 45.5787 108.092 45.792C108.124 45.9947 108.156 46.2293 108.188 46.496C108.23 46.752 108.268 47.0347 108.3 47.344C108.524 47.2053 108.732 47.056 108.924 46.896C109.126 46.736 109.297 46.5653 109.436 46.384C109.585 46.2027 109.697 46.016 109.772 45.824C109.846 45.6213 109.868 45.4133 109.836 45.2C109.814 45.0187 109.734 44.8587 109.596 44.72C109.457 44.5707 109.238 44.4907 108.94 44.48C108.673 44.4693 108.406 44.4907 108.14 44.544C107.884 44.5973 107.628 44.6667 107.372 44.752C107.126 44.8373 106.881 44.9387 106.636 45.056C106.401 45.1733 106.172 45.2907 105.948 45.408C105.798 45.4933 105.649 45.5307 105.5 45.52C105.361 45.4987 105.27 45.4453 105.228 45.36C105.132 45.1467 105.137 44.9547 105.244 44.784C105.361 44.6133 105.537 44.4533 105.772 44.304C105.974 44.1867 106.214 44.0693 106.492 43.952C106.78 43.824 107.078 43.7173 107.388 43.632C107.708 43.536 108.028 43.472 108.348 43.44C108.678 43.3973 108.993 43.4027 109.292 43.456C109.59 43.4987 109.857 43.6 110.092 43.76C110.337 43.9093 110.534 44.1333 110.684 44.432C110.865 44.9227 110.913 45.376 110.828 45.792C110.753 46.1973 110.593 46.5707 110.348 46.912C110.113 47.2427 109.82 47.5467 109.468 47.824C109.126 48.0907 108.78 48.3307 108.428 48.544C108.481 49.12 108.518 49.6907 108.54 50.256C108.561 50.8213 108.566 51.3173 108.556 51.744ZM113.065 42.912C113.065 43.168 113.06 43.456 113.049 43.776C113.049 44.096 113.049 44.4267 113.049 44.768C113.06 45.1093 113.065 45.4613 113.065 45.824C113.076 46.1867 113.086 46.5333 113.097 46.864C113.204 46.6507 113.332 46.4427 113.481 46.24C113.63 46.0267 113.796 45.84 113.977 45.68C114.169 45.52 114.366 45.392 114.569 45.296C114.782 45.2 115.012 45.152 115.257 45.152C115.524 45.152 115.758 45.2373 115.961 45.408C116.174 45.5787 116.356 45.808 116.505 46.096C116.665 46.3733 116.798 46.688 116.905 47.04C117.012 47.3813 117.097 47.7333 117.161 48.096C117.236 48.448 117.289 48.7893 117.321 49.12C117.353 49.44 117.38 49.7173 117.401 49.952C117.401 50.1227 117.358 50.2613 117.273 50.368C117.188 50.4747 117.086 50.528 116.969 50.528C116.884 50.528 116.777 50.4747 116.649 50.368C116.532 50.2507 116.446 50.112 116.393 49.952C116.361 49.824 116.329 49.6373 116.297 49.392C116.265 49.1467 116.228 48.8853 116.185 48.608C116.142 48.32 116.089 48.032 116.025 47.744C115.961 47.456 115.881 47.2 115.785 46.976C115.7 46.7413 115.593 46.56 115.465 46.432C115.337 46.304 115.188 46.256 115.017 46.288C114.75 46.3413 114.516 46.528 114.313 46.848C114.121 47.168 113.95 47.5307 113.801 47.936C113.662 48.3413 113.545 48.752 113.449 49.168C113.364 49.584 113.3 49.92 113.257 50.176C113.214 50.368 113.156 50.5013 113.081 50.576C113.017 50.64 112.942 50.672 112.857 50.672C112.772 50.672 112.692 50.6293 112.617 50.544C112.553 50.4587 112.489 50.3573 112.425 50.24C112.372 50.112 112.324 49.984 112.281 49.856C112.238 49.7173 112.212 49.6 112.201 49.504C112.148 48.928 112.105 48.3787 112.073 47.856C112.041 47.3227 112.014 46.7893 111.993 46.256C111.982 45.7227 111.977 45.1787 111.977 44.624C111.977 44.0587 111.988 43.456 112.009 42.816C112.009 42.2827 112.201 42.0427 112.585 42.096C112.713 42.1173 112.825 42.2133 112.921 42.384C113.017 42.544 113.065 42.72 113.065 42.912Z" fill="black"/>
<rect x="0.5" y="0.5" width="201" height="139" stroke="black"/>
<path d="M1 1L100.5 94.5L201.5 0.5" stroke="black"/>
<path d="M70.5 66.5L0.5 139.5" stroke="black"/>
<path d="M131 66L201 139" stroke="black"/>
<path d="M157.703 45.1938C159.997 38.9446 168.429 28.2166 183.8 35.2979C181.149 41.838 172.219 52.9734 157.703 45.1938Z" fill="#EFEDE9" stroke="black"/>
<path d="M146.378 44.1564C145.257 37.5944 138.915 25.5131 122.513 29.6841C123.931 36.5969 130.69 49.1693 146.378 44.1564Z" fill="#EFEDE9" stroke="black"/>
<path d="M148.562 24.2437C143.771 22.8703 147.424 28.6172 149.85 31.6623L155.458 32.176C157.359 30.2086 161.255 25.786 161.631 23.8346C162.006 21.8832 157.605 22.1517 155.358 22.5299C152.924 19.0363 149.814 22.2168 148.562 24.2437Z" fill="#EFEDE9" stroke="black"/>
<path d="M131.358 47.5938C132.347 36.7913 141.907 28.8363 152.709 29.8258C163.512 30.8153 171.467 40.3746 170.477 51.1771L168.982 67.5038C168.195 76.094 160.593 82.4199 152.003 81.633L143.992 80.8992C135.401 80.1123 129.075 72.5107 129.862 63.9205L131.358 47.5938Z" fill="#EFEDE9" stroke="black"/>
<circle cx="142.894" cy="48.6505" r="6.98113" transform="rotate(5.23364 142.894 48.6505)" stroke="black"/>
<circle cx="150.156" cy="57.695" r="2.37736" transform="rotate(5.23364 150.156 57.695)" stroke="black"/>
<circle cx="142.894" cy="48.6506" r="4.10377" transform="rotate(5.23364 142.894 48.6506)" stroke="black"/>
<circle cx="142.894" cy="48.6505" r="0.938679" transform="rotate(5.23364 142.894 48.6505)" fill="black" stroke="black"/>
<circle cx="158.94" cy="50.1203" r="0.938679" transform="rotate(5.23364 158.94 50.1203)" fill="black" stroke="black"/>
<circle cx="158.94" cy="50.1203" r="4.10377" transform="rotate(5.23364 158.94 50.1203)" stroke="black"/>
<circle cx="158.94" cy="50.1203" r="6.98113" transform="rotate(5.23364 158.94 50.1203)" stroke="black"/>
<path d="M143.076 47.3015L143.019 47.2897L142.961 47.2911L136.016 47.4545C136.63 43.9037 139.881 41.3641 143.531 41.6985C147.182 42.0329 149.917 45.1208 149.876 48.724L143.076 47.3015Z" fill="#EFEDE9" stroke="black"/>
<path d="M159.122 48.7713L159.065 48.7595L159.007 48.7609L152.062 48.9243C152.676 45.3735 155.927 42.8339 159.577 43.1683C163.228 43.5027 165.963 46.5906 165.922 50.1938L159.122 48.7713Z" fill="#EFEDE9" stroke="black"/>
<path d="M147.434 57.4456L152.878 57.9443" stroke="black"/>
</svg>
