<svg width="202" height="140" viewBox="0 0 202 140" fill="#EFEDE9" xmlns="http://www.w3.org/2000/svg">
<path d="M83.4083 43.136C83.5256 43.1467 83.627 43.168 83.7123 43.2C83.7976 43.232 83.8403 43.2907 83.8403 43.376C83.8403 43.5893 83.771 43.728 83.6323 43.792C83.4936 43.856 83.3336 43.888 83.1523 43.888C82.9603 43.8667 82.7416 43.856 82.4963 43.856C82.251 43.856 82.011 43.856 81.7763 43.856C81.6803 43.856 81.595 43.8453 81.5203 43.824C81.4456 43.8027 81.387 43.7333 81.3443 43.616C81.259 43.456 81.227 43.3173 81.2483 43.2C81.2803 43.072 81.339 42.9973 81.4243 42.976C81.7656 42.9333 82.1123 42.9333 82.4643 42.976C82.827 43.008 83.1416 43.0613 83.4083 43.136ZM81.7123 51.84C81.5736 51.8293 81.4296 51.8027 81.2803 51.76C81.1416 51.7173 81.0083 51.664 80.8803 51.6C80.763 51.5253 80.667 51.4453 80.5923 51.36C80.5176 51.2747 80.4803 51.1733 80.4803 51.056C80.5016 50.9707 80.555 50.9067 80.6403 50.864C80.7363 50.8107 80.843 50.7947 80.9603 50.816C81.2163 50.88 81.483 50.9067 81.7603 50.896C82.0483 50.8853 82.299 50.7893 82.5123 50.608C82.7576 50.3947 82.923 50.1173 83.0083 49.776C83.0936 49.4347 83.1203 49.072 83.0883 48.688C83.067 48.304 83.003 47.9147 82.8963 47.52C82.8003 47.1253 82.6936 46.7627 82.5763 46.432C82.523 46.272 82.459 46.1493 82.3843 46.064C82.3203 45.9787 82.2243 45.8827 82.0963 45.776C81.819 45.5733 81.7603 45.3333 81.9203 45.056C81.9843 44.9387 82.0803 44.8747 82.2083 44.864C82.347 44.8533 82.4696 44.88 82.5763 44.944C82.7576 45.0507 82.9016 45.1733 83.0083 45.312C83.1256 45.44 83.2216 45.5787 83.2963 45.728C83.627 46.4747 83.8563 47.2053 83.9843 47.92C84.123 48.624 84.1336 49.28 84.0163 49.888C83.963 50.1867 83.8723 50.464 83.7443 50.72C83.627 50.976 83.4723 51.1947 83.2803 51.376C83.0883 51.5467 82.859 51.6747 82.5923 51.76C82.3363 51.8453 82.043 51.872 81.7123 51.84ZM86.9304 45.264C86.8664 45.552 86.8024 45.872 86.7384 46.224C86.6744 46.5653 86.6264 46.896 86.5944 47.216C86.5731 47.536 86.5731 47.824 86.5944 48.08C86.6264 48.336 86.6958 48.5173 86.8024 48.624C86.9838 48.656 87.1918 48.5813 87.4264 48.4C87.6611 48.208 87.8904 47.968 88.1144 47.68C88.3384 47.392 88.5411 47.0827 88.7224 46.752C88.9038 46.4107 89.0318 46.112 89.1064 45.856C89.1491 45.728 89.1864 45.5947 89.2184 45.456C89.2504 45.3173 89.2664 45.1733 89.2664 45.024C89.2664 44.9387 89.3198 44.8587 89.4264 44.784C89.5438 44.6987 89.6398 44.6507 89.7144 44.64C89.7678 44.6293 89.8264 44.64 89.8904 44.672C89.9651 44.704 90.0291 44.752 90.0824 44.816C90.1464 44.8693 90.1998 44.9387 90.2424 45.024C90.2958 45.0987 90.3224 45.1787 90.3224 45.264C90.3438 45.584 90.3758 45.936 90.4184 46.32C90.4611 46.704 90.5091 47.088 90.5624 47.472C90.6264 47.856 90.6904 48.2293 90.7544 48.592C90.8184 48.9547 90.8824 49.28 90.9464 49.568C90.9784 49.6853 90.9464 49.8187 90.8504 49.968C90.7544 50.1173 90.6478 50.208 90.5304 50.24C90.4344 50.2613 90.3331 50.2507 90.2264 50.208C90.1304 50.1653 90.0558 50.08 90.0024 49.952C89.9491 49.8027 89.8958 49.6213 89.8424 49.408C89.7998 49.184 89.7571 48.9547 89.7144 48.72C89.6824 48.4747 89.6504 48.2453 89.6184 48.032C89.5864 47.808 89.5651 47.6213 89.5544 47.472C89.3944 47.76 89.2024 48.0533 88.9784 48.352C88.7651 48.64 88.5304 48.9067 88.2744 49.152C88.0291 49.3867 87.7678 49.5733 87.4904 49.712C87.2238 49.84 86.9464 49.888 86.6584 49.856C86.2318 49.8027 85.9064 49.4027 85.6824 48.656C85.5971 48.3573 85.5544 48.0267 85.5544 47.664C85.5651 47.3013 85.5918 46.944 85.6344 46.592C85.6878 46.2293 85.7464 45.888 85.8104 45.568C85.8851 45.248 85.9491 44.9867 86.0024 44.784C86.0238 44.6987 86.0664 44.624 86.1304 44.56C86.1944 44.4853 86.2691 44.4587 86.3544 44.48C86.5144 44.512 86.6584 44.608 86.7864 44.768C86.9251 44.928 86.9731 45.0933 86.9304 45.264ZM95.1089 45.216C95.0876 45.0987 95.0663 44.9867 95.0449 44.88C95.0236 44.7733 94.9703 44.704 94.8849 44.672C94.7036 44.6187 94.5116 44.6133 94.3089 44.656C94.1063 44.6987 93.9196 44.768 93.7489 44.864C93.5783 44.9493 93.4343 45.0507 93.3169 45.168C93.1996 45.2747 93.1356 45.3707 93.1249 45.456C93.0929 45.616 93.1356 45.7707 93.2529 45.92C93.3703 46.0693 93.5409 46.2187 93.7649 46.368C94.1383 46.592 94.5276 46.8213 94.9329 47.056C95.3383 47.2907 95.6796 47.5307 95.9569 47.776C96.2343 48.0213 96.4209 48.2933 96.5169 48.592C96.6236 48.88 96.6023 49.2107 96.4529 49.584C96.3356 49.872 96.1169 50.1067 95.7969 50.288C95.4769 50.4693 95.1249 50.6133 94.7409 50.72C94.3569 50.816 93.9729 50.8853 93.5889 50.928C93.2049 50.96 92.8796 50.976 92.6129 50.976C92.5489 50.976 92.4689 50.9547 92.3729 50.912C92.2876 50.8587 92.2023 50.8 92.1169 50.736C92.0423 50.672 91.9729 50.608 91.9089 50.544C91.8556 50.4693 91.8289 50.4053 91.8289 50.352C91.8289 50.16 91.9143 50.0267 92.0849 49.952C92.2556 49.8773 92.4316 49.84 92.6129 49.84C92.8689 49.84 93.1409 49.8293 93.4289 49.808C93.7276 49.776 94.0103 49.7333 94.2769 49.68C94.5436 49.616 94.7836 49.536 94.9969 49.44C95.2103 49.344 95.3596 49.2213 95.4449 49.072C95.5196 48.944 95.4716 48.7947 95.3009 48.624C95.1409 48.4427 94.9223 48.256 94.6449 48.064C94.3783 47.872 94.0849 47.6853 93.7649 47.504C93.4556 47.3227 93.1889 47.1573 92.9649 47.008C92.7409 46.8587 92.5489 46.6827 92.3889 46.48C92.2289 46.2667 92.1276 46.0053 92.0849 45.696C92.0743 45.4187 92.1329 45.152 92.2609 44.896C92.3889 44.64 92.5543 44.416 92.7569 44.224C92.9703 44.0213 93.2103 43.8613 93.4769 43.744C93.7436 43.6267 94.0103 43.568 94.2769 43.568C94.7356 43.5893 95.1143 43.7173 95.4129 43.952C95.7116 44.176 95.8876 44.512 95.9409 44.96C95.9409 45.1093 95.9143 45.232 95.8609 45.328C95.8183 45.424 95.7383 45.4827 95.6209 45.504C95.4716 45.5253 95.3489 45.5093 95.2529 45.456C95.1676 45.392 95.1196 45.312 95.1089 45.216ZM101.171 45.712C101.373 45.7013 101.576 45.7493 101.779 45.856C101.981 45.9627 102.083 46.128 102.083 46.352C102.061 46.5333 101.96 46.6507 101.779 46.704C101.608 46.7467 101.469 46.768 101.363 46.768C101.149 46.768 100.92 46.7733 100.675 46.784C100.429 46.7947 100.179 46.8107 99.9228 46.832C99.9015 47.184 99.8801 47.5147 99.8588 47.824C99.8481 48.1333 99.8375 48.4107 99.8268 48.656C99.8161 48.8907 99.8108 49.0827 99.8108 49.232C99.8108 49.3813 99.8161 49.4613 99.8268 49.472C100.061 49.4293 100.312 49.36 100.579 49.264C100.856 49.1573 101.128 49.0453 101.395 48.928C101.672 48.8 101.939 48.672 102.195 48.544C102.461 48.4053 102.712 48.2773 102.947 48.16C103.053 48.1067 103.149 48.0907 103.235 48.112C103.331 48.1333 103.389 48.1813 103.411 48.256C103.432 48.3733 103.416 48.5173 103.363 48.688C103.309 48.8587 103.213 49.0133 103.075 49.152C102.915 49.28 102.701 49.4293 102.435 49.6C102.179 49.76 101.901 49.9147 101.603 50.064C101.304 50.2133 101 50.3467 100.691 50.464C100.392 50.5707 100.125 50.6347 99.8908 50.656C99.5388 50.688 99.2721 50.592 99.0908 50.368C98.9095 50.144 98.8081 49.8613 98.7868 49.52C98.7655 49.1787 98.7601 48.784 98.7708 48.336C98.7921 47.888 98.8135 47.4133 98.8348 46.912C98.6321 46.9333 98.4348 46.9547 98.2428 46.976C98.0615 46.9867 97.8855 47.0027 97.7148 47.024C97.5761 47.024 97.4215 46.992 97.2508 46.928C97.0908 46.864 97.0108 46.7413 97.0108 46.56C97.0108 46.496 97.0375 46.4107 97.0908 46.304C97.1441 46.1973 97.2615 46.1173 97.4428 46.064C97.8801 45.9893 98.3655 45.9253 98.8988 45.872C98.9308 45.3707 98.9681 44.8853 99.0108 44.416C99.0535 43.9467 99.0908 43.52 99.1228 43.136C99.1335 43.008 99.1708 42.896 99.2348 42.8C99.2988 42.704 99.3681 42.656 99.4428 42.656C99.6241 42.6453 99.7948 42.6933 99.9548 42.8C100.125 42.896 100.211 43.008 100.211 43.136C100.168 43.4987 100.125 43.9093 100.083 44.368C100.051 44.8267 100.019 45.296 99.9868 45.776C100.2 45.7547 100.403 45.744 100.595 45.744C100.797 45.7333 100.989 45.7227 101.171 45.712ZM106.758 43.472C106.737 43.5787 106.662 43.6373 106.534 43.648C106.406 43.6587 106.299 43.664 106.214 43.664C105.947 43.6747 105.67 43.7013 105.382 43.744C105.105 43.7867 104.811 43.8507 104.502 43.936C104.374 43.9787 104.235 43.9627 104.086 43.888C103.937 43.8133 103.846 43.664 103.814 43.44C103.814 43.3547 103.846 43.2853 103.91 43.232C103.974 43.1787 104.049 43.1307 104.134 43.088C104.273 43.024 104.438 42.9707 104.63 42.928C104.822 42.8747 105.014 42.8373 105.206 42.816C105.409 42.7947 105.601 42.7893 105.782 42.8C105.963 42.8 106.113 42.816 106.23 42.848C106.401 42.9013 106.534 42.9813 106.63 43.088C106.737 43.1947 106.779 43.3227 106.758 43.472ZM106.39 48.8C106.465 48.9707 106.502 49.1573 106.502 49.36C106.513 49.552 106.459 49.6853 106.342 49.76C106.193 49.856 106.033 49.8507 105.862 49.744C105.691 49.6373 105.563 49.4933 105.478 49.312C105.361 49.088 105.27 48.816 105.206 48.496C105.142 48.1653 105.094 47.84 105.062 47.52C105.03 47.2 105.009 46.9013 104.998 46.624C104.998 46.3467 104.998 46.1387 104.998 46C105.009 45.8507 105.051 45.712 105.126 45.584C105.201 45.456 105.297 45.3813 105.414 45.36C105.606 45.3707 105.761 45.4613 105.878 45.632C105.995 45.792 106.049 45.9947 106.038 46.24C106.038 46.432 106.043 46.6453 106.054 46.88C106.065 47.1147 106.086 47.3493 106.118 47.584C106.15 47.8187 106.187 48.048 106.23 48.272C106.273 48.4853 106.326 48.6613 106.39 48.8ZM108.969 44.72C109.001 44.88 109.033 45.0613 109.065 45.264C109.108 45.456 109.15 45.6587 109.193 45.872C109.236 46.0747 109.273 46.2827 109.305 46.496C109.337 46.7093 109.364 46.912 109.385 47.104C109.513 46.8267 109.652 46.5333 109.801 46.224C109.95 45.9147 110.11 45.632 110.281 45.376C110.462 45.1093 110.649 44.8907 110.841 44.72C111.044 44.5493 111.262 44.464 111.497 44.464C111.849 44.464 112.142 44.592 112.377 44.848C112.622 45.104 112.825 45.424 112.985 45.808C113.156 46.1813 113.289 46.576 113.385 46.992C113.481 47.408 113.561 47.776 113.625 48.096C113.689 48.384 113.561 48.5973 113.241 48.736C113.092 48.8107 112.98 48.8213 112.905 48.768C112.83 48.7147 112.788 48.6613 112.777 48.608C112.724 48.48 112.654 48.256 112.569 47.936C112.494 47.616 112.404 47.2907 112.297 46.96C112.201 46.6293 112.089 46.3413 111.961 46.096C111.833 45.8507 111.689 45.7387 111.529 45.76C111.337 45.7707 111.166 45.9147 111.017 46.192C110.889 46.416 110.756 46.6667 110.617 46.944C110.489 47.2107 110.361 47.488 110.233 47.776C110.105 48.0533 109.977 48.336 109.849 48.624C109.732 48.9013 109.62 49.1573 109.513 49.392C109.438 49.4667 109.342 49.52 109.225 49.552C109.118 49.5733 109.006 49.5627 108.889 49.52C108.782 49.488 108.697 49.4347 108.633 49.36C108.569 49.2853 108.537 49.2107 108.537 49.136C108.441 48.304 108.34 47.5467 108.233 46.864C108.137 46.1813 108.009 45.4827 107.849 44.768C107.774 44.5227 107.758 44.3307 107.801 44.192C107.854 44.0427 108.014 43.984 108.281 44.016C108.654 44.08 108.884 44.3147 108.969 44.72ZM118.598 46.24C118.182 46.4853 117.734 46.6773 117.254 46.816C116.774 46.944 116.257 47.008 115.702 47.008C115.724 47.3813 115.83 47.68 116.022 47.904C116.214 48.1173 116.454 48.2453 116.742 48.288C116.913 48.3093 117.084 48.304 117.254 48.272C117.436 48.24 117.601 48.192 117.75 48.128C117.91 48.0533 118.054 47.9733 118.182 47.888C118.31 47.8027 118.422 47.7173 118.518 47.632C118.614 47.5467 118.716 47.4933 118.822 47.472C118.929 47.44 119.009 47.4347 119.062 47.456C119.212 47.5093 119.265 47.6693 119.222 47.936C119.052 48.2773 118.806 48.5707 118.486 48.816C118.166 49.0507 117.809 49.2 117.414 49.264C117.073 49.328 116.721 49.312 116.358 49.216C115.996 49.12 115.67 48.9333 115.382 48.656C115.137 48.4107 114.95 48.1227 114.822 47.792C114.694 47.4613 114.614 47.12 114.582 46.768C114.55 46.4373 114.577 46.1227 114.662 45.824C114.758 45.5253 114.902 45.264 115.094 45.04C115.286 44.8053 115.526 44.6133 115.814 44.464C116.102 44.3147 116.438 44.2293 116.822 44.208C117.281 44.176 117.697 44.2613 118.07 44.464C118.444 44.6667 118.705 44.9493 118.854 45.312C118.94 45.5147 118.961 45.6907 118.918 45.84C118.886 45.9893 118.78 46.1227 118.598 46.24ZM116.758 45.152C116.652 45.1733 116.534 45.2107 116.406 45.264C116.289 45.3173 116.177 45.3867 116.07 45.472C115.974 45.5467 115.884 45.6373 115.798 45.744C115.724 45.84 115.681 45.952 115.67 46.08C115.852 46.08 116.049 46.064 116.262 46.032C116.486 46 116.7 45.9627 116.902 45.92C117.116 45.8667 117.308 45.808 117.478 45.744C117.66 45.68 117.809 45.6107 117.926 45.536C117.841 45.3333 117.681 45.2107 117.446 45.168C117.222 45.1147 116.993 45.1093 116.758 45.152Z" fill="black"/>
<rect x="0.5" y="0.5" width="201" height="139" stroke="black"/>
<path d="M1 1L100.5 94.5L201.5 0.5" stroke="black"/>
<path d="M70.5 66.5L0.5 139.5" stroke="black"/>
<path d="M131 66L201 139" stroke="black"/>
<path d="M125.077 123.157L129.214 61.1234C125.798 56.847 127.259 54.9814 130.703 52.8792C137.484 48.7402 155.232 52.7294 167.131 57.5985C176.651 61.4939 172.215 66.4032 168.807 68.371L153.081 127.059C144.84 132.726 130.978 126.819 125.077 123.157Z" fill="#EFEDE9" stroke="black"/>
<path d="M133.05 63.8316C132.105 63.1781 130.534 61.5729 130.678 61.0353L133.906 59.7395C134.638 59.6956 140.091 59.9561 141.867 61.3923C142.754 62.1104 146.06 62.7668 147.303 62.6087C149.125 62.3769 150.127 61.925 153.935 62.9453C156.175 63.5456 159.119 62.4138 160.643 62.1019L164.123 62.5542C165.587 62.4664 168.291 62.2306 169.051 63.8747" stroke="black" stroke-linecap="round"/>
<path d="M136.514 65.2399C138.191 65.8494 141.904 67.1645 143.338 67.5486" stroke="black" stroke-linecap="round"/>
<path d="M151.418 68.7533C153.574 68.7708 158.134 68.7763 159.126 68.658" stroke="black" stroke-linecap="round"/>
<path d="M164.475 68.4104C165.565 68.2225 167.827 67.7243 168.151 67.2347" stroke="black" stroke-linecap="round"/>
<path d="M144.057 28.1276L145.687 51.6124" stroke="black"/>
<path d="M142.413 28.8875L144.015 50.6842" stroke="black"/>
<path d="M146.002 62.9807L149.41 111.19" stroke="black"/>
<path d="M144.434 62.5605L148.071 107.23" stroke="black"/>
<path d="M142.879 51.3401L141.457 28.8714C142.091 28.0007 143.892 26.5947 146.03 27.9357L148.108 51.5406" stroke="black"/>
<path d="M143.254 62.4844L147.261 112.273C147.287 112.601 147.447 112.903 147.703 113.11L150.479 115.356C151.296 116.016 152.506 115.383 152.431 114.336L148.707 62.7449" stroke="black" stroke-linecap="round" stroke-linejoin="round"/>
<path d="M129.082 58.9271C128.262 57.507 129.018 55.9509 133.171 55.1432C136.633 54.4702 142.256 53.4959 145.092 55.4563C146.78 55.4284 148.828 54.0565 150.26 55.8807C150.976 56.7928 152.724 56.541 153.92 55.6611C154.877 54.9571 164.392 57.7948 166.3 58.7382C167.36 59.2623 172.272 61.5388 169.263 66.4947" stroke="black" stroke-linecap="round"/>
<path d="M129.645 75.6437C133.741 72.8999 140.873 73.1645 146.669 80.2053C150.473 84.8258 156.713 88.4183 162.841 85.2587" stroke="black" stroke-linecap="round"/>
<circle cx="143.351" cy="106.926" r="2.78283" transform="rotate(15 143.351 106.926)" fill="#2E2020"/>
<circle cx="129.39" cy="114.229" r="2.78283" transform="rotate(15 129.39 114.229)" fill="#2E2020"/>
<circle cx="142.566" cy="113.438" r="2.78283" transform="rotate(15 142.566 113.438)" fill="#2E2020"/>
<circle cx="135.19" cy="110.501" r="2.78283" transform="rotate(15 135.19 110.501)" fill="#2E2020"/>
<circle cx="130.839" cy="101.652" r="2.78283" transform="rotate(15 130.839 101.652)" fill="#2E2020"/>
<circle cx="148.238" cy="117.358" r="2.78283" transform="rotate(15 148.238 117.358)" fill="#2E2020"/>
<circle cx="150.381" cy="123.695" r="2.78283" transform="rotate(15 150.381 123.695)" fill="#2E2020"/>
<circle cx="134.974" cy="116.685" r="2.78283" transform="rotate(15 134.974 116.685)" fill="#2E2020"/>
<circle cx="144.045" cy="125.838" r="2.78283" transform="rotate(15 144.045 125.838)" fill="#2E2020"/>
<path d="M143.453 120.878C143.056 122.363 141.53 123.244 140.045 122.846C138.561 122.448 137.68 120.922 138.077 119.438C138.475 117.953 140.001 117.072 141.486 117.47C142.97 117.868 143.851 119.393 143.453 120.878Z" fill="#2E2020"/>
<circle cx="135.981" cy="123.677" r="2.78283" transform="rotate(15 135.981 123.677)" fill="#2E2020"/>
<circle cx="129.741" cy="120.085" r="2.78283" transform="rotate(15 129.741 120.085)" fill="#2E2020"/>
</svg>
