<svg width="202" height="140" viewBox="0 0 202 140" fill="#EFEDE9" xmlns="http://www.w3.org/2000/svg">
<path d="M95.3216 44.768C95.3643 44.7573 95.4283 44.752 95.5136 44.752C95.599 44.7413 95.679 44.7467 95.7536 44.768C95.839 44.7787 95.9083 44.8053 95.9616 44.848C96.0256 44.88 96.063 44.9227 96.0736 44.976C96.095 45.104 96.0736 45.2213 96.0096 45.328C95.9563 45.424 95.855 45.5093 95.7056 45.584C95.3003 45.776 94.879 45.9947 94.4416 46.24C94.0043 46.4747 93.631 46.688 93.3216 46.88C93.5136 47.008 93.7323 47.152 93.9776 47.312C94.2336 47.472 94.495 47.6427 94.7616 47.824C95.0283 47.9947 95.295 48.1813 95.5616 48.384C95.8283 48.576 96.079 48.768 96.3136 48.96C96.527 49.1413 96.5643 49.3067 96.4256 49.456C96.3616 49.5307 96.255 49.584 96.1056 49.616C95.967 49.648 95.8336 49.632 95.7056 49.568C95.471 49.4507 95.215 49.312 94.9376 49.152C94.6603 48.9813 94.3776 48.8107 94.0896 48.64C93.8016 48.4587 93.519 48.2827 93.2416 48.112C92.975 47.9307 92.7296 47.7653 92.5056 47.616C92.5483 47.9893 92.5856 48.3627 92.6176 48.736C92.6603 49.1093 92.6976 49.4827 92.7296 49.856C92.7936 50.0587 92.7883 50.224 92.7136 50.352C92.639 50.48 92.5163 50.5387 92.3456 50.528C92.1643 50.496 92.031 50.4267 91.9456 50.32C91.8603 50.2027 91.7963 50.0533 91.7536 49.872C91.6896 49.4347 91.615 48.9173 91.5296 48.32C91.455 47.7227 91.375 47.104 91.2896 46.464C91.2043 45.824 91.119 45.2 91.0336 44.592C90.959 43.984 90.8896 43.4453 90.8256 42.976C90.8043 42.8267 90.7883 42.6667 90.7776 42.496C90.7776 42.3147 90.8363 42.1973 90.9536 42.144C91.1136 42.08 91.279 42.1173 91.4496 42.256C91.6203 42.384 91.7483 42.5813 91.8336 42.848C91.919 43.3387 92.0043 43.872 92.0896 44.448C92.175 45.024 92.2603 45.632 92.3456 46.272C92.559 46.144 92.8043 46.0053 93.0816 45.856C93.3696 45.696 93.6523 45.5467 93.9296 45.408C94.2176 45.2587 94.4843 45.1253 94.7296 45.008C94.975 44.8907 95.1723 44.8107 95.3216 44.768ZM101.422 44.08C101.464 44.3787 101.496 44.6987 101.518 45.04C101.55 45.3707 101.571 45.7067 101.582 46.048C101.603 46.3893 101.614 46.72 101.614 47.04C101.614 47.36 101.608 47.648 101.598 47.904C101.939 48.1387 102.142 48.3467 102.206 48.528C102.28 48.7093 102.291 48.8693 102.238 49.008C102.174 49.2 102.056 49.3013 101.886 49.312C101.726 49.312 101.539 49.2533 101.326 49.136C101.176 49.2427 101.006 49.36 100.814 49.488C100.622 49.6053 100.419 49.7227 100.206 49.84C99.9923 49.9467 99.779 50.0427 99.5656 50.128C99.3523 50.2133 99.155 50.272 98.9736 50.304C98.6323 50.3573 98.323 50.2933 98.0456 50.112C97.779 49.9307 97.5976 49.6587 97.5016 49.296C97.4376 49.0507 97.4216 48.8 97.4536 48.544C97.4856 48.2773 97.5656 48.0267 97.6936 47.792C97.8216 47.5467 97.9923 47.328 98.2056 47.136C98.4296 46.944 98.691 46.7947 98.9896 46.688C99.0643 46.656 99.1656 46.6293 99.2936 46.608C99.4323 46.5867 99.571 46.5813 99.7096 46.592C99.859 46.592 100.008 46.6187 100.158 46.672C100.307 46.7253 100.446 46.816 100.574 46.944C100.574 46.7627 100.568 46.5653 100.558 46.352C100.558 46.128 100.552 45.904 100.542 45.68C100.531 45.456 100.515 45.248 100.494 45.056C100.483 44.8533 100.467 44.6827 100.446 44.544C100.424 44.384 100.36 44.288 100.254 44.256C100.158 44.2133 100.035 44.2187 99.8856 44.272C99.6296 44.3573 99.331 44.5227 98.9896 44.768C98.6483 45.0133 98.323 45.2747 98.0136 45.552C97.9176 45.648 97.8056 45.6907 97.6776 45.68C97.5603 45.6693 97.459 45.6213 97.3736 45.536C97.2883 45.4507 97.2403 45.3547 97.2296 45.248C97.219 45.1307 97.2616 45.008 97.3576 44.88C97.539 44.688 97.7416 44.4907 97.9656 44.288C98.1896 44.0853 98.4243 43.904 98.6696 43.744C98.915 43.5733 99.1656 43.4347 99.4216 43.328C99.6776 43.2213 99.9336 43.1627 100.19 43.152C100.563 43.1413 100.851 43.2267 101.054 43.408C101.256 43.5787 101.379 43.8027 101.422 44.08ZM99.5656 47.52C99.427 47.552 99.2776 47.6213 99.1176 47.728C98.9683 47.824 98.8296 47.9467 98.7016 48.096C98.5843 48.2347 98.4936 48.3947 98.4296 48.576C98.3763 48.7467 98.3763 48.9173 98.4296 49.088C98.451 49.152 98.4936 49.2 98.5576 49.232C98.6323 49.264 98.7123 49.2693 98.7976 49.248C99.0536 49.1947 99.3416 49.0933 99.6616 48.944C99.9923 48.784 100.254 48.6133 100.446 48.432C100.446 48.368 100.414 48.288 100.35 48.192C100.286 48.0853 100.211 47.984 100.126 47.888C100.04 47.7813 99.9443 47.6907 99.8376 47.616C99.7416 47.5413 99.651 47.5093 99.5656 47.52ZM104.516 42.512C104.569 43.6747 104.66 44.88 104.788 46.128C104.916 47.3653 105.054 48.5493 105.204 49.68C105.236 50.1493 105.108 50.3893 104.82 50.4C104.756 50.4 104.692 50.3787 104.628 50.336C104.564 50.2827 104.505 50.2187 104.452 50.144C104.398 50.0693 104.345 49.9893 104.292 49.904C104.249 49.8187 104.222 49.744 104.212 49.68C104.126 49.136 104.046 48.56 103.972 47.952C103.897 47.344 103.828 46.736 103.764 46.128C103.71 45.5093 103.662 44.9067 103.62 44.32C103.577 43.7333 103.55 43.1947 103.54 42.704C103.561 42.448 103.598 42.2347 103.652 42.064C103.705 41.8827 103.817 41.7973 103.988 41.808C104.169 41.8187 104.297 41.8933 104.372 42.032C104.457 42.16 104.505 42.32 104.516 42.512ZM109.203 43.472C109.182 43.5787 109.107 43.6373 108.979 43.648C108.851 43.6587 108.745 43.664 108.659 43.664C108.393 43.6747 108.115 43.7013 107.827 43.744C107.55 43.7867 107.257 43.8507 106.947 43.936C106.819 43.9787 106.681 43.9627 106.531 43.888C106.382 43.8133 106.291 43.664 106.259 43.44C106.259 43.3547 106.291 43.2853 106.355 43.232C106.419 43.1787 106.494 43.1307 106.579 43.088C106.718 43.024 106.883 42.9707 107.075 42.928C107.267 42.8747 107.459 42.8373 107.651 42.816C107.854 42.7947 108.046 42.7893 108.227 42.8C108.409 42.8 108.558 42.816 108.675 42.848C108.846 42.9013 108.979 42.9813 109.075 43.088C109.182 43.1947 109.225 43.3227 109.203 43.472ZM108.835 48.8C108.91 48.9707 108.947 49.1573 108.947 49.36C108.958 49.552 108.905 49.6853 108.787 49.76C108.638 49.856 108.478 49.8507 108.307 49.744C108.137 49.6373 108.009 49.4933 107.923 49.312C107.806 49.088 107.715 48.816 107.651 48.496C107.587 48.1653 107.539 47.84 107.507 47.52C107.475 47.2 107.454 46.9013 107.443 46.624C107.443 46.3467 107.443 46.1387 107.443 46C107.454 45.8507 107.497 45.712 107.571 45.584C107.646 45.456 107.742 45.3813 107.859 45.36C108.051 45.3707 108.206 45.4613 108.323 45.632C108.441 45.792 108.494 45.9947 108.483 46.24C108.483 46.432 108.489 46.6453 108.499 46.88C108.51 47.1147 108.531 47.3493 108.563 47.584C108.595 47.8187 108.633 48.048 108.675 48.272C108.718 48.4853 108.771 48.6613 108.835 48.8Z" fill="black"/>
<rect x="0.5" y="0.5" width="201" height="139" stroke="black"/>
<path d="M1 1L100.5 94.5L201.5 0.5" stroke="black"/>
<path d="M70.5 66.5L0.5 139.5" stroke="black"/>
<path d="M131 66L201 139" stroke="black"/>
<path d="M143.328 113.403C144.718 117.936 144.121 121.506 143.328 122.725C141.345 124.613 141.578 128.016 144.06 126.106C148.452 122.725 146.622 122.359 156.871 122.725C171.065 123.231 180.206 100.243 164.65 92.5658C149.093 84.8891 141.589 107.737 143.328 113.403Z" fill="#EFEDE9" stroke="black"/>
<path d="M146.895 119.677C151.324 114.075 160.182 101.756 160.182 97.2991" stroke="black" stroke-linecap="round"/>
<path d="M153.189 97.9984C154.572 100.192 156.576 105.64 155.986 107.089" stroke="black" stroke-linecap="round"/>
<path d="M147.594 104.991C148.883 106.717 150.709 111.441 150.392 115.131" stroke="black" stroke-linecap="round"/>
<path d="M168.573 104.292C165.159 104.525 158.072 104.642 155.636 107.439" stroke="black" stroke-linecap="round"/>
<path d="M162.979 114.159C159.605 113.945 151.873 114.399 149.343 116.53" stroke="black" stroke-linecap="round"/>
<path d="M143.328 74.9001C144.718 79.433 144.121 83.0033 143.328 84.2218C141.345 86.1105 141.578 89.5133 144.06 87.6033C148.452 84.2218 146.622 83.8563 156.871 84.2218C171.065 84.7281 180.206 61.7399 164.65 54.0631C149.093 46.3864 141.589 69.2339 143.328 74.9001Z" fill="#EFEDE9" stroke="black"/>
<path d="M146.895 81.174C151.324 75.5719 160.182 63.2533 160.182 58.7964" stroke="black" stroke-linecap="round"/>
<path d="M153.189 59.4957C154.572 61.689 156.576 67.1371 155.986 68.5866" stroke="black" stroke-linecap="round"/>
<path d="M147.594 66.4887C148.883 68.2145 150.709 72.9384 150.392 76.6286" stroke="black" stroke-linecap="round"/>
<path d="M168.573 65.7894C165.159 66.0225 158.072 66.1391 155.636 68.9363" stroke="black" stroke-linecap="round"/>
<path d="M162.979 75.6567C159.605 75.4424 151.873 75.8961 149.343 78.0272" stroke="black" stroke-linecap="round"/>
<path d="M143.328 36.3974C144.718 40.9303 144.121 44.5006 143.328 45.7191C141.345 47.6079 141.578 51.0107 144.06 49.1006C148.452 45.7191 146.622 45.3536 156.871 45.7191C171.065 46.2254 180.206 23.2372 164.65 15.5604C149.093 7.88369 141.589 30.7312 143.328 36.3974Z" fill="#EFEDE9" stroke="black"/>
<path d="M146.895 42.6713C151.324 37.0692 160.182 24.7507 160.182 20.2937" stroke="black" stroke-linecap="round"/>
<path d="M153.189 20.993C154.572 23.1863 156.576 28.6345 155.986 30.0839" stroke="black" stroke-linecap="round"/>
<path d="M147.594 27.986C148.883 29.7119 150.709 34.4357 150.392 38.1259" stroke="black" stroke-linecap="round"/>
<path d="M168.573 27.2867C165.159 27.5198 158.072 27.6364 155.636 30.4336" stroke="black" stroke-linecap="round"/>
<path d="M162.979 37.1541C159.605 36.9397 151.873 37.3935 149.343 39.5245" stroke="black" stroke-linecap="round"/>
</svg>
