<svg width="202" height="140" viewBox="0 0 202 140" fill="none" xmlns="http://www.w3.org/2000/svg">
<path d="M80.9456 44.72C80.9776 44.88 81.0096 45.0613 81.0416 45.264C81.0843 45.456 81.127 45.6587 81.1696 45.872C81.2123 46.0747 81.2496 46.2827 81.2816 46.496C81.3136 46.7093 81.3403 46.912 81.3616 47.104C81.4896 46.8267 81.6283 46.5333 81.7776 46.224C81.927 45.9147 82.087 45.632 82.2576 45.376C82.439 45.1093 82.6256 44.8907 82.8176 44.72C83.0203 44.5493 83.239 44.464 83.4736 44.464C83.8256 44.464 84.119 44.592 84.3536 44.848C84.599 45.104 84.8016 45.424 84.9616 45.808C85.1323 46.1813 85.2656 46.576 85.3616 46.992C85.4576 47.408 85.5376 47.776 85.6016 48.096C85.6656 48.384 85.5376 48.5973 85.2176 48.736C85.0683 48.8107 84.9563 48.8213 84.8816 48.768C84.807 48.7147 84.7643 48.6613 84.7536 48.608C84.7003 48.48 84.631 48.256 84.5456 47.936C84.471 47.616 84.3803 47.2907 84.2736 46.96C84.1776 46.6293 84.0656 46.3413 83.9376 46.096C83.8096 45.8507 83.6656 45.7387 83.5056 45.76C83.3136 45.7707 83.143 45.9147 82.9936 46.192C82.8656 46.416 82.7323 46.6667 82.5936 46.944C82.4656 47.2107 82.3376 47.488 82.2096 47.776C82.0816 48.0533 81.9536 48.336 81.8256 48.624C81.7083 48.9013 81.5963 49.1573 81.4896 49.392C81.415 49.4667 81.319 49.52 81.2016 49.552C81.095 49.5733 80.983 49.5627 80.8656 49.52C80.759 49.488 80.6736 49.4347 80.6096 49.36C80.5456 49.2853 80.5136 49.2107 80.5136 49.136C80.4176 48.304 80.3163 47.5467 80.2096 46.864C80.1136 46.1813 79.9856 45.4827 79.8256 44.768C79.751 44.5227 79.735 44.3307 79.7776 44.192C79.831 44.0427 79.991 43.984 80.2576 44.016C80.631 44.08 80.8603 44.3147 80.9456 44.72ZM90.3829 44.416C90.7029 44.5333 90.9695 44.7093 91.1829 44.944C91.4069 45.1787 91.5775 45.4453 91.6949 45.744C91.8122 46.032 91.8762 46.3307 91.8869 46.64C91.9082 46.9493 91.8762 47.2373 91.7909 47.504C91.6735 47.8027 91.5242 48.096 91.3429 48.384C91.1615 48.672 90.9535 48.928 90.7189 49.152C90.4842 49.376 90.2175 49.5573 89.9189 49.696C89.6202 49.8347 89.2895 49.904 88.9269 49.904C88.4895 49.904 88.1215 49.8027 87.8229 49.6C87.5242 49.3973 87.2895 49.136 87.1189 48.816C86.9482 48.496 86.8362 48.1333 86.7829 47.728C86.7402 47.3227 86.7509 46.9173 86.8149 46.512C86.8575 46.2133 86.9269 45.9253 87.0229 45.648C87.1295 45.36 87.2629 45.1093 87.4229 44.896C87.5829 44.672 87.7642 44.4907 87.9669 44.352C88.1802 44.2133 88.4202 44.144 88.6869 44.144C88.8362 44.144 89.0229 44.176 89.2469 44.24C89.4709 44.2933 89.6789 44.3733 89.8709 44.48C90.0095 44.352 90.1802 44.3307 90.3829 44.416ZM89.7749 45.584C89.6575 45.5093 89.5189 45.4133 89.3589 45.296C89.2095 45.168 89.0762 45.104 88.9589 45.104C88.8309 45.104 88.7029 45.1627 88.5749 45.28C88.4575 45.3973 88.3509 45.536 88.2549 45.696C88.1695 45.8453 88.0949 46 88.0309 46.16C87.9669 46.32 87.9242 46.448 87.9029 46.544C87.8709 46.704 87.8495 46.896 87.8389 47.12C87.8282 47.344 87.8442 47.568 87.8869 47.792C87.9295 48.0053 88.0095 48.2027 88.1269 48.384C88.2549 48.5547 88.4415 48.6773 88.6869 48.752C88.8362 48.7947 89.0122 48.7947 89.2149 48.752C89.4175 48.6987 89.6149 48.608 89.8069 48.48C90.0095 48.352 90.1962 48.1813 90.3669 47.968C90.5482 47.7547 90.6869 47.5093 90.7829 47.232C90.8895 46.9227 90.8895 46.6027 90.7829 46.272C90.6869 45.9307 90.4842 45.6853 90.1749 45.536C90.1002 45.5893 90.0255 45.616 89.9509 45.616C89.8762 45.616 89.8175 45.6053 89.7749 45.584ZM97.9556 44.48C97.7636 44.5867 97.561 44.6987 97.3476 44.816C97.145 44.9333 96.937 45.072 96.7236 45.232C96.521 45.3813 96.3236 45.5627 96.1316 45.776C95.9503 45.9787 95.785 46.224 95.6356 46.512C95.4223 46.9173 95.2783 47.3333 95.2036 47.76C95.129 48.176 95.081 48.5867 95.0596 48.992C95.0596 49.184 95.0116 49.3813 94.9156 49.584C94.8303 49.776 94.7076 49.872 94.5476 49.872C94.345 49.872 94.1796 49.7707 94.0516 49.568C93.9343 49.3547 93.8543 49.152 93.8116 48.96C93.6303 48.2027 93.481 47.456 93.3636 46.72C93.2463 45.9733 93.145 45.232 93.0596 44.496C93.0596 44.3467 93.1023 44.2507 93.1876 44.208C93.2836 44.1653 93.3903 44.1493 93.5076 44.16C93.6356 44.1707 93.7583 44.2027 93.8756 44.256C93.993 44.3093 94.0623 44.3947 94.0836 44.512C94.1263 44.9067 94.1796 45.3227 94.2436 45.76C94.3076 46.1867 94.3716 46.5547 94.4356 46.864C94.4783 46.5013 94.5956 46.1493 94.7876 45.808C94.9796 45.4667 95.2143 45.1573 95.4916 44.88C95.7796 44.6027 96.0996 44.368 96.4516 44.176C96.8143 43.984 97.1823 43.856 97.5556 43.792C97.7156 43.7707 97.849 43.7707 97.9556 43.792C98.0623 43.8133 98.137 43.8507 98.1796 43.904C98.2223 43.9573 98.2276 44.0427 98.1956 44.16C98.1743 44.2773 98.0943 44.384 97.9556 44.48ZM99.8816 44.832C99.8923 45.0027 99.9083 45.216 99.9296 45.472C99.9616 45.7173 99.9936 45.9787 100.026 46.256C100.058 46.5227 100.09 46.7893 100.122 47.056C100.164 47.3227 100.202 47.568 100.234 47.792C100.351 47.5573 100.495 47.2693 100.666 46.928C100.836 46.5867 101.012 46.2613 101.194 45.952C101.386 45.632 101.578 45.3653 101.77 45.152C101.972 44.928 102.154 44.816 102.314 44.816C102.484 44.816 102.639 44.9013 102.778 45.072C102.927 45.232 103.055 45.4293 103.162 45.664C103.268 45.8987 103.359 46.1493 103.434 46.416C103.519 46.6827 103.588 46.9173 103.642 47.12C103.684 46.9813 103.738 46.8267 103.802 46.656C103.876 46.4747 103.951 46.2933 104.026 46.112C104.111 45.92 104.202 45.7333 104.298 45.552C104.404 45.3707 104.516 45.2107 104.634 45.072C104.772 44.9227 104.922 44.816 105.082 44.752C105.242 44.6773 105.359 44.64 105.434 44.64C105.53 44.64 105.642 44.672 105.77 44.736C105.908 44.7893 106.047 44.864 106.186 44.96C106.324 45.056 106.452 45.1733 106.57 45.312C106.698 45.44 106.799 45.5733 106.874 45.712C107.023 46 107.14 46.3147 107.226 46.656C107.322 46.9973 107.391 47.3227 107.434 47.632C107.476 47.9413 107.503 48.2187 107.514 48.464C107.535 48.6987 107.551 48.864 107.562 48.96C107.562 49.0987 107.546 49.2053 107.514 49.28C107.482 49.344 107.423 49.3973 107.338 49.44C107.22 49.4933 107.119 49.5147 107.034 49.504C106.948 49.4827 106.879 49.4453 106.826 49.392C106.772 49.3387 106.73 49.28 106.698 49.216C106.666 49.1413 106.644 49.0773 106.634 49.024C106.602 48.7787 106.564 48.528 106.522 48.272C106.49 48.016 106.452 47.7707 106.41 47.536C106.367 47.2907 106.314 47.0667 106.25 46.864C106.196 46.6507 106.138 46.464 106.074 46.304C106.052 46.2613 106.015 46.208 105.962 46.144C105.919 46.0693 105.866 46 105.802 45.936C105.748 45.872 105.695 45.8187 105.642 45.776C105.588 45.7333 105.551 45.7067 105.53 45.696C105.423 45.696 105.311 45.7973 105.194 46C105.076 46.192 104.964 46.4267 104.858 46.704C104.751 46.9813 104.65 47.2747 104.554 47.584C104.468 47.8827 104.404 48.1387 104.362 48.352C104.362 48.6293 104.308 48.8373 104.202 48.976C104.095 49.104 103.983 49.168 103.866 49.168C103.748 49.168 103.62 49.1253 103.482 49.04C103.354 48.944 103.268 48.8373 103.226 48.72C103.162 48.5493 103.092 48.3573 103.018 48.144C102.943 47.9307 102.863 47.712 102.778 47.488C102.703 47.264 102.623 47.0453 102.538 46.832C102.463 46.6187 102.388 46.4267 102.314 46.256C102.164 46.4587 102.015 46.6827 101.866 46.928C101.727 47.1733 101.588 47.424 101.45 47.68C101.322 47.936 101.194 48.192 101.066 48.448C100.948 48.6933 100.836 48.912 100.73 49.104C100.655 49.2213 100.575 49.328 100.49 49.424C100.404 49.5093 100.303 49.552 100.186 49.552C100.1 49.552 100.01 49.5147 99.9136 49.44C99.8176 49.3547 99.727 49.2533 99.6416 49.136C99.5563 49.0187 99.4763 48.8853 99.4016 48.736C99.3376 48.5867 99.2896 48.4373 99.2576 48.288C99.1723 47.8293 99.0976 47.328 99.0336 46.784C98.9803 46.2293 98.927 45.6907 98.8736 45.168C98.863 44.9867 98.8843 44.8213 98.9376 44.672C99.0016 44.512 99.119 44.4053 99.2896 44.352C99.471 44.32 99.6096 44.3467 99.7056 44.432C99.8016 44.5173 99.8603 44.6507 99.8816 44.832ZM112.859 44.08C112.902 44.3787 112.934 44.6987 112.955 45.04C112.987 45.3707 113.008 45.7067 113.019 46.048C113.04 46.3893 113.051 46.72 113.051 47.04C113.051 47.36 113.046 47.648 113.035 47.904C113.376 48.1387 113.579 48.3467 113.643 48.528C113.718 48.7093 113.728 48.8693 113.675 49.008C113.611 49.2 113.494 49.3013 113.323 49.312C113.163 49.312 112.976 49.2533 112.763 49.136C112.614 49.2427 112.443 49.36 112.251 49.488C112.059 49.6053 111.856 49.7227 111.643 49.84C111.43 49.9467 111.216 50.0427 111.003 50.128C110.79 50.2133 110.592 50.272 110.411 50.304C110.07 50.3573 109.76 50.2933 109.483 50.112C109.216 49.9307 109.035 49.6587 108.939 49.296C108.875 49.0507 108.859 48.8 108.891 48.544C108.923 48.2773 109.003 48.0267 109.131 47.792C109.259 47.5467 109.43 47.328 109.643 47.136C109.867 46.944 110.128 46.7947 110.427 46.688C110.502 46.656 110.603 46.6293 110.731 46.608C110.87 46.5867 111.008 46.5813 111.147 46.592C111.296 46.592 111.446 46.6187 111.595 46.672C111.744 46.7253 111.883 46.816 112.011 46.944C112.011 46.7627 112.006 46.5653 111.995 46.352C111.995 46.128 111.99 45.904 111.979 45.68C111.968 45.456 111.952 45.248 111.931 45.056C111.92 44.8533 111.904 44.6827 111.883 44.544C111.862 44.384 111.798 44.288 111.691 44.256C111.595 44.2133 111.472 44.2187 111.323 44.272C111.067 44.3573 110.768 44.5227 110.427 44.768C110.086 45.0133 109.76 45.2747 109.451 45.552C109.355 45.648 109.243 45.6907 109.115 45.68C108.998 45.6693 108.896 45.6213 108.811 45.536C108.726 45.4507 108.678 45.3547 108.667 45.248C108.656 45.1307 108.699 45.008 108.795 44.88C108.976 44.688 109.179 44.4907 109.403 44.288C109.627 44.0853 109.862 43.904 110.107 43.744C110.352 43.5733 110.603 43.4347 110.859 43.328C111.115 43.2213 111.371 43.1627 111.627 43.152C112 43.1413 112.288 43.2267 112.491 43.408C112.694 43.5787 112.816 43.8027 112.859 44.08ZM111.003 47.52C110.864 47.552 110.715 47.6213 110.555 47.728C110.406 47.824 110.267 47.9467 110.139 48.096C110.022 48.2347 109.931 48.3947 109.867 48.576C109.814 48.7467 109.814 48.9173 109.867 49.088C109.888 49.152 109.931 49.2 109.995 49.232C110.07 49.264 110.15 49.2693 110.235 49.248C110.491 49.1947 110.779 49.0933 111.099 48.944C111.43 48.784 111.691 48.6133 111.883 48.432C111.883 48.368 111.851 48.288 111.787 48.192C111.723 48.0853 111.648 47.984 111.563 47.888C111.478 47.7813 111.382 47.6907 111.275 47.616C111.179 47.5413 111.088 47.5093 111.003 47.52ZM115.633 44.72C115.665 44.88 115.697 45.0613 115.729 45.264C115.772 45.456 115.814 45.6587 115.857 45.872C115.9 46.0747 115.937 46.2827 115.969 46.496C116.001 46.7093 116.028 46.912 116.049 47.104C116.177 46.8267 116.316 46.5333 116.465 46.224C116.614 45.9147 116.774 45.632 116.945 45.376C117.126 45.1093 117.313 44.8907 117.505 44.72C117.708 44.5493 117.926 44.464 118.161 44.464C118.513 44.464 118.806 44.592 119.041 44.848C119.286 45.104 119.489 45.424 119.649 45.808C119.82 46.1813 119.953 46.576 120.049 46.992C120.145 47.408 120.225 47.776 120.289 48.096C120.353 48.384 120.225 48.5973 119.905 48.736C119.756 48.8107 119.644 48.8213 119.569 48.768C119.494 48.7147 119.452 48.6613 119.441 48.608C119.388 48.48 119.318 48.256 119.233 47.936C119.158 47.616 119.068 47.2907 118.961 46.96C118.865 46.6293 118.753 46.3413 118.625 46.096C118.497 45.8507 118.353 45.7387 118.193 45.76C118.001 45.7707 117.83 45.9147 117.681 46.192C117.553 46.416 117.42 46.6667 117.281 46.944C117.153 47.2107 117.025 47.488 116.897 47.776C116.769 48.0533 116.641 48.336 116.513 48.624C116.396 48.9013 116.284 49.1573 116.177 49.392C116.102 49.4667 116.006 49.52 115.889 49.552C115.782 49.5733 115.67 49.5627 115.553 49.52C115.446 49.488 115.361 49.4347 115.297 49.36C115.233 49.2853 115.201 49.2107 115.201 49.136C115.105 48.304 115.004 47.5467 114.897 46.864C114.801 46.1813 114.673 45.4827 114.513 44.768C114.438 44.5227 114.422 44.3307 114.465 44.192C114.518 44.0427 114.678 43.984 114.945 44.016C115.318 44.08 115.548 44.3147 115.633 44.72Z" fill="black"/>
<rect x="0.5" y="0.5" width="201" height="139" stroke="black"/>
<path d="M1 1L100.5 94.5L201.5 0.5" stroke="black"/>
<path d="M70.5 66.5L0.5 139.5" stroke="black"/>
<path d="M131 66L201 139" stroke="black"/>
<mask id="path-6-outside-1" maskUnits="userSpaceOnUse" x="73" y="64" width="57" height="52" fill="black">
<rect fill="white" x="73" y="64" width="57" height="52"/>
<path fill-rule="evenodd" clip-rule="evenodd" d="M87.8054 65C92.8621 65 96.9614 70.9567 96.9614 78.3047C96.9614 79.447 96.8623 80.5556 96.676 81.6135C98.1529 81.4603 99.6701 81.3805 101.217 81.3805C102.663 81.3805 104.082 81.4501 105.467 81.5842C105.284 80.5352 105.187 79.4364 105.187 78.3047C105.187 70.9567 109.271 65 114.308 65C119.345 65 123.428 70.9567 123.428 78.3047C123.428 81.5556 122.629 84.5341 121.301 86.845C125.732 89.835 128.435 93.8177 128.435 98.1903C128.435 107.474 116.249 115 101.217 115C86.1857 115 74 107.474 74 98.1903C74 93.9003 76.602 89.9857 80.8845 87.0155C79.4921 84.6815 78.6495 81.6361 78.6495 78.3047C78.6495 70.9567 82.7488 65 87.8054 65Z"/>
</mask>
<path fill-rule="evenodd" clip-rule="evenodd" d="M87.8054 65C92.8621 65 96.9614 70.9567 96.9614 78.3047C96.9614 79.447 96.8623 80.5556 96.676 81.6135C98.1529 81.4603 99.6701 81.3805 101.217 81.3805C102.663 81.3805 104.082 81.4501 105.467 81.5842C105.284 80.5352 105.187 79.4364 105.187 78.3047C105.187 70.9567 109.271 65 114.308 65C119.345 65 123.428 70.9567 123.428 78.3047C123.428 81.5556 122.629 84.5341 121.301 86.845C125.732 89.835 128.435 93.8177 128.435 98.1903C128.435 107.474 116.249 115 101.217 115C86.1857 115 74 107.474 74 98.1903C74 93.9003 76.602 89.9857 80.8845 87.0155C79.4921 84.6815 78.6495 81.6361 78.6495 78.3047C78.6495 70.9567 82.7488 65 87.8054 65Z" fill="#EFEDE9"/>
<path d="M96.676 81.6135L95.6912 81.44L95.4613 82.7449L96.7792 82.6082L96.676 81.6135ZM105.467 81.5842L105.37 82.5795L106.676 82.706L106.452 81.413L105.467 81.5842ZM121.301 86.845L120.434 86.3469L119.971 87.1535L120.742 87.6739L121.301 86.845ZM80.8845 87.0155L81.4544 87.8373L82.2217 87.3051L81.7433 86.5032L80.8845 87.0155ZM97.9614 78.3047C97.9614 74.4543 96.889 70.9247 95.1035 68.33C93.3209 65.7396 90.7574 64 87.8054 64V66C89.9101 66 91.9247 67.2387 93.4559 69.4638C94.9841 71.6844 95.9614 74.8071 95.9614 78.3047H97.9614ZM97.6608 81.787C97.8573 80.6713 97.9614 79.5047 97.9614 78.3047H95.9614C95.9614 79.3893 95.8673 80.4399 95.6912 81.44L97.6608 81.787ZM101.217 80.3805C99.6358 80.3805 98.0841 80.4621 96.5728 80.6188L96.7792 82.6082C98.2216 82.4585 99.7044 82.3805 101.217 82.3805V80.3805ZM105.563 80.5888C104.146 80.4517 102.695 80.3805 101.217 80.3805V82.3805C102.631 82.3805 104.018 82.4486 105.37 82.5795L105.563 80.5888ZM106.452 81.413C106.279 80.421 106.187 79.3795 106.187 78.3047H104.187C104.187 79.4934 104.289 80.6494 104.481 81.7554L106.452 81.413ZM106.187 78.3047C106.187 74.8063 107.161 71.6831 108.683 69.4623C110.209 67.2368 112.215 66 114.308 66V64C111.364 64 108.809 65.7416 107.034 68.3315C105.255 70.926 104.187 74.4551 104.187 78.3047H106.187ZM114.308 66C116.401 66 118.406 67.2368 119.932 69.4623C121.454 71.6831 122.428 74.8063 122.428 78.3047H124.428C124.428 74.4551 123.36 70.926 121.581 68.3315C119.806 65.7416 117.251 64 114.308 64V66ZM122.428 78.3047C122.428 81.3976 121.666 84.2016 120.434 86.3469L122.168 87.3431C123.591 84.8667 124.428 81.7135 124.428 78.3047H122.428ZM129.435 98.1903C129.435 93.3712 126.456 89.1175 121.861 86.0161L120.742 87.6739C125.007 90.5525 127.435 94.2642 127.435 98.1903H129.435ZM101.217 116C108.889 116 115.881 114.082 120.989 110.927C126.08 107.783 129.435 103.307 129.435 98.1903H127.435C127.435 102.357 124.697 106.286 119.938 109.226C115.194 112.155 108.578 114 101.217 114V116ZM73 98.1903C73 103.307 76.3547 107.783 81.4463 110.927C86.5536 114.082 93.5463 116 101.217 116V114C93.8568 114 87.2408 112.155 82.4973 109.226C77.7381 106.286 75 102.357 75 98.1903H73ZM80.3146 86.1938C75.8677 89.278 73 93.4626 73 98.1903H75C75 94.338 77.3363 90.6934 81.4544 87.8373L80.3146 86.1938ZM77.6495 78.3047C77.6495 81.7982 78.532 85.024 80.0257 87.5279L81.7433 86.5032C80.4522 84.3391 79.6495 81.474 79.6495 78.3047H77.6495ZM87.8054 64C84.8534 64 82.29 65.7396 80.5074 68.33C78.7218 70.9247 77.6495 74.4543 77.6495 78.3047H79.6495C79.6495 74.8071 80.6268 71.6844 82.155 69.4638C83.6862 67.2387 85.7008 66 87.8054 66V64Z" fill="black" mask="url(#path-6-outside-1)"/>
<path d="M100.216 109.277C105.908 109.277 111.108 108.303 114.9 106.918C116.793 106.226 118.358 105.423 119.46 104.571C120.539 103.737 121.281 102.769 121.281 101.731C121.281 101.473 121.234 101.223 121.115 101C120.993 100.772 120.811 100.603 120.592 100.488C120.181 100.273 119.65 100.254 119.106 100.306C118.019 100.41 116.481 100.849 114.673 101.365L114.591 101.388C110.856 102.453 105.777 103.895 100.216 103.895C94.6548 103.895 89.54 102.453 85.7683 101.388L85.7109 101.371C83.874 100.853 82.31 100.411 81.2046 100.306C80.6542 100.254 80.119 100.273 79.7052 100.487C79.4853 100.601 79.3013 100.769 79.1772 100.997C79.0558 101.221 79.0079 101.472 79.0079 101.731C79.0079 102.772 79.7635 103.74 80.8539 104.573C81.9689 105.425 83.5512 106.227 85.4623 106.918C89.2893 108.303 94.5245 109.277 100.216 109.277Z" stroke="black"/>
<path d="M120.351 78.4835C120.351 76.4104 119.775 74.5116 118.818 73.1173C117.862 71.7251 116.491 70.7947 114.916 70.7947C113.34 70.7947 111.969 71.7251 111.013 73.1173C110.056 74.5116 109.48 76.4104 109.48 78.4835C109.48 80.5566 110.056 82.4554 111.013 83.8498C111.969 85.2419 113.34 86.1724 114.916 86.1724C116.491 86.1724 117.862 85.2419 118.818 83.8498C119.775 82.4554 120.351 80.5566 120.351 78.4835Z" stroke="black"/>
<path d="M92.5258 78.6266C92.5258 76.5535 91.9497 74.6547 90.9923 73.2603C90.0366 71.8682 88.6654 70.9378 87.0901 70.9378C85.5148 70.9378 84.1437 71.8682 83.1879 73.2603C82.2306 74.6547 81.6545 76.5535 81.6545 78.6266C81.6545 80.6997 82.2306 82.5985 83.1879 83.9929C84.1437 85.385 85.5148 86.3154 87.0901 86.3154C88.6654 86.3154 90.0366 85.385 90.9923 83.9929C91.9497 82.5985 92.5258 80.6997 92.5258 78.6266Z" stroke="black"/>
<ellipse cx="86.8755" cy="79.5923" rx="3.14735" ry="2.93276" transform="rotate(-90 86.8755 79.5923)" fill="black"/>
<ellipse cx="114.773" cy="79.5923" rx="3.14735" ry="2.93276" transform="rotate(-90 114.773 79.5923)" fill="black"/>
</svg>
