<svg width="202" height="140" viewBox="0 0 202 140" fill="#EFEDE9" xmlns="http://www.w3.org/2000/svg">
<path d="M96.2043 44.192C96.0336 44.48 95.8629 44.7627 95.6923 45.04C95.5216 45.3173 95.3349 45.6373 95.1323 46C94.9403 46.352 94.7163 46.7627 94.4603 47.232C94.2043 47.7013 93.9056 48.272 93.5643 48.944C93.4789 49.104 93.3936 49.232 93.3083 49.328C93.2229 49.424 93.1216 49.472 93.0043 49.472C92.8443 49.472 92.7163 49.4293 92.6203 49.344C92.5349 49.248 92.4603 49.1467 92.3963 49.04C92.0443 48.4533 91.6976 47.8027 91.3563 47.088C91.0149 46.3733 90.7376 45.6747 90.5243 44.992C90.5029 44.9387 90.5029 44.88 90.5243 44.816C90.5563 44.7413 90.5989 44.6933 90.6523 44.672C90.7589 44.6187 90.8976 44.6133 91.0683 44.656C91.1963 44.7093 91.3243 44.8053 91.4523 44.944C91.5803 45.0827 91.6816 45.2267 91.7563 45.376C91.8203 45.5253 91.8949 45.696 91.9803 45.888C92.0656 46.08 92.1563 46.288 92.2523 46.512C92.3589 46.7253 92.4656 46.9387 92.5723 47.152C92.6789 47.3653 92.7856 47.5573 92.8923 47.728C93.0736 47.408 93.2656 47.0667 93.4683 46.704C93.6816 46.3307 93.8949 45.9573 94.1083 45.584C94.3216 45.2 94.5349 44.832 94.7483 44.48C94.9723 44.128 95.1909 43.8133 95.4043 43.536C95.4576 43.4613 95.5323 43.4187 95.6283 43.408C95.7243 43.3973 95.8309 43.4347 95.9483 43.52C96.2149 43.7227 96.3003 43.9467 96.2043 44.192ZM99.969 43.472C99.9477 43.5787 99.873 43.6373 99.745 43.648C99.617 43.6587 99.5103 43.664 99.425 43.664C99.1583 43.6747 98.881 43.7013 98.593 43.744C98.3157 43.7867 98.0223 43.8507 97.713 43.936C97.585 43.9787 97.4463 43.9627 97.297 43.888C97.1477 43.8133 97.057 43.664 97.025 43.44C97.025 43.3547 97.057 43.2853 97.121 43.232C97.185 43.1787 97.2597 43.1307 97.345 43.088C97.4837 43.024 97.649 42.9707 97.841 42.928C98.033 42.8747 98.225 42.8373 98.417 42.816C98.6197 42.7947 98.8117 42.7893 98.993 42.8C99.1743 42.8 99.3237 42.816 99.441 42.848C99.6117 42.9013 99.745 42.9813 99.841 43.088C99.9477 43.1947 99.9903 43.3227 99.969 43.472ZM99.601 48.8C99.6757 48.9707 99.713 49.1573 99.713 49.36C99.7237 49.552 99.6703 49.6853 99.553 49.76C99.4037 49.856 99.2437 49.8507 99.073 49.744C98.9023 49.6373 98.7743 49.4933 98.689 49.312C98.5717 49.088 98.481 48.816 98.417 48.496C98.353 48.1653 98.305 47.84 98.273 47.52C98.241 47.2 98.2197 46.9013 98.209 46.624C98.209 46.3467 98.209 46.1387 98.209 46C98.2197 45.8507 98.2623 45.712 98.337 45.584C98.4117 45.456 98.5077 45.3813 98.625 45.36C98.817 45.3707 98.9717 45.4613 99.089 45.632C99.2063 45.792 99.2597 45.9947 99.249 46.24C99.249 46.432 99.2543 46.6453 99.265 46.88C99.2757 47.1147 99.297 47.3493 99.329 47.584C99.361 47.8187 99.3983 48.048 99.441 48.272C99.4837 48.4853 99.537 48.6613 99.601 48.8ZM106.548 44.192C106.377 44.48 106.207 44.7627 106.036 45.04C105.865 45.3173 105.679 45.6373 105.476 46C105.284 46.352 105.06 46.7627 104.804 47.232C104.548 47.7013 104.249 48.272 103.908 48.944C103.823 49.104 103.737 49.232 103.652 49.328C103.567 49.424 103.465 49.472 103.348 49.472C103.188 49.472 103.06 49.4293 102.964 49.344C102.879 49.248 102.804 49.1467 102.74 49.04C102.388 48.4533 102.041 47.8027 101.7 47.088C101.359 46.3733 101.081 45.6747 100.868 44.992C100.847 44.9387 100.847 44.88 100.868 44.816C100.9 44.7413 100.943 44.6933 100.996 44.672C101.103 44.6187 101.241 44.6133 101.412 44.656C101.54 44.7093 101.668 44.8053 101.796 44.944C101.924 45.0827 102.025 45.2267 102.1 45.376C102.164 45.5253 102.239 45.696 102.324 45.888C102.409 46.08 102.5 46.288 102.596 46.512C102.703 46.7253 102.809 46.9387 102.916 47.152C103.023 47.3653 103.129 47.5573 103.236 47.728C103.417 47.408 103.609 47.0667 103.812 46.704C104.025 46.3307 104.239 45.9573 104.452 45.584C104.665 45.2 104.879 44.832 105.092 44.48C105.316 44.128 105.535 43.8133 105.748 43.536C105.801 43.4613 105.876 43.4187 105.972 43.408C106.068 43.3973 106.175 43.4347 106.292 43.52C106.559 43.7227 106.644 43.9467 106.548 44.192ZM110.313 43.472C110.291 43.5787 110.217 43.6373 110.089 43.648C109.961 43.6587 109.854 43.664 109.769 43.664C109.502 43.6747 109.225 43.7013 108.937 43.744C108.659 43.7867 108.366 43.8507 108.057 43.936C107.929 43.9787 107.79 43.9627 107.641 43.888C107.491 43.8133 107.401 43.664 107.369 43.44C107.369 43.3547 107.401 43.2853 107.465 43.232C107.529 43.1787 107.603 43.1307 107.689 43.088C107.827 43.024 107.993 42.9707 108.185 42.928C108.377 42.8747 108.569 42.8373 108.761 42.816C108.963 42.7947 109.155 42.7893 109.337 42.8C109.518 42.8 109.667 42.816 109.785 42.848C109.955 42.9013 110.089 42.9813 110.185 43.088C110.291 43.1947 110.334 43.3227 110.313 43.472ZM109.945 48.8C110.019 48.9707 110.057 49.1573 110.057 49.36C110.067 49.552 110.014 49.6853 109.897 49.76C109.747 49.856 109.587 49.8507 109.417 49.744C109.246 49.6373 109.118 49.4933 109.033 49.312C108.915 49.088 108.825 48.816 108.761 48.496C108.697 48.1653 108.649 47.84 108.617 47.52C108.585 47.2 108.563 46.9013 108.553 46.624C108.553 46.3467 108.553 46.1387 108.553 46C108.563 45.8507 108.606 45.712 108.681 45.584C108.755 45.456 108.851 45.3813 108.969 45.36C109.161 45.3707 109.315 45.4613 109.433 45.632C109.55 45.792 109.603 45.9947 109.593 46.24C109.593 46.432 109.598 46.6453 109.609 46.88C109.619 47.1147 109.641 47.3493 109.673 47.584C109.705 47.8187 109.742 48.048 109.785 48.272C109.827 48.4853 109.881 48.6613 109.945 48.8Z" fill="black"/>
<rect x="0.5" y="0.5" width="201" height="139" stroke="black"/>
<path d="M1 1L100.5 94.5L201.5 0.5" stroke="black"/>
<path d="M70.5 66.5L0.5 139.5" stroke="black"/>
<path d="M131 66L201 139" stroke="black"/>
<path d="M145.434 109.331C145.571 109.316 145.67 109.192 145.655 109.055C145.639 108.918 145.516 108.819 145.379 108.834L145.434 109.331ZM146.581 108.654C146.444 108.67 146.346 108.795 146.363 108.932C146.38 109.069 146.505 109.167 146.642 109.15L146.581 108.654ZM133.173 109.375C127.424 109.375 122.224 109.038 118.466 108.495C116.585 108.223 115.076 107.901 114.043 107.548C113.525 107.371 113.141 107.191 112.891 107.015C112.633 106.833 112.574 106.695 112.574 106.612H112.074C112.074 106.945 112.305 107.213 112.603 107.423C112.909 107.639 113.344 107.838 113.881 108.021C114.958 108.389 116.502 108.716 118.394 108.99C122.182 109.537 127.407 109.875 133.173 109.875V109.375ZM112.574 106.612C112.574 106.526 112.633 106.388 112.883 106.207C113.126 106.032 113.5 105.852 114.007 105.675C115.017 105.322 116.496 105 118.347 104.729C122.044 104.186 127.184 103.849 132.933 103.849V103.349C127.168 103.349 122.003 103.687 118.274 104.234C116.412 104.507 114.897 104.835 113.842 105.203C113.316 105.387 112.89 105.585 112.59 105.802C112.298 106.014 112.074 106.282 112.074 106.612H112.574ZM132.933 103.849C138.682 103.849 143.882 104.186 147.64 104.729C149.521 105.001 151.03 105.323 152.063 105.676C152.581 105.853 152.965 106.033 153.214 106.209C153.472 106.391 153.532 106.529 153.532 106.612H154.032C154.032 106.279 153.8 106.011 153.503 105.801C153.197 105.584 152.761 105.386 152.225 105.203C151.148 104.835 149.604 104.508 147.711 104.234C143.923 103.687 138.699 103.349 132.933 103.349V103.849ZM145.379 108.834C141.945 109.214 137.885 109.375 133.173 109.375V109.875C137.895 109.875 141.975 109.714 145.434 109.331L145.379 108.834ZM153.532 106.612C153.532 106.716 153.457 106.875 153.157 107.077C152.866 107.272 152.419 107.469 151.814 107.66C150.607 108.04 148.832 108.378 146.581 108.654L146.642 109.15C148.904 108.873 150.714 108.531 151.964 108.137C152.588 107.94 153.087 107.726 153.436 107.492C153.776 107.263 154.032 106.973 154.032 106.612H153.532Z" fill="black"/>
<path d="M153.782 106.612C153.782 120.19 146.19 131.198 133.053 131.198C119.916 131.198 112.324 120.19 112.324 106.612" stroke="black" stroke-width="0.5"/>
<path d="M153.782 110.85C155.168 109.223 159.266 108.681 159.929 112.658C160.592 116.635 156.494 121.85 153.3 122.781C151.974 123.168 150.408 122.54 150.046 121.878" stroke="black" stroke-width="0.5" stroke-linecap="round"/>
<path d="M141.068 113.255C141.681 112.203 142.264 110.115 142.996 108.781C144.02 106.913 145.684 106.913 146.114 109.626C146.694 113.296 144.884 120.413 144.582 121.986C144.28 123.559 144.405 127.29 144.996 128.59" stroke="black" stroke-width="0.25"/>
<path d="M143.465 129.87C143.885 129.766 145.559 127.992 146.343 127.118C147.86 128.208 150.167 128.876 151.131 129.074L148.48 132.445C146.657 132.311 144.377 130.672 143.465 129.87Z" fill="#EFEDE9" stroke="black" stroke-width="0.25"/>
<path d="M142.993 114.81L139.323 111.783C138.391 112.316 136.031 112.37 134.967 112.331C132.686 115.205 127.926 118.889 126.217 119.549C126.639 121.884 131.031 125.202 133.174 126.569C133.912 126.433 139.393 121.979 142.042 119.768C141.791 118.811 142.572 116.064 142.993 114.81Z" fill="#EFEDE9" stroke="black" stroke-width="0.25"/>
<path d="M142.993 114.81C142.787 115.973 142.516 118.792 142.771 119.315L135.697 126.558L134.989 126.126L133.231 126.53" stroke="black" stroke-width="0.25"/>
<path d="M110.094 77.3257C110.295 79.937 111.239 85.9308 113.167 87.5699C113.81 88.9759 115.361 91.9327 116.421 92.5112C118.39 94.0779 121.989 98.6818 120.639 104.563C120.037 108.179 119.073 116.012 120.037 118.423C121.604 121.797 125.195 128.547 127.027 128.547L127.388 128.064C126.545 128.737 120.037 119.327 119.647 115.952M121.724 117.218C123.893 121.617 126.123 125.353 127.63 126.859L127.388 127.221C123.411 122.34 121.628 118.085 121.724 117.218ZM121.724 117.218C121.483 115.37 121.146 111.095 121.724 108.781L124.737 101.912C125.5 99.3808 127.027 93.8128 127.027 91.7881L124.014 78.4104" stroke="black" stroke-width="0.25"/>
<path d="M109.91 76.3454C109.966 76.1413 110.022 75.9168 109.729 76.0307C109.576 76.0903 109.573 76.2741 109.578 76.4124C109.583 76.5267 109.753 76.5173 109.833 76.4944C109.853 76.4885 109.587 76.4348 109.535 76.4375C109.417 76.4436 109.299 76.4998 109.234 76.6032C109.072 76.8569 109.41 76.9517 109.585 76.948C109.673 76.9462 109.906 76.9193 109.906 76.7857C109.906 76.7033 109.529 76.8971 109.496 76.9346C109.36 77.0939 109.369 77.3984 109.639 77.2828C109.79 77.218 109.935 77.0408 109.94 76.871C109.943 76.7598 109.829 77.0633 109.826 77.1054C109.815 77.2556 109.862 77.3699 110.02 77.3699C110.362 77.3699 110.457 76.9389 110.519 76.6668C110.623 76.2088 109.865 76.5025 109.947 76.8878C109.981 77.049 110.299 76.9756 110.404 76.9547C110.67 76.9015 110.836 76.6967 110.81 76.4258C110.783 76.1315 110.234 76.2284 110.124 76.4291C110.103 76.4669 110.013 76.7244 110.067 76.7606C110.095 76.7794 110.158 76.4843 110.131 76.4358C110.051 76.2927 109.779 76.338 109.66 76.3923C109.517 76.4583 109.536 76.592 109.552 76.7338C109.574 76.9398 109.777 77.0464 109.789 76.774C109.797 76.6071 109.787 76.8262 109.803 76.8811C109.827 76.9649 109.865 76.9782 109.94 76.9782" stroke="black" stroke-width="0.2" stroke-linecap="round" stroke-linejoin="round"/>
<path d="M125.094 86.3486C125.151 86.1444 125.206 85.92 124.913 86.0339C124.76 86.0935 124.758 86.2772 124.763 86.4155C124.767 86.5298 124.937 86.5204 125.017 86.4975C125.038 86.4916 124.771 86.438 124.719 86.4406C124.601 86.4467 124.484 86.5029 124.418 86.6063C124.257 86.8601 124.595 86.9548 124.77 86.9512C124.857 86.9493 125.091 86.9224 125.091 86.7888C125.091 86.7065 124.713 86.9002 124.681 86.9378C124.544 87.097 124.553 87.4015 124.823 87.2859C124.974 87.2211 125.12 87.044 125.124 86.8742C125.127 86.7629 125.014 87.0664 125.011 87.1085C125 87.2587 125.047 87.373 125.205 87.373C125.547 87.373 125.642 86.942 125.704 86.6699C125.808 86.2119 125.05 86.5056 125.131 86.8909C125.165 87.0522 125.484 86.9788 125.588 86.9579C125.854 86.9046 126.02 86.6998 125.995 86.4289C125.967 86.1346 125.418 86.2316 125.309 86.4323C125.288 86.47 125.197 86.7275 125.252 86.7637C125.28 86.7826 125.342 86.4874 125.315 86.4389C125.235 86.2958 124.963 86.3412 124.845 86.3954C124.701 86.4615 124.72 86.5951 124.736 86.7369C124.759 86.9429 124.961 87.0496 124.974 86.7771C124.981 86.6103 124.971 86.8294 124.987 86.8842C125.011 86.968 125.049 86.9813 125.124 86.9813" stroke="black" stroke-width="0.2" stroke-linecap="round" stroke-linejoin="round"/>
<path d="M126.754 86.8627C126.548 87.0302 126.328 87.2188 126.71 87.3157C126.91 87.3663 127.046 87.1807 127.141 87.0356C127.22 86.9157 127.04 86.8016 126.941 86.7667C126.916 86.7577 127.149 87.0065 127.204 87.0416C127.329 87.1215 127.49 87.1494 127.632 87.0917C127.982 86.9501 127.706 86.6073 127.524 86.4838C127.433 86.4217 127.175 86.2793 127.078 86.4157C127.018 86.4997 127.545 86.5769 127.605 86.562C127.86 86.4988 128.073 86.1812 127.713 86.103C127.512 86.059 127.234 86.1342 127.106 86.3041C127.022 86.4155 127.359 86.1884 127.393 86.1477C127.513 86.0024 127.548 85.8513 127.387 85.7363C127.038 85.4873 126.627 85.8583 126.366 86.0911C125.926 86.4831 126.914 86.7349 127.111 86.2822C127.194 86.0927 126.815 85.9359 126.693 85.8812C126.383 85.7418 126.065 85.8303 125.893 86.1253C125.707 86.4457 126.339 86.7466 126.596 86.6214C126.645 86.5978 126.925 86.4007 126.896 86.3244C126.88 86.2845 126.602 86.5404 126.594 86.6096C126.572 86.8138 126.883 86.9659 127.043 86.9964C127.238 87.0336 127.315 86.8832 127.403 86.7269C127.529 86.4999 127.4 86.2437 127.189 86.5129C127.06 86.6777 127.23 86.4613 127.253 86.3938C127.29 86.2906 127.261 86.2494 127.184 86.1947" stroke="black" stroke-width="0.2" stroke-linecap="round" stroke-linejoin="round"/>
<path d="M126.038 83.4868C125.986 83.2495 125.922 82.9921 125.678 83.2724C125.55 83.419 125.647 83.6054 125.728 83.7416C125.795 83.8541 125.967 83.7485 126.039 83.6802C126.057 83.6626 125.749 83.7594 125.696 83.7914C125.576 83.8644 125.484 83.9872 125.471 84.1285C125.44 84.4751 125.846 84.3792 126.026 84.2767C126.117 84.2251 126.347 84.066 126.274 83.9316C126.229 83.8488 125.94 84.2574 125.926 84.3134C125.87 84.5507 126.045 84.8521 126.265 84.5832C126.388 84.4324 126.443 84.172 126.356 83.9985C126.298 83.8849 126.344 84.2546 126.364 84.2987C126.434 84.4561 126.546 84.5443 126.711 84.455C127.069 84.2615 126.934 83.7743 126.85 83.4656C126.71 82.9459 126.077 83.67 126.372 84.0116C126.495 84.1545 126.788 83.9007 126.886 83.8205C127.136 83.6164 127.198 83.3166 127.024 83.0584C126.835 82.7777 126.313 83.186 126.308 83.4498C126.307 83.4994 126.352 83.8097 126.429 83.8155C126.469 83.8184 126.373 83.4863 126.319 83.4528C126.157 83.3539 125.897 83.5536 125.803 83.675C125.689 83.8227 125.781 83.9463 125.875 84.0801C126.011 84.2744 126.281 84.2672 126.145 83.9861C126.063 83.814 126.171 84.04 126.218 84.0863C126.288 84.1569 126.335 84.1488 126.414 84.1063" stroke="black" stroke-width="0.2" stroke-linecap="round" stroke-linejoin="round"/>
<path d="M124.877 83.911C125.088 84.0445 125.322 84.1844 125.293 83.8148C125.279 83.6216 125.072 83.5555 124.915 83.5141C124.784 83.4799 124.736 83.6749 124.735 83.7731C124.734 83.7984 124.886 83.516 124.901 83.4564C124.935 83.321 124.912 83.1694 124.817 83.0597C124.586 82.7906 124.364 83.1396 124.308 83.3382C124.28 83.438 124.23 83.7106 124.381 83.7564C124.474 83.7846 124.385 83.2918 124.353 83.2427C124.22 83.0341 123.874 82.9399 123.912 83.2839C123.933 83.4769 124.083 83.7014 124.273 83.7649C124.398 83.8065 124.094 83.5741 124.048 83.5562C123.882 83.4923 123.737 83.5064 123.683 83.6847C123.566 84.0707 124.019 84.3254 124.305 84.4883C124.786 84.7627 124.715 83.8068 124.252 83.7667C124.058 83.75 124.032 84.1343 124.02 84.2594C123.989 84.578 124.163 84.8351 124.477 84.8995C124.819 84.9695 124.898 84.3163 124.709 84.1241C124.673 84.0879 124.414 83.8975 124.354 83.9463C124.323 83.9718 124.635 84.1432 124.699 84.1293C124.888 84.0883 124.93 83.7654 124.909 83.6135C124.884 83.4288 124.726 83.4046 124.561 83.3738C124.321 83.3291 124.131 83.5209 124.434 83.6282C124.62 83.6939 124.376 83.6076 124.309 83.6066C124.206 83.6052 124.178 83.6434 124.152 83.7282" stroke="black" stroke-width="0.2" stroke-linecap="round" stroke-linejoin="round"/>
<path d="M125.886 80.8847C125.957 80.6332 126.028 80.3568 125.658 80.4971C125.464 80.5705 125.461 80.7968 125.467 80.9672C125.473 81.108 125.688 81.0964 125.789 81.0682C125.815 81.0609 125.478 80.9948 125.412 80.9981C125.263 81.0056 125.115 81.0748 125.032 81.2022C124.828 81.5147 125.255 81.6314 125.476 81.6269C125.587 81.6247 125.882 81.5915 125.882 81.4269C125.882 81.3255 125.404 81.5642 125.364 81.6104C125.191 81.8065 125.203 82.1817 125.544 82.0393C125.735 81.9594 125.918 81.7412 125.924 81.5321C125.928 81.3951 125.784 81.7689 125.78 81.8207C125.766 82.0058 125.826 82.1465 126.026 82.1465C126.458 82.1465 126.578 81.6157 126.656 81.2806C126.787 80.7164 125.83 81.0781 125.933 81.5527C125.976 81.7513 126.378 81.6609 126.51 81.6352C126.846 81.5696 127.056 81.3173 127.024 80.9837C126.989 80.6212 126.295 80.7406 126.157 80.9878C126.131 81.0343 126.016 81.3515 126.085 81.396C126.121 81.4193 126.199 81.0558 126.165 80.996C126.064 80.8198 125.72 80.8756 125.571 80.9424C125.389 81.0238 125.414 81.1883 125.434 81.363C125.462 81.6167 125.718 81.7481 125.734 81.4125C125.743 81.2071 125.731 81.4769 125.751 81.5445C125.781 81.6477 125.829 81.664 125.924 81.664" stroke="black" stroke-width="0.2" stroke-linecap="round" stroke-linejoin="round"/>
<path d="M123.73 81.3364C123.793 81.1029 123.855 80.8462 123.529 80.9765C123.358 81.0446 123.355 81.2548 123.361 81.413C123.366 81.5437 123.555 81.533 123.645 81.5068C123.668 81.5 123.37 81.4386 123.312 81.4417C123.181 81.4486 123.05 81.5129 122.977 81.6312C122.797 81.9214 123.174 82.0298 123.368 82.0256C123.466 82.0235 123.727 81.9927 123.727 81.8399C123.727 81.7457 123.305 81.9674 123.27 82.0103C123.117 82.1924 123.127 82.5407 123.428 82.4085C123.597 82.3343 123.759 82.1317 123.764 81.9375C123.767 81.8103 123.641 82.1574 123.637 82.2056C123.625 82.3774 123.677 82.5081 123.854 82.5081C124.235 82.5081 124.341 82.0152 124.41 81.704C124.526 81.1801 123.681 81.516 123.771 81.9567C123.81 82.1411 124.164 82.0572 124.281 82.0333C124.578 81.9724 124.762 81.7381 124.734 81.4283C124.704 81.0917 124.091 81.2026 123.969 81.4321C123.946 81.4753 123.845 81.7699 123.906 81.8112C123.937 81.8328 124.007 81.4952 123.977 81.4398C123.888 81.2761 123.584 81.3279 123.452 81.39C123.292 81.4655 123.314 81.6183 123.331 81.7806C123.357 82.0162 123.582 82.1382 123.596 81.8265C123.605 81.6357 123.593 81.8863 123.611 81.949C123.638 82.0449 123.68 82.0601 123.764 82.0601" stroke="black" stroke-width="0.2" stroke-linecap="round" stroke-linejoin="round"/>
<path d="M123.806 79.6536C124.016 79.6798 124.246 79.7027 124.091 79.4293C124.01 79.2863 123.828 79.31 123.692 79.3353C123.579 79.3561 123.613 79.5229 123.647 79.5989C123.656 79.6185 123.671 79.3469 123.66 79.2958C123.637 79.1798 123.565 79.0718 123.453 79.0216C123.179 78.8984 123.134 79.2466 123.162 79.4192C123.177 79.5059 123.237 79.733 123.37 79.7138C123.451 79.7019 123.205 79.3559 123.163 79.3295C122.986 79.2174 122.686 79.2702 122.839 79.5205C122.925 79.6609 123.121 79.779 123.29 79.7592C123.4 79.7462 123.084 79.6774 123.042 79.6804C122.891 79.6911 122.785 79.7543 122.808 79.9107C122.857 80.2492 123.297 80.2809 123.576 80.3028C124.044 80.3398 123.644 79.632 123.274 79.7683C123.12 79.8253 123.238 80.1297 123.274 80.2301C123.365 80.4859 123.592 80.6203 123.856 80.5563C124.143 80.4867 123.968 79.957 123.754 79.8776C123.713 79.8627 123.445 79.8103 123.418 79.8692C123.403 79.8999 123.704 79.919 123.748 79.8852C123.878 79.7856 123.794 79.5226 123.723 79.4135C123.637 79.2808 123.508 79.3191 123.37 79.3551C123.169 79.4075 123.093 79.6232 123.364 79.5961C123.53 79.5796 123.312 79.6013 123.26 79.6248C123.181 79.6608 123.173 79.7003 123.184 79.7747" stroke="black" stroke-width="0.2" stroke-linecap="round" stroke-linejoin="round"/>
<path d="M124.925 79.7313C124.724 79.7984 124.507 79.8773 124.765 80.0569C124.899 80.1508 125.053 80.0506 125.165 79.969C125.258 79.9016 125.155 79.7659 125.091 79.7121C125.075 79.6983 125.179 79.9495 125.21 79.9912C125.281 80.0859 125.393 80.1519 125.516 80.1488C125.817 80.1413 125.707 79.8078 125.606 79.6647C125.556 79.5928 125.403 79.414 125.292 79.4885C125.224 79.5345 125.595 79.7401 125.645 79.7458C125.853 79.7703 126.101 79.593 125.854 79.4335C125.716 79.3441 125.488 79.3223 125.344 79.4131C125.25 79.4726 125.566 79.3978 125.602 79.3769C125.733 79.3023 125.802 79.1994 125.714 79.0682C125.523 78.7843 125.112 78.9459 124.852 79.0463C124.414 79.2154 125.08 79.6808 125.354 79.3982C125.469 79.28 125.231 79.0567 125.155 78.9816C124.962 78.7903 124.7 78.767 124.489 78.939C124.26 79.1259 124.647 79.5279 124.875 79.5068C124.918 79.5028 125.182 79.4343 125.182 79.3692C125.182 79.3351 124.902 79.448 124.877 79.4975C124.802 79.6436 124.992 79.8444 125.103 79.9122C125.238 79.9946 125.338 79.9042 125.447 79.812C125.605 79.6781 125.581 79.4506 125.348 79.5923C125.205 79.6791 125.393 79.5652 125.429 79.5215C125.485 79.4547 125.475 79.4158 125.433 79.3534" stroke="black" stroke-width="0.2" stroke-linecap="round" stroke-linejoin="round"/>
<path d="M123.769 77.4301C123.825 77.226 123.881 77.0015 123.588 77.1154C123.435 77.175 123.432 77.3587 123.437 77.4971C123.442 77.6114 123.611 77.602 123.692 77.5791C123.712 77.5732 123.446 77.5195 123.394 77.5222C123.275 77.5282 123.158 77.5844 123.092 77.6879C122.931 77.9416 123.269 78.0364 123.444 78.0327C123.532 78.0309 123.765 78.0039 123.765 77.8703C123.765 77.788 123.387 77.9818 123.355 78.0193C123.219 78.1785 123.228 78.4831 123.497 78.3675C123.649 78.3026 123.794 78.1255 123.799 77.9557C123.802 77.8445 123.688 78.148 123.685 78.1901C123.674 78.3403 123.721 78.4545 123.879 78.4545C124.221 78.4545 124.316 78.0236 124.378 77.7515C124.482 77.2935 123.724 77.5871 123.805 77.9725C123.839 78.1337 124.158 78.0603 124.262 78.0394C124.529 77.9862 124.694 77.7813 124.669 77.5105C124.642 77.2162 124.092 77.3131 123.983 77.5138C123.962 77.5516 123.872 77.8091 123.926 77.8452C123.954 77.8641 124.017 77.569 123.99 77.5205C123.91 77.3774 123.637 77.4227 123.519 77.477C123.375 77.543 123.395 77.6766 123.41 77.8185C123.433 78.0244 123.636 78.1311 123.648 77.8586C123.656 77.6918 123.646 77.9109 123.661 77.9658C123.686 78.0496 123.724 78.0628 123.799 78.0628" stroke="black" stroke-width="0.2" stroke-linecap="round" stroke-linejoin="round"/>
<path d="M109.669 78.0455C109.841 77.9218 110.025 77.782 109.726 77.6871C109.569 77.6374 109.452 77.7788 109.369 77.8898C109.301 77.9817 109.439 78.0809 109.516 78.1133C109.536 78.1217 109.362 77.9126 109.319 77.8821C109.224 77.8127 109.097 77.7829 108.981 77.8222C108.696 77.9186 108.9 78.2044 109.038 78.3113C109.108 78.365 109.307 78.4904 109.391 78.3863C109.442 78.3222 109.026 78.2361 108.978 78.2452C108.772 78.2836 108.588 78.5265 108.87 78.6056C109.029 78.65 109.253 78.6031 109.363 78.4738C109.435 78.3891 109.156 78.5542 109.127 78.585C109.025 78.695 108.99 78.8137 109.113 78.9128C109.379 79.1273 109.723 78.8511 109.942 78.678C110.311 78.3865 109.536 78.1398 109.358 78.4911C109.283 78.6381 109.577 78.7805 109.672 78.8298C109.913 78.9553 110.17 78.8997 110.32 78.6729C110.484 78.4265 109.995 78.1574 109.784 78.2451C109.744 78.2616 109.512 78.4054 109.531 78.4676C109.542 78.5 109.775 78.3093 109.785 78.2545C109.812 78.093 109.572 77.9574 109.446 77.9256C109.292 77.8869 109.223 78.003 109.147 78.1234C109.035 78.2982 109.126 78.5082 109.307 78.3037C109.417 78.1786 109.272 78.3429 109.25 78.3956C109.216 78.476 109.237 78.5101 109.296 78.5573" stroke="black" stroke-width="0.2" stroke-linecap="round" stroke-linejoin="round"/>
<path d="M110.112 82.7826C110.175 82.5491 110.237 82.2924 109.91 82.4227C109.739 82.4908 109.736 82.701 109.742 82.8592C109.747 82.99 109.937 82.9792 110.026 82.953C110.049 82.9463 109.752 82.8849 109.694 82.8879C109.562 82.8949 109.431 82.9591 109.358 83.0775C109.178 83.3677 109.555 83.476 109.75 83.4718C109.848 83.4697 110.108 83.4389 110.108 83.2861C110.108 83.192 109.687 83.4136 109.651 83.4565C109.499 83.6386 109.509 83.987 109.809 83.8547C109.978 83.7806 110.14 83.578 110.145 83.3838C110.149 83.2565 110.022 83.6037 110.018 83.6518C110.006 83.8236 110.059 83.9543 110.235 83.9543C110.616 83.9543 110.722 83.4614 110.791 83.1502C110.907 82.6263 110.062 82.9622 110.153 83.4029C110.191 83.5873 110.546 83.5034 110.662 83.4795C110.959 83.4186 111.144 83.1843 111.116 82.8745C111.085 82.5379 110.473 82.6488 110.351 82.8783C110.328 82.9215 110.227 83.2161 110.287 83.2574C110.319 83.279 110.388 82.9415 110.358 82.886C110.269 82.7223 109.965 82.7742 109.834 82.8362C109.674 82.9118 109.695 83.0646 109.712 83.2268C109.738 83.4624 109.964 83.5844 109.977 83.2727C109.986 83.082 109.975 83.3325 109.992 83.3953C110.019 83.4911 110.062 83.5063 110.145 83.5063" stroke="black" stroke-width="0.2" stroke-linecap="round" stroke-linejoin="round"/>
<path d="M111.945 82.6297C112.079 82.465 112.219 82.2815 111.905 82.269C111.741 82.2624 111.665 82.4298 111.615 82.5587C111.573 82.6653 111.733 82.7245 111.815 82.7355C111.837 82.7384 111.614 82.5827 111.565 82.5644C111.454 82.5227 111.324 82.5274 111.222 82.596C110.973 82.7641 111.245 82.986 111.407 83.0525C111.488 83.0859 111.713 83.1545 111.767 83.032C111.799 82.9565 111.375 82.9832 111.331 83.0048C111.142 83.0963 111.029 83.3791 111.322 83.3808C111.487 83.3818 111.691 83.2774 111.763 83.1236C111.81 83.0229 111.585 83.2557 111.565 83.293C111.495 83.4263 111.493 83.5499 111.638 83.613C111.951 83.7496 112.21 83.3924 112.376 83.1677C112.654 82.7893 111.842 82.7558 111.763 83.1416C111.729 83.3031 112.051 83.3629 112.155 83.3855C112.42 83.443 112.654 83.3214 112.739 83.063C112.831 82.7822 112.289 82.6517 112.108 82.792C112.074 82.8184 111.889 83.0184 111.924 83.0731C111.942 83.1017 112.117 82.8561 112.112 82.8008C112.096 82.6377 111.828 82.5705 111.698 82.5731C111.54 82.5762 111.504 82.7064 111.462 82.8427C111.401 83.0407 111.544 83.2193 111.664 82.9744C111.737 82.8245 111.641 83.0214 111.633 83.078C111.622 83.1645 111.651 83.1918 111.72 83.2218" stroke="black" stroke-width="0.2" stroke-linecap="round" stroke-linejoin="round"/>
<path d="M111.463 85.6427C111.596 85.478 111.737 85.2945 111.423 85.282C111.259 85.2754 111.183 85.4428 111.133 85.5717C111.091 85.6783 111.251 85.7375 111.333 85.7485C111.355 85.7514 111.132 85.5957 111.083 85.5774C110.972 85.5357 110.842 85.5404 110.74 85.609C110.491 85.7771 110.763 85.999 110.925 86.0655C111.006 86.0989 111.231 86.1674 111.284 86.045C111.317 85.9695 110.893 85.9962 110.849 86.0178C110.66 86.1092 110.547 86.3921 110.84 86.3938C111.005 86.3948 111.209 86.2904 111.281 86.1366C111.328 86.0359 111.103 86.2687 111.083 86.306C111.013 86.4393 111.011 86.5629 111.155 86.626C111.469 86.7626 111.728 86.4054 111.894 86.1807C112.172 85.8023 111.36 85.7688 111.28 86.1546C111.247 86.3161 111.569 86.3759 111.673 86.3985C111.938 86.456 112.172 86.3344 112.257 86.076C112.349 85.7952 111.807 85.6647 111.626 85.805C111.592 85.8314 111.407 86.0313 111.442 86.0861C111.46 86.1147 111.635 85.8691 111.63 85.8138C111.614 85.6507 111.346 85.5835 111.216 85.5861C111.058 85.5892 111.022 85.7194 110.98 85.8557C110.919 86.0537 111.062 86.2323 111.182 85.9874C111.255 85.8375 111.159 86.0344 111.151 86.091C111.14 86.1775 111.169 86.2048 111.238 86.2348" stroke="black" stroke-width="0.2" stroke-linecap="round" stroke-linejoin="round"/>
<path d="M112.363 85.593C112.194 85.7207 112.013 85.8647 112.315 85.9527C112.473 85.9987 112.587 85.8547 112.667 85.7417C112.733 85.6484 112.593 85.5524 112.515 85.5217C112.495 85.5138 112.674 85.7188 112.717 85.7483C112.814 85.8155 112.941 85.8423 113.057 85.8003C113.339 85.6974 113.129 85.4164 112.988 85.3128C112.917 85.2607 112.715 85.1399 112.634 85.2458C112.584 85.3112 113.002 85.3876 113.05 85.3774C113.255 85.3342 113.434 85.0872 113.149 85.0146C112.99 84.9739 112.767 85.0259 112.659 85.1577C112.589 85.2441 112.864 85.0727 112.892 85.0412C112.993 84.9288 113.025 84.8094 112.899 84.7132C112.628 84.5048 112.29 84.7889 112.076 84.9671C111.714 85.267 112.494 85.4957 112.664 85.1404C112.735 84.9917 112.438 84.8561 112.343 84.809C112.099 84.6891 111.843 84.7507 111.698 84.9809C111.54 85.231 112.035 85.4887 112.244 85.3961C112.284 85.3787 112.512 85.2296 112.491 85.1679C112.48 85.1357 112.251 85.3318 112.243 85.3868C112.219 85.5489 112.463 85.6788 112.59 85.7077C112.744 85.7428 112.81 85.6252 112.884 85.5031C112.991 85.3258 112.896 85.1179 112.72 85.3265C112.612 85.4542 112.754 85.2865 112.774 85.2334C112.806 85.1522 112.784 85.1185 112.725 85.0728" stroke="black" stroke-width="0.2" stroke-linecap="round" stroke-linejoin="round"/>
<path d="M113.446 87.0716C113.373 87.1266 113.295 87.1887 113.425 87.2267C113.493 87.2466 113.542 87.1844 113.577 87.1357C113.605 87.0954 113.544 87.054 113.511 87.0408C113.502 87.0374 113.58 87.1258 113.598 87.1386C113.64 87.1675 113.695 87.1791 113.745 87.161C113.866 87.1166 113.776 86.9954 113.715 86.9507C113.684 86.9283 113.597 86.8761 113.562 86.9219C113.541 86.95 113.721 86.983 113.742 86.9786C113.83 86.96 113.907 86.8534 113.785 86.8221C113.716 86.8046 113.619 86.827 113.573 86.8839C113.543 86.9211 113.662 86.8472 113.674 86.8336C113.717 86.7851 113.731 86.7336 113.677 86.6921C113.56 86.6023 113.414 86.7248 113.322 86.8016C113.166 86.931 113.502 87.0296 113.575 86.8764C113.606 86.8122 113.478 86.7537 113.437 86.7334C113.332 86.6817 113.221 86.7083 113.159 86.8076C113.091 86.9154 113.304 87.0266 113.394 86.9867C113.411 86.9792 113.51 86.9148 113.501 86.8882C113.496 86.8743 113.397 86.9589 113.394 86.9826C113.383 87.0525 113.489 87.1086 113.543 87.121C113.61 87.1362 113.638 87.0855 113.67 87.0328C113.716 86.9563 113.675 86.8667 113.599 86.9566C113.553 87.0117 113.614 86.9394 113.623 86.9165C113.637 86.8814 113.627 86.8669 113.601 86.8472" stroke="black" stroke-width="0.2" stroke-linecap="round" stroke-linejoin="round"/>
<path d="M112.487 87.6704C112.598 87.5969 112.718 87.5135 112.532 87.4461C112.434 87.4108 112.357 87.4968 112.302 87.5647C112.257 87.6207 112.341 87.6868 112.389 87.7091C112.401 87.7149 112.297 87.5788 112.271 87.5585C112.212 87.5124 112.133 87.4904 112.059 87.5122C111.877 87.5656 111.998 87.7508 112.083 87.8216C112.125 87.8572 112.247 87.9413 112.303 87.8779C112.337 87.8388 112.077 87.774 112.046 87.7785C111.916 87.7974 111.793 87.9456 111.969 88.0027C112.068 88.0347 112.211 88.0109 112.283 87.9323C112.331 87.8808 112.151 87.9776 112.132 87.9963C112.064 88.0629 112.039 88.1368 112.114 88.2023C112.277 88.3442 112.501 88.1791 112.643 88.0756C112.882 87.9015 112.401 87.7264 112.279 87.943C112.229 88.0337 112.41 88.1309 112.468 88.1643C112.617 88.2495 112.781 88.2211 112.881 88.0821C112.99 87.9311 112.689 87.7492 112.554 87.799C112.528 87.8083 112.379 87.893 112.389 87.9326C112.395 87.9533 112.547 87.8392 112.554 87.8049C112.576 87.7039 112.428 87.6124 112.349 87.5892C112.254 87.5609 112.207 87.6322 112.156 87.7061C112.081 87.8133 112.133 87.9479 112.252 87.8237C112.325 87.7477 112.229 87.8475 112.214 87.8801C112.191 87.9299 112.203 87.9519 112.239 87.9831" stroke="black" stroke-width="0.2" stroke-linecap="round" stroke-linejoin="round"/>
<path d="M111.235 79.72C111.291 79.5158 111.347 79.2914 111.054 79.4053C110.901 79.4649 110.898 79.6486 110.903 79.7869C110.907 79.9013 111.077 79.8919 111.158 79.869C111.178 79.8631 110.912 79.8094 110.86 79.8121C110.741 79.8181 110.624 79.8743 110.558 79.9778C110.397 80.2315 110.735 80.3262 110.91 80.3226C110.998 80.3208 111.231 80.2938 111.231 80.1602C111.231 80.0779 110.853 80.2717 110.821 80.3092C110.685 80.4684 110.694 80.773 110.963 80.6574C111.115 80.5925 111.26 80.4154 111.265 80.2456C111.268 80.1344 111.154 80.4379 111.151 80.4799C111.14 80.6301 111.187 80.7444 111.345 80.7444C111.687 80.7444 111.782 80.3134 111.844 80.0414C111.948 79.5833 111.19 79.877 111.271 80.2623C111.305 80.4236 111.624 80.3502 111.728 80.3293C111.995 80.276 112.16 80.0712 112.135 79.8003C112.108 79.506 111.558 79.603 111.449 79.8037C111.428 79.8414 111.338 80.099 111.392 80.1351C111.42 80.154 111.483 79.8589 111.455 79.8104C111.376 79.6673 111.103 79.7126 110.985 79.7669C110.841 79.8329 110.861 79.9665 110.876 80.1083C110.899 80.3143 111.102 80.421 111.114 80.1485C111.122 79.9817 111.112 80.2008 111.127 80.2556C111.152 80.3395 111.189 80.3527 111.265 80.3527" stroke="black" stroke-width="0.2" stroke-linecap="round" stroke-linejoin="round"/>
<path d="M109.673 80.461C109.508 80.3278 109.325 80.1871 109.312 80.5011C109.306 80.6654 109.473 80.7412 109.602 80.7916C109.709 80.8332 109.768 80.6736 109.779 80.591C109.782 80.5697 109.626 80.7928 109.608 80.8415C109.566 80.9523 109.571 81.0823 109.64 81.1839C109.808 81.4332 110.03 81.161 110.096 80.9992C110.129 80.9179 110.198 80.6931 110.075 80.6397C110 80.6069 110.027 81.0308 110.048 81.0752C110.14 81.2639 110.423 81.3772 110.424 81.0837C110.425 80.9191 110.321 80.7152 110.167 80.6431C110.066 80.5959 110.299 80.8214 110.337 80.841C110.47 80.9111 110.593 80.9134 110.657 80.7685C110.793 80.4548 110.436 80.1959 110.211 80.0306C109.833 79.7523 109.799 80.5646 110.185 80.6437C110.347 80.6767 110.406 80.3556 110.429 80.2514C110.486 79.986 110.365 79.7523 110.106 79.6673C109.825 79.575 109.695 80.1175 109.835 80.2979C109.862 80.3319 110.062 80.5177 110.117 80.4824C110.145 80.4639 109.899 80.289 109.844 80.2944C109.681 80.3105 109.614 80.5784 109.617 80.7084C109.62 80.8665 109.75 80.9022 109.886 80.9444C110.084 81.0056 110.263 80.8626 110.018 80.7425C109.868 80.669 110.065 80.7656 110.121 80.773C110.208 80.7843 110.235 80.7548 110.265 80.6859" stroke="black" stroke-width="0.2" stroke-linecap="round" stroke-linejoin="round"/>
<path d="M110.873 78.0327C110.929 77.8285 110.985 77.6041 110.692 77.718C110.539 77.7776 110.536 77.9613 110.542 78.0997C110.546 78.214 110.716 78.2046 110.796 78.1817C110.817 78.1758 110.55 78.1221 110.498 78.1248C110.38 78.1308 110.263 78.187 110.197 78.2905C110.035 78.5442 110.373 78.639 110.548 78.6353C110.636 78.6335 110.87 78.6065 110.87 78.4729C110.87 78.3906 110.492 78.5844 110.459 78.6219C110.323 78.7811 110.332 79.0857 110.602 78.9701C110.753 78.9052 110.898 78.7281 110.903 78.5583C110.906 78.4471 110.792 78.7506 110.789 78.7927C110.778 78.9429 110.825 79.0571 110.983 79.0571C111.326 79.0571 111.42 78.6262 111.482 78.3541C111.586 77.8961 110.828 78.1897 110.91 78.575C110.944 78.7363 111.262 78.6629 111.367 78.642C111.633 78.5888 111.799 78.3839 111.773 78.1131C111.746 77.8188 111.197 77.9157 111.087 78.1164C111.067 78.1542 110.976 78.4117 111.03 78.4478C111.059 78.4667 111.121 78.1716 111.094 78.1231C111.014 77.98 110.742 78.0253 110.624 78.0796C110.48 78.1456 110.499 78.2792 110.515 78.4211C110.538 78.627 110.74 78.7337 110.752 78.4612C110.76 78.2944 110.75 78.5135 110.766 78.5684C110.79 78.6522 110.828 78.6654 110.903 78.6654" stroke="black" stroke-width="0.2" stroke-linecap="round" stroke-linejoin="round"/>
<path d="M113.589 88.4135C112.612 88.4135 111.648 88.2201 110.76 88.7751C110.396 89.0029 110.12 89.291 109.819 89.5919C109.502 89.9089 109.405 90.3162 109.13 90.6431C109.006 90.7901 109.009 91.0338 109.009 91.2156C109.009 91.3963 109.448 91.0444 109.538 90.9913C109.991 90.7236 110.596 90.5239 111.115 90.459C111.704 90.3854 112.028 90.0347 112.414 89.6488C112.596 89.467 112.79 89.193 112.933 88.9826C113.009 88.8703 113.129 88.5834 113.227 88.534" stroke="black" stroke-width="0.25" stroke-linecap="round" stroke-linejoin="round"/>
<path d="M113.71 88.7751C113.631 88.1988 113.711 87.7259 113.997 87.2217C114.192 86.8796 114.345 86.4088 114.747 86.2442C115.621 85.8868 116.691 85.8826 117.613 85.8826C117.709 85.8826 118.11 85.8279 118.155 85.9094C118.211 86.0101 118.044 86.2322 117.988 86.3178C117.492 87.0771 116.509 87.0275 115.685 87.0275C115.307 87.0275 114.891 87.041 114.526 87.1347C114.243 87.2074 114.03 87.3625 113.77 87.4494" stroke="black" stroke-width="0.25" stroke-linecap="round" stroke-linejoin="round"/>
<path d="M114.854 88.5943C114.949 89.3009 115.048 90.0094 115.095 90.7168C115.111 90.9526 115.15 91.1748 115.156 91.4131C115.161 91.6374 115.307 91.7011 115.34 91.8818C115.508 92.8081 116.865 93.5372 117.657 93.713C117.882 93.7631 117.818 93.5996 117.713 93.3816C117.606 93.1576 117.506 92.7488 117.355 92.5681C117.18 92.358 117.143 92.0101 117.027 91.768C116.939 91.585 116.836 91.3842 116.769 91.1989C116.7 91.0052 116.585 90.8297 116.495 90.6431C116.351 90.3444 116.094 90.1713 115.942 89.8932C115.647 89.3512 115.194 89.2949 114.794 88.8956" stroke="black" stroke-width="0.25" stroke-linecap="round" stroke-linejoin="round"/>
<path d="M117.928 94.801C116.842 94.6911 115.734 94.7408 114.644 94.7408C114.5 94.7408 114.366 94.7562 114.238 94.6805C114.142 94.6233 113.961 94.4651 113.86 94.4428C113.59 94.3827 113.052 94.3536 113.502 94.0478C113.877 93.7929 114.378 93.2506 114.868 93.2343C115.392 93.2168 116.056 93.1588 116.542 93.4017C116.852 93.5568 117.164 93.722 117.459 93.8971C117.596 93.9781 117.777 94.0797 117.924 94.1348C118.096 94.1994 118.163 94.3419 118.35 94.3792" stroke="black" stroke-width="0.25" stroke-linecap="round" stroke-linejoin="round"/>
<path d="M119.073 95.8857C118.485 95.8857 117.975 95.6447 117.385 95.6447C117.125 95.6447 116.623 95.5642 116.418 95.7351C116.31 95.8247 116.069 95.8072 115.939 95.8723C115.699 95.9926 115.601 96.287 115.397 96.4147C115.112 96.5924 114.78 96.7945 114.52 97.0072C114.409 97.0979 114.261 97.2552 114.205 97.3922C114.169 97.4787 115.131 97.1796 115.27 97.0943C115.702 96.828 116.265 96.7705 116.736 96.5821C117.177 96.4057 117.569 96.2473 118.052 96.2473C118.314 96.2473 118.563 96.1931 118.818 96.187C118.997 96.1828 119.088 96.0665 119.253 96.0665" stroke="black" stroke-width="0.25" stroke-linecap="round" stroke-linejoin="round"/>
<path d="M115.337 101.068C115.88 101.186 116.362 101.426 116.803 101.731C117.138 101.963 117.402 102.351 117.72 102.611C118.032 102.867 118.27 103.195 118.38 103.569C118.564 104.196 118.869 104.629 119.207 105.179C119.394 105.485 119.643 105.754 119.809 106.07C119.949 106.336 120.123 106.65 120.305 106.883C120.35 106.941 120.235 106.096 120.171 105.902C120.068 105.594 119.956 105.295 119.853 104.985C119.754 104.689 119.555 104.324 119.407 104.051C119.27 103.797 119.173 103.585 119.012 103.345C118.654 102.807 118.484 102.167 118.021 101.704C117.888 101.571 117.594 101.58 117.412 101.547C117.208 101.51 116.95 101.383 116.769 101.276C116.583 101.165 116.123 101.225 115.906 101.185C115.727 101.153 115.367 101.048 115.216 100.948" stroke="black" stroke-width="0.25" stroke-linecap="round" stroke-linejoin="round"/>
<path d="M120.897 102.088C120.741 101.243 120.583 100.42 120.462 99.5709C120.355 98.8218 120.415 98.0382 120.415 97.281C120.415 96.8371 120.577 96.4476 120.716 96.029C120.886 95.5214 121.042 95.0141 121.259 94.5258C121.42 94.1626 121.719 93.8185 121.922 93.4713C122.083 93.1944 122.251 92.9126 122.497 92.7113C123 92.3004 123.903 92.1765 124.54 92.3397C125.336 92.5439 125.936 92.7793 126.501 93.3776C126.743 93.633 127.027 93.8848 127.225 94.181C127.338 94.3507 127.333 94.3796 127.131 94.3618C126.729 94.3265 126.332 94.3149 125.929 94.3149C125.383 94.3149 124.3 94.5235 123.877 94.1007C123.594 93.8177 123.383 93.6065 123.187 93.2637C123.06 93.0416 122.97 92.7841 122.826 92.5674" stroke="black" stroke-width="0.25" stroke-linecap="round" stroke-linejoin="round"/>
<path d="M121.784 93.7164C122.006 94.0571 122.317 94.2488 122.598 94.5299C122.787 94.7193 122.947 94.9782 123.167 95.1291C123.445 95.3202 123.622 95.7345 123.786 96.0196C124.035 96.4494 124.154 96.8549 124.315 97.2985C124.4 97.5325 124.472 97.8344 124.57 98.0551C124.696 98.3384 124.255 97.8665 124.198 97.8241C123.991 97.6689 123.834 97.4529 123.649 97.2683C123.383 97.0025 122.969 96.8101 122.782 96.5017C122.316 95.7343 121.941 94.9473 121.724 94.0779" stroke="black" stroke-width="0.25" stroke-linecap="round" stroke-linejoin="round"/>
<path d="M121.001 94.8613C121.189 96.4131 122.754 97.6542 122.374 99.2603C122.219 99.9114 122.015 100.452 121.63 101.011C121.512 101.184 121.457 101.358 121.363 101.523C121.268 101.689 121.106 101.814 121.001 101.972" stroke="black" stroke-width="0.25" stroke-linecap="round" stroke-linejoin="round"/>
<path d="M120.76 104.324C120.776 103.331 121.075 102.427 121.54 101.555C121.858 100.959 122.321 100.231 122.809 99.7439C123.189 99.3635 123.678 99.0928 124.101 98.7664C124.432 98.5107 124.904 98.2124 125.31 98.1169C126.062 97.9399 126.762 97.5452 127.556 97.5745C127.874 97.5863 127.473 98.2098 127.375 98.3111C127.048 98.6511 126.718 98.9772 126.428 99.3522C126.2 99.6469 125.956 99.9886 125.638 100.196C125.099 100.546 124.499 100.712 123.907 100.949C123.285 101.198 122.664 101.556 122.082 101.883C121.844 102.017 121.658 102.231 121.419 102.365C121.235 102.469 120.975 102.628 120.88 102.817" stroke="black" stroke-width="0.25" stroke-linecap="round" stroke-linejoin="round"/>
<path d="M124.858 101.505C125.473 101.059 125.97 100.277 126.632 99.9111C126.901 99.7624 127.098 99.5212 127.395 99.429C127.918 99.2668 128.417 99.1891 128.962 99.0943C130.351 98.8527 131.746 99.2267 133.013 99.7571C133.519 99.9692 132.357 99.9379 132.229 99.9379C131.943 99.9379 131.613 100.015 131.346 100.119C130.997 100.253 130.705 100.44 130.341 100.54C129.878 100.668 129.344 100.601 128.865 100.601C127.913 100.601 126.94 100.661 126.003 100.661" stroke="black" stroke-width="0.25" stroke-linecap="round" stroke-linejoin="round"/>
<path d="M125.942 97.7099C126.106 96.8621 126.618 96.0637 127 95.2995C127.179 94.9412 127.518 94.7483 127.797 94.4693C127.928 94.3386 127.871 94.6759 127.871 94.7438C127.871 95.009 127.874 95.2652 127.917 95.5272C127.953 95.7394 127.984 96.0041 127.991 96.2168C128.008 96.6989 127.968 97.1526 127.75 97.5894" stroke="black" stroke-width="0.25" stroke-linecap="round" stroke-linejoin="round"/>
<path d="M126.786 93.9574C127.631 93.3725 128.398 92.9933 129.451 92.9933C130.141 92.9933 130.832 92.9933 131.523 92.9933C132.082 92.9933 132.321 93.2131 132.661 93.6293C132.763 93.7536 132.782 93.9233 132.886 94.0311C133.219 94.3777 132.313 94.1192 132.142 94.0913C131.058 93.914 129.843 93.6947 128.748 93.8938C128.416 93.954 128.122 94.1436 127.787 94.1951C127.56 94.23 127.159 94.3714 126.967 94.4997" stroke="black" stroke-width="0.25" stroke-linecap="round" stroke-linejoin="round"/>
<path d="M119.133 95.821C118.376 94.5497 117.867 92.9495 117.867 91.4689C117.867 90.5973 118.297 89.6289 118.889 88.9882C119.245 88.6016 119.545 88.0289 120.124 87.9236C120.278 87.8957 120.507 87.6505 120.666 87.696C120.829 87.7424 120.663 88.7451 120.626 88.9045C120.49 89.4895 120.031 90.2443 119.525 90.5818C119.302 90.7303 119.162 91.1272 119.012 91.335C118.738 91.7157 118.398 92.0427 118.242 92.4933C118.106 92.8888 118.424 93.4464 118.242 93.8092" stroke="black" stroke-width="0.25" stroke-linecap="round" stroke-linejoin="round"/>
<path d="M118.591 94.4997C119.032 94.0306 118.888 93.2894 119.073 92.6986C119.295 91.9876 119.704 91.2341 120.191 90.6699C120.456 90.3624 120.993 89.679 121.456 89.679C122.232 89.679 123.004 89.6187 123.773 89.6187C124.165 89.6187 124.971 89.682 124.188 90.0874C123.525 90.4307 122.668 90.5692 121.932 90.5829C121.729 90.5866 121.554 90.7034 121.363 90.7034C121.203 90.7034 121.04 90.6954 120.88 90.7034C120.603 90.7172 120.137 90.8391 119.916 91.0047" stroke="black" stroke-width="0.25" stroke-linecap="round" stroke-linejoin="round"/>
<path d="M119.374 96.3202C119.304 95.7153 119.073 95.0616 119.073 94.4522C119.073 93.8556 119.482 93.3924 119.816 92.9256C120.17 92.4294 120.595 91.9987 121.108 91.6802C121.663 91.3358 122.374 91.4227 122.983 91.2584C123.178 91.2057 123.37 91.1633 123.579 91.1981C123.643 91.2089 123.32 91.5609 123.298 91.5898C123.176 91.7458 123.078 91.9102 122.943 92.0552C122.683 92.3342 122.374 92.8274 122.025 92.9925C121.823 93.0883 121.451 93.0448 121.229 93.0796C120.943 93.1241 120.703 93.1867 120.412 93.1867C120.138 93.1867 119.88 93.247 119.615 93.247" stroke="black" stroke-width="0.25" stroke-linecap="round" stroke-linejoin="round"/>
<path d="M115.939 89.5282C116.247 88.9003 116.409 88.0891 116.964 87.6267C117.393 87.2691 117.83 86.8567 118.316 86.5788C118.629 86.4001 118.926 86.1918 119.253 86.0465C119.863 85.7755 119.085 86.8539 119.026 87.0575C118.904 87.4781 118.746 87.8146 118.41 88.1087C118.185 88.3055 117.921 88.4651 117.717 88.6845C117.608 88.8019 117.448 88.824 117.352 88.9289C117.198 89.0964 116.916 89.3073 116.722 89.4211C116.479 89.5643 116.213 89.6162 115.999 89.8295" stroke="black" stroke-width="0.25" stroke-linecap="round" stroke-linejoin="round"/>
<path d="M127.027 91.6073C127.135 90.823 127.445 90.1987 127.901 89.5651C128.259 89.0661 128.61 88.9625 129.159 88.7181C129.57 88.5359 130.105 88.5943 130.542 88.5943C130.691 88.5943 131.084 88.4614 130.987 88.5742C130.841 88.7454 130.573 88.8118 130.401 88.9592C130.136 89.1863 129.939 89.4583 129.618 89.6187C129.268 89.7936 128.68 89.8985 128.292 89.92C127.92 89.9407 127.586 90.1295 127.268 90.3418" stroke="black" stroke-width="0.25" stroke-linecap="round" stroke-linejoin="round"/>
</svg>
